G04 #@! TF.GenerationSoftware,KiCad,Pcbnew,7.0.7*
G04 #@! TF.CreationDate,2024-03-26T15:42:09-05:00*
G04 #@! TF.ProjectId,Hardware_2024,48617264-7761-4726-955f-323032342e6b,rev?*
G04 #@! TF.SameCoordinates,Original*
G04 #@! TF.FileFunction,Copper,L1,Top*
G04 #@! TF.FilePolarity,Positive*
%FSLAX46Y46*%
G04 Gerber Fmt 4.6, Leading zero omitted, Abs format (unit mm)*
G04 Created by KiCad (PCBNEW 7.0.7) date 2024-03-26 15:42:09*
%MOMM*%
%LPD*%
G01*
G04 APERTURE LIST*
G04 Aperture macros list*
%AMRoundRect*
0 Rectangle with rounded corners*
0 $1 Rounding radius*
0 $2 $3 $4 $5 $6 $7 $8 $9 X,Y pos of 4 corners*
0 Add a 4 corners polygon primitive as box body*
4,1,4,$2,$3,$4,$5,$6,$7,$8,$9,$2,$3,0*
0 Add four circle primitives for the rounded corners*
1,1,$1+$1,$2,$3*
1,1,$1+$1,$4,$5*
1,1,$1+$1,$6,$7*
1,1,$1+$1,$8,$9*
0 Add four rect primitives between the rounded corners*
20,1,$1+$1,$2,$3,$4,$5,0*
20,1,$1+$1,$4,$5,$6,$7,0*
20,1,$1+$1,$6,$7,$8,$9,0*
20,1,$1+$1,$8,$9,$2,$3,0*%
G04 Aperture macros list end*
G04 #@! TA.AperFunction,ComponentPad*
%ADD10C,1.524000*%
G04 #@! TD*
G04 #@! TA.AperFunction,SMDPad,CuDef*
%ADD11RoundRect,0.225000X0.225000X0.250000X-0.225000X0.250000X-0.225000X-0.250000X0.225000X-0.250000X0*%
G04 #@! TD*
G04 #@! TA.AperFunction,SMDPad,CuDef*
%ADD12RoundRect,0.237500X-0.287500X-0.237500X0.287500X-0.237500X0.287500X0.237500X-0.287500X0.237500X0*%
G04 #@! TD*
G04 #@! TA.AperFunction,SMDPad,CuDef*
%ADD13RoundRect,0.237500X0.250000X0.237500X-0.250000X0.237500X-0.250000X-0.237500X0.250000X-0.237500X0*%
G04 #@! TD*
G04 #@! TA.AperFunction,ComponentPad*
%ADD14C,3.500000*%
G04 #@! TD*
G04 #@! TA.AperFunction,ComponentPad*
%ADD15C,1.700000*%
G04 #@! TD*
G04 #@! TA.AperFunction,ComponentPad*
%ADD16O,3.000000X5.100000*%
G04 #@! TD*
G04 #@! TA.AperFunction,ViaPad*
%ADD17C,0.800000*%
G04 #@! TD*
G04 #@! TA.AperFunction,Conductor*
%ADD18C,0.508000*%
G04 #@! TD*
G04 #@! TA.AperFunction,Conductor*
%ADD19C,0.254000*%
G04 #@! TD*
G04 #@! TA.AperFunction,Conductor*
%ADD20C,0.250000*%
G04 #@! TD*
G04 APERTURE END LIST*
D10*
X166476000Y-74422000D03*
X166476000Y-76962000D03*
D11*
X116985500Y-81978000D03*
X115435500Y-81978000D03*
D12*
X115330000Y-79311000D03*
X117080000Y-79311000D03*
X115330000Y-76073000D03*
X117080000Y-76073000D03*
D10*
X188976000Y-74422000D03*
X188976000Y-76962000D03*
D13*
X121462500Y-72771000D03*
X119637500Y-72771000D03*
X121462500Y-76073000D03*
X119637500Y-76073000D03*
D14*
X128380000Y-75425000D03*
X128380000Y-70345000D03*
X128380000Y-62725000D03*
X148700000Y-62725000D03*
X148700000Y-72885000D03*
X148700000Y-83045000D03*
D10*
X196476000Y-74422000D03*
X196476000Y-76962000D03*
D13*
X121462500Y-79311000D03*
X119637500Y-79311000D03*
D10*
X203976000Y-74422000D03*
X203976000Y-76962000D03*
X181476000Y-74422000D03*
X181476000Y-76962000D03*
D11*
X121430500Y-82105000D03*
X119880500Y-82105000D03*
D12*
X115330000Y-72771000D03*
X117080000Y-72771000D03*
D15*
X161671000Y-63627000D03*
X161671000Y-61087000D03*
X164211000Y-63627000D03*
X164211000Y-61087000D03*
X166751000Y-63627000D03*
X166751000Y-61087000D03*
X169291000Y-63627000D03*
X169291000Y-61087000D03*
X171831000Y-63627000D03*
X171831000Y-61087000D03*
X174371000Y-63627000D03*
X174371000Y-61087000D03*
X176911000Y-63627000D03*
X176911000Y-61087000D03*
X179451000Y-63627000D03*
X179451000Y-61087000D03*
X181991000Y-63627000D03*
X181991000Y-61087000D03*
X184531000Y-63627000D03*
X184531000Y-61087000D03*
X187071000Y-63627000D03*
X187071000Y-61087000D03*
X189611000Y-63627000D03*
X189611000Y-61087000D03*
X192151000Y-63627000D03*
X192151000Y-61087000D03*
X194691000Y-63627000D03*
X194691000Y-61087000D03*
X197231000Y-63627000D03*
X197231000Y-61087000D03*
X199771000Y-63627000D03*
X199771000Y-61087000D03*
X202311000Y-63627000D03*
X202311000Y-61087000D03*
X204851000Y-63627000D03*
X204851000Y-61087000D03*
X207391000Y-63627000D03*
X207391000Y-61087000D03*
X209931000Y-63627000D03*
X209931000Y-61087000D03*
D10*
X173976000Y-74422000D03*
X173976000Y-76962000D03*
D16*
X127381000Y-91186000D03*
X127381000Y-99060000D03*
D17*
X130683000Y-87757000D03*
X190627000Y-69977000D03*
X198882000Y-69215000D03*
X203835000Y-68199000D03*
X183007000Y-68834000D03*
X176276000Y-67691000D03*
X170180000Y-66675000D03*
X159512000Y-68961000D03*
X118369500Y-80581000D03*
X118369500Y-77787000D03*
D18*
X121430500Y-82105000D02*
X121430500Y-79343000D01*
X121430500Y-79343000D02*
X121462500Y-79311000D01*
X121462500Y-79311000D02*
X124494000Y-79311000D01*
X130683000Y-95758000D02*
X130683000Y-87757000D01*
X127381000Y-99060000D02*
X130683000Y-95758000D01*
X124494000Y-79311000D02*
X128380000Y-75425000D01*
D19*
X190627000Y-69977000D02*
X191262000Y-69342000D01*
X198755000Y-69342000D02*
X198882000Y-69215000D01*
X191262000Y-69342000D02*
X198755000Y-69342000D01*
X203835000Y-68199000D02*
X183642000Y-68199000D01*
X183642000Y-68199000D02*
X183007000Y-68834000D01*
X176276000Y-67691000D02*
X176784000Y-67183000D01*
X176784000Y-67183000D02*
X206629000Y-67183000D01*
X207391000Y-66421000D02*
X207391000Y-63627000D01*
X206629000Y-67183000D02*
X207391000Y-66421000D01*
X170688000Y-66167000D02*
X195072000Y-66167000D01*
X195072000Y-66167000D02*
X197231000Y-64008000D01*
X197231000Y-64008000D02*
X197231000Y-63627000D01*
X170180000Y-66675000D02*
X170688000Y-66167000D01*
X121462500Y-72771000D02*
X144526000Y-72771000D01*
X166476000Y-68432000D02*
X166476000Y-74422000D01*
X160020000Y-65659000D02*
X161861500Y-63817500D01*
X161861500Y-63817500D02*
X166476000Y-68432000D01*
X151638000Y-65659000D02*
X160020000Y-65659000D01*
X121462500Y-72771000D02*
X121780500Y-72453000D01*
X144526000Y-72771000D02*
X151638000Y-65659000D01*
X166476000Y-74422000D02*
X173976000Y-74422000D01*
X173976000Y-74422000D02*
X181476000Y-74422000D01*
X181476000Y-74422000D02*
X188976000Y-74422000D01*
X119004500Y-77152000D02*
X118369500Y-77787000D01*
X121462500Y-76073000D02*
X120383500Y-77152000D01*
X118369500Y-80581000D02*
X118369500Y-80594000D01*
D18*
X147290000Y-84455000D02*
X119462500Y-84455000D01*
D19*
X118369500Y-80594000D02*
X116985500Y-81978000D01*
D18*
X148700000Y-83045000D02*
X159512000Y-72233000D01*
X119462500Y-84455000D02*
X116985500Y-81978000D01*
X148700000Y-83045000D02*
X147290000Y-84455000D01*
X161671000Y-61468000D02*
X164211000Y-61468000D01*
X159512000Y-72233000D02*
X159512000Y-68961000D01*
D19*
X120383500Y-77152000D02*
X119004500Y-77152000D01*
D20*
X117080000Y-72771000D02*
X119637500Y-72771000D01*
X117080000Y-76073000D02*
X119637500Y-76073000D01*
X117080000Y-79311000D02*
X119637500Y-79311000D01*
G04 #@! TA.AperFunction,Conductor*
G36*
X217493539Y-59456185D02*
G01*
X217539294Y-59508989D01*
X217550500Y-59560500D01*
X217550500Y-112778500D01*
X217530815Y-112845539D01*
X217478011Y-112891294D01*
X217426500Y-112902500D01*
X216024959Y-112902500D01*
X215957920Y-112882815D01*
X215912165Y-112830011D01*
X215902221Y-112760853D01*
X215931246Y-112697297D01*
X215947643Y-112681555D01*
X215994981Y-112643805D01*
X216017510Y-112619525D01*
X216081598Y-112550454D01*
X216173433Y-112451479D01*
X216321228Y-112234704D01*
X216435063Y-111998323D01*
X216512396Y-111747615D01*
X216551500Y-111488182D01*
X216551500Y-111225818D01*
X216512396Y-110966385D01*
X216435063Y-110715677D01*
X216423121Y-110690880D01*
X216321232Y-110479303D01*
X216321231Y-110479302D01*
X216321230Y-110479301D01*
X216321228Y-110479296D01*
X216173433Y-110262521D01*
X216139345Y-110225783D01*
X215994985Y-110070198D01*
X215880809Y-109979146D01*
X215789857Y-109906614D01*
X215562643Y-109775432D01*
X215318416Y-109679580D01*
X215318411Y-109679578D01*
X215318402Y-109679576D01*
X215100818Y-109629914D01*
X215062630Y-109621198D01*
X215062629Y-109621197D01*
X215062625Y-109621197D01*
X215062620Y-109621196D01*
X214866500Y-109606500D01*
X214866494Y-109606500D01*
X214735506Y-109606500D01*
X214735500Y-109606500D01*
X214539379Y-109621196D01*
X214539374Y-109621197D01*
X214283597Y-109679576D01*
X214283578Y-109679582D01*
X214039356Y-109775432D01*
X213812143Y-109906614D01*
X213607014Y-110070198D01*
X213428567Y-110262520D01*
X213280768Y-110479302D01*
X213280767Y-110479303D01*
X213166938Y-110715673D01*
X213089606Y-110966376D01*
X213089605Y-110966381D01*
X213089604Y-110966385D01*
X213079336Y-111034509D01*
X213050500Y-111225812D01*
X213050500Y-111488187D01*
X213057575Y-111535122D01*
X213089604Y-111747615D01*
X213089605Y-111747617D01*
X213089606Y-111747623D01*
X213166938Y-111998326D01*
X213280767Y-112234696D01*
X213280768Y-112234697D01*
X213280770Y-112234700D01*
X213280772Y-112234704D01*
X213322997Y-112296636D01*
X213428567Y-112451479D01*
X213607014Y-112643801D01*
X213607018Y-112643804D01*
X213607019Y-112643805D01*
X213654354Y-112681553D01*
X213694494Y-112738742D01*
X213697344Y-112808553D01*
X213661998Y-112868823D01*
X213599679Y-112900416D01*
X213577041Y-112902500D01*
X158024959Y-112902500D01*
X157957920Y-112882815D01*
X157912165Y-112830011D01*
X157902221Y-112760853D01*
X157931246Y-112697297D01*
X157947643Y-112681555D01*
X157994981Y-112643805D01*
X158017510Y-112619525D01*
X158081598Y-112550454D01*
X158173433Y-112451479D01*
X158321228Y-112234704D01*
X158435063Y-111998323D01*
X158512396Y-111747615D01*
X158551500Y-111488182D01*
X158551500Y-111225818D01*
X158512396Y-110966385D01*
X158435063Y-110715677D01*
X158423121Y-110690880D01*
X158321232Y-110479303D01*
X158321231Y-110479302D01*
X158321230Y-110479301D01*
X158321228Y-110479296D01*
X158173433Y-110262521D01*
X158139345Y-110225783D01*
X157994985Y-110070198D01*
X157880809Y-109979146D01*
X157789857Y-109906614D01*
X157562643Y-109775432D01*
X157318416Y-109679580D01*
X157318411Y-109679578D01*
X157318402Y-109679576D01*
X157100818Y-109629914D01*
X157062630Y-109621198D01*
X157062629Y-109621197D01*
X157062625Y-109621197D01*
X157062620Y-109621196D01*
X156866500Y-109606500D01*
X156866494Y-109606500D01*
X156735506Y-109606500D01*
X156735500Y-109606500D01*
X156539379Y-109621196D01*
X156539374Y-109621197D01*
X156283597Y-109679576D01*
X156283578Y-109679582D01*
X156039356Y-109775432D01*
X155812143Y-109906614D01*
X155607014Y-110070198D01*
X155428567Y-110262520D01*
X155280768Y-110479302D01*
X155280767Y-110479303D01*
X155166938Y-110715673D01*
X155089606Y-110966376D01*
X155089605Y-110966381D01*
X155089604Y-110966385D01*
X155079336Y-111034509D01*
X155050500Y-111225812D01*
X155050500Y-111488187D01*
X155057575Y-111535122D01*
X155089604Y-111747615D01*
X155089605Y-111747617D01*
X155089606Y-111747623D01*
X155166938Y-111998326D01*
X155280767Y-112234696D01*
X155280768Y-112234697D01*
X155280770Y-112234700D01*
X155280772Y-112234704D01*
X155322997Y-112296636D01*
X155428567Y-112451479D01*
X155607014Y-112643801D01*
X155607018Y-112643804D01*
X155607019Y-112643805D01*
X155654354Y-112681553D01*
X155694494Y-112738742D01*
X155697344Y-112808553D01*
X155661998Y-112868823D01*
X155599679Y-112900416D01*
X155577041Y-112902500D01*
X115576078Y-112902500D01*
X115509039Y-112882815D01*
X115463284Y-112830011D01*
X115453340Y-112760853D01*
X115482365Y-112697297D01*
X115541143Y-112659523D01*
X115557597Y-112655885D01*
X115561760Y-112655257D01*
X115850353Y-112611759D01*
X116234726Y-112513886D01*
X116607445Y-112378228D01*
X116964803Y-112206133D01*
X117303251Y-111999312D01*
X117619424Y-111759820D01*
X117910181Y-111490037D01*
X118172631Y-111192645D01*
X118404166Y-110870600D01*
X118602485Y-110527101D01*
X118765617Y-110165563D01*
X118891941Y-109789578D01*
X118980201Y-109402885D01*
X119029521Y-109009325D01*
X119034462Y-108811190D01*
X119039409Y-108612826D01*
X119039409Y-108612810D01*
X119017886Y-108325600D01*
X119009769Y-108217280D01*
X118940893Y-107826668D01*
X118833467Y-107444854D01*
X118688559Y-107075634D01*
X118507609Y-106722677D01*
X118292414Y-106389491D01*
X118045114Y-106079386D01*
X118045111Y-106079383D01*
X118045104Y-106079374D01*
X117768176Y-105795455D01*
X117768173Y-105795452D01*
X117768172Y-105795451D01*
X117768167Y-105795446D01*
X117464324Y-105540492D01*
X117391613Y-105490918D01*
X117136605Y-105317057D01*
X117020494Y-105253826D01*
X116788270Y-105127364D01*
X116788262Y-105127360D01*
X116788259Y-105127359D01*
X116422777Y-104973296D01*
X116422761Y-104973290D01*
X116043764Y-104856385D01*
X116043751Y-104856382D01*
X115655000Y-104777794D01*
X115654979Y-104777791D01*
X115260320Y-104738300D01*
X115260319Y-104738300D01*
X114962899Y-104738300D01*
X114962897Y-104738300D01*
X114665855Y-104753124D01*
X114273647Y-104812241D01*
X113889272Y-104910114D01*
X113516549Y-105045774D01*
X113159191Y-105217869D01*
X112820753Y-105424684D01*
X112820742Y-105424692D01*
X112504575Y-105664180D01*
X112504572Y-105664182D01*
X112213813Y-105933968D01*
X111951365Y-106231359D01*
X111719839Y-106553393D01*
X111719826Y-106553413D01*
X111521516Y-106896896D01*
X111358382Y-107258437D01*
X111232059Y-107634419D01*
X111143799Y-108021111D01*
X111131455Y-108119616D01*
X111118537Y-108222696D01*
X111090670Y-108286766D01*
X111032586Y-108325600D01*
X110962728Y-108326867D01*
X110903275Y-108290164D01*
X110873102Y-108227145D01*
X110871500Y-108207276D01*
X110871500Y-100175177D01*
X125680500Y-100175177D01*
X125695484Y-100370342D01*
X125695484Y-100370347D01*
X125754978Y-100624583D01*
X125754981Y-100624593D01*
X125852581Y-100866758D01*
X125852586Y-100866767D01*
X125920819Y-100981539D01*
X125986018Y-101091208D01*
X126071701Y-101195104D01*
X126152150Y-101292654D01*
X126347071Y-101466368D01*
X126347088Y-101466381D01*
X126566242Y-101608304D01*
X126566245Y-101608304D01*
X126566247Y-101608306D01*
X126804511Y-101715118D01*
X127056287Y-101784307D01*
X127315675Y-101814252D01*
X127576593Y-101804251D01*
X127832927Y-101754538D01*
X127832930Y-101754537D01*
X128078663Y-101666281D01*
X128078664Y-101666280D01*
X128078668Y-101666279D01*
X128308057Y-101541541D01*
X128515716Y-101383250D01*
X128696778Y-101195114D01*
X128846999Y-100981544D01*
X128962859Y-100747547D01*
X129041641Y-100498605D01*
X129081500Y-100240555D01*
X129081500Y-98053620D01*
X129101185Y-97986582D01*
X129117814Y-97965945D01*
X130983874Y-96099884D01*
X130989046Y-96095264D01*
X130989904Y-96094579D01*
X131019936Y-96070631D01*
X131053746Y-96021039D01*
X131089369Y-95972773D01*
X131089370Y-95972767D01*
X131093391Y-95965161D01*
X131097112Y-95957432D01*
X131097116Y-95957428D01*
X131114808Y-95900071D01*
X131134620Y-95843451D01*
X131134620Y-95843448D01*
X131134621Y-95843446D01*
X131136220Y-95834994D01*
X131137500Y-95826506D01*
X131137500Y-95766482D01*
X131139743Y-95706539D01*
X131138702Y-95697300D01*
X131139523Y-95697207D01*
X131137499Y-95681835D01*
X131137499Y-95518376D01*
X131137499Y-88193202D01*
X131157184Y-88126167D01*
X131163120Y-88117723D01*
X131207536Y-88059841D01*
X131268044Y-87913762D01*
X131288682Y-87757000D01*
X131268044Y-87600238D01*
X131207536Y-87454159D01*
X131111282Y-87328718D01*
X130985841Y-87232464D01*
X130839762Y-87171956D01*
X130839760Y-87171955D01*
X130683001Y-87151318D01*
X130682999Y-87151318D01*
X130526239Y-87171955D01*
X130526237Y-87171956D01*
X130380160Y-87232463D01*
X130254718Y-87328718D01*
X130158463Y-87454160D01*
X130097956Y-87600237D01*
X130097955Y-87600239D01*
X130077318Y-87756998D01*
X130077318Y-87757001D01*
X130097955Y-87913760D01*
X130097957Y-87913765D01*
X130158461Y-88059836D01*
X130158464Y-88059841D01*
X130202876Y-88117720D01*
X130228070Y-88182889D01*
X130228500Y-88193206D01*
X130228500Y-95518376D01*
X130208815Y-95585415D01*
X130192181Y-95606057D01*
X128869536Y-96928701D01*
X128808213Y-96962186D01*
X128738521Y-96957202D01*
X128686191Y-96919915D01*
X128609852Y-96827348D01*
X128609849Y-96827345D01*
X128414928Y-96653631D01*
X128414911Y-96653618D01*
X128195757Y-96511695D01*
X128195753Y-96511694D01*
X127957488Y-96404881D01*
X127705714Y-96335693D01*
X127532946Y-96315748D01*
X127446325Y-96305748D01*
X127446324Y-96305748D01*
X127185406Y-96315748D01*
X126929071Y-96365462D01*
X126929069Y-96365462D01*
X126683336Y-96453718D01*
X126453939Y-96578461D01*
X126246288Y-96736746D01*
X126246284Y-96736749D01*
X126246284Y-96736750D01*
X126159093Y-96827348D01*
X126065223Y-96924885D01*
X126065214Y-96924895D01*
X125915010Y-97138441D01*
X125914999Y-97138460D01*
X125799139Y-97372455D01*
X125720360Y-97621391D01*
X125720359Y-97621395D01*
X125680500Y-97879445D01*
X125680500Y-97879448D01*
X125680500Y-97879449D01*
X125680500Y-100175177D01*
X110871500Y-100175177D01*
X110871500Y-82261493D01*
X116335000Y-82261493D01*
X116350779Y-82361121D01*
X116350780Y-82361124D01*
X116350781Y-82361126D01*
X116411972Y-82481220D01*
X116411973Y-82481221D01*
X116411976Y-82481225D01*
X116507274Y-82576523D01*
X116507278Y-82576526D01*
X116507280Y-82576528D01*
X116627374Y-82637719D01*
X116627376Y-82637719D01*
X116627378Y-82637720D01*
X116727007Y-82653500D01*
X116727012Y-82653500D01*
X116966878Y-82653500D01*
X117033917Y-82673185D01*
X117054559Y-82689819D01*
X119120603Y-84755864D01*
X119125239Y-84761051D01*
X119149869Y-84791936D01*
X119199449Y-84825739D01*
X119247727Y-84861369D01*
X119247729Y-84861369D01*
X119247731Y-84861371D01*
X119255341Y-84865393D01*
X119263070Y-84869115D01*
X119263072Y-84869116D01*
X119320415Y-84886803D01*
X119377049Y-84906621D01*
X119377051Y-84906621D01*
X119385492Y-84908218D01*
X119393994Y-84909499D01*
X119393995Y-84909500D01*
X119453991Y-84909500D01*
X119513961Y-84911744D01*
X119513961Y-84911743D01*
X119513963Y-84911744D01*
X119513964Y-84911743D01*
X119523195Y-84910704D01*
X119523287Y-84911524D01*
X119538662Y-84909500D01*
X147260987Y-84909500D01*
X147267925Y-84909889D01*
X147300198Y-84913525D01*
X147307185Y-84914313D01*
X147307185Y-84914312D01*
X147307186Y-84914313D01*
X147366148Y-84903156D01*
X147388661Y-84899762D01*
X147425474Y-84894215D01*
X147425475Y-84894214D01*
X147425479Y-84894214D01*
X147425482Y-84894212D01*
X147433721Y-84891670D01*
X147441802Y-84888843D01*
X147441805Y-84888841D01*
X147441807Y-84888841D01*
X147494858Y-84860802D01*
X147548921Y-84834767D01*
X147548923Y-84834764D01*
X147548927Y-84834763D01*
X147556023Y-84829924D01*
X147562938Y-84824822D01*
X147563994Y-84823766D01*
X147605369Y-84782390D01*
X147616446Y-84772111D01*
X147678975Y-84740943D01*
X147748432Y-84748527D01*
X147760212Y-84754175D01*
X147793062Y-84772113D01*
X147887657Y-84823766D01*
X147887661Y-84823768D01*
X147887663Y-84823769D01*
X148149077Y-84921271D01*
X148285391Y-84950924D01*
X148421700Y-84980577D01*
X148421702Y-84980577D01*
X148421706Y-84980578D01*
X148669014Y-84998265D01*
X148699999Y-85000482D01*
X148700000Y-85000482D01*
X148700001Y-85000482D01*
X148727881Y-84998487D01*
X148978294Y-84980578D01*
X149250923Y-84921271D01*
X149512337Y-84823769D01*
X149757213Y-84690056D01*
X149980568Y-84522855D01*
X150177855Y-84325568D01*
X150345056Y-84102213D01*
X150478769Y-83857337D01*
X150576271Y-83595923D01*
X150635578Y-83323294D01*
X150655482Y-83045000D01*
X150635578Y-82766706D01*
X150621834Y-82703528D01*
X150576272Y-82494083D01*
X150576271Y-82494077D01*
X150478769Y-82232663D01*
X150408938Y-82104777D01*
X150394086Y-82036504D01*
X150418503Y-81971040D01*
X150430082Y-81957676D01*
X155425758Y-76962000D01*
X165508843Y-76962000D01*
X165527426Y-77150681D01*
X165539328Y-77189917D01*
X165582463Y-77332115D01*
X165582464Y-77332118D01*
X165582465Y-77332119D01*
X165582466Y-77332122D01*
X165671834Y-77499318D01*
X165671838Y-77499325D01*
X165792116Y-77645883D01*
X165938674Y-77766161D01*
X165938681Y-77766165D01*
X166105877Y-77855533D01*
X166105878Y-77855533D01*
X166105885Y-77855537D01*
X166287317Y-77910573D01*
X166287316Y-77910573D01*
X166304233Y-77912239D01*
X166476000Y-77929157D01*
X166664683Y-77910573D01*
X166846115Y-77855537D01*
X167013324Y-77766162D01*
X167159883Y-77645883D01*
X167280162Y-77499324D01*
X167369537Y-77332115D01*
X167424573Y-77150683D01*
X167443157Y-76962000D01*
X173008843Y-76962000D01*
X173027426Y-77150681D01*
X173039328Y-77189917D01*
X173082463Y-77332115D01*
X173082464Y-77332118D01*
X173082465Y-77332119D01*
X173082466Y-77332122D01*
X173171834Y-77499318D01*
X173171838Y-77499325D01*
X173292116Y-77645883D01*
X173438674Y-77766161D01*
X173438681Y-77766165D01*
X173605877Y-77855533D01*
X173605878Y-77855533D01*
X173605885Y-77855537D01*
X173787317Y-77910573D01*
X173787316Y-77910573D01*
X173804233Y-77912239D01*
X173976000Y-77929157D01*
X174164683Y-77910573D01*
X174346115Y-77855537D01*
X174513324Y-77766162D01*
X174659883Y-77645883D01*
X174780162Y-77499324D01*
X174869537Y-77332115D01*
X174924573Y-77150683D01*
X174943157Y-76962000D01*
X180508843Y-76962000D01*
X180527426Y-77150681D01*
X180539328Y-77189917D01*
X180582463Y-77332115D01*
X180582464Y-77332118D01*
X180582465Y-77332119D01*
X180582466Y-77332122D01*
X180671834Y-77499318D01*
X180671838Y-77499325D01*
X180792116Y-77645883D01*
X180938674Y-77766161D01*
X180938681Y-77766165D01*
X181105877Y-77855533D01*
X181105878Y-77855533D01*
X181105885Y-77855537D01*
X181287317Y-77910573D01*
X181287316Y-77910573D01*
X181304233Y-77912239D01*
X181476000Y-77929157D01*
X181664683Y-77910573D01*
X181846115Y-77855537D01*
X182013324Y-77766162D01*
X182159883Y-77645883D01*
X182280162Y-77499324D01*
X182369537Y-77332115D01*
X182424573Y-77150683D01*
X182443157Y-76962000D01*
X188008843Y-76962000D01*
X188027426Y-77150681D01*
X188039328Y-77189917D01*
X188082463Y-77332115D01*
X188082464Y-77332118D01*
X188082465Y-77332119D01*
X188082466Y-77332122D01*
X188171834Y-77499318D01*
X188171838Y-77499325D01*
X188292116Y-77645883D01*
X188438674Y-77766161D01*
X188438681Y-77766165D01*
X188605877Y-77855533D01*
X188605878Y-77855533D01*
X188605885Y-77855537D01*
X188787317Y-77910573D01*
X188787316Y-77910573D01*
X188804233Y-77912239D01*
X188976000Y-77929157D01*
X189164683Y-77910573D01*
X189346115Y-77855537D01*
X189513324Y-77766162D01*
X189659883Y-77645883D01*
X189780162Y-77499324D01*
X189869537Y-77332115D01*
X189924573Y-77150683D01*
X189943157Y-76962000D01*
X189924573Y-76773317D01*
X189869537Y-76591885D01*
X189819866Y-76498957D01*
X189780165Y-76424681D01*
X189780161Y-76424674D01*
X189659883Y-76278116D01*
X189513325Y-76157838D01*
X189513318Y-76157834D01*
X189346122Y-76068466D01*
X189346119Y-76068465D01*
X189346118Y-76068464D01*
X189346115Y-76068463D01*
X189164683Y-76013427D01*
X189164681Y-76013426D01*
X189164683Y-76013426D01*
X188976000Y-75994843D01*
X188787318Y-76013426D01*
X188680194Y-76045921D01*
X188605885Y-76068463D01*
X188605882Y-76068464D01*
X188605880Y-76068465D01*
X188605877Y-76068466D01*
X188438681Y-76157834D01*
X188438674Y-76157838D01*
X188292116Y-76278116D01*
X188171838Y-76424674D01*
X188171834Y-76424681D01*
X188082466Y-76591877D01*
X188082465Y-76591880D01*
X188082464Y-76591882D01*
X188082463Y-76591885D01*
X188072809Y-76623710D01*
X188027426Y-76773318D01*
X188008843Y-76962000D01*
X182443157Y-76962000D01*
X182424573Y-76773317D01*
X182369537Y-76591885D01*
X182319866Y-76498957D01*
X182280165Y-76424681D01*
X182280161Y-76424674D01*
X182159883Y-76278116D01*
X182013325Y-76157838D01*
X182013318Y-76157834D01*
X181846122Y-76068466D01*
X181846119Y-76068465D01*
X181846118Y-76068464D01*
X181846115Y-76068463D01*
X181664683Y-76013427D01*
X181664681Y-76013426D01*
X181664683Y-76013426D01*
X181476000Y-75994843D01*
X181287318Y-76013426D01*
X181180194Y-76045921D01*
X181105885Y-76068463D01*
X181105882Y-76068464D01*
X181105880Y-76068465D01*
X181105877Y-76068466D01*
X180938681Y-76157834D01*
X180938674Y-76157838D01*
X180792116Y-76278116D01*
X180671838Y-76424674D01*
X180671834Y-76424681D01*
X180582466Y-76591877D01*
X180582465Y-76591880D01*
X180582464Y-76591882D01*
X180582463Y-76591885D01*
X180572809Y-76623710D01*
X180527426Y-76773318D01*
X180508843Y-76962000D01*
X174943157Y-76962000D01*
X174924573Y-76773317D01*
X174869537Y-76591885D01*
X174819866Y-76498957D01*
X174780165Y-76424681D01*
X174780161Y-76424674D01*
X174659883Y-76278116D01*
X174513325Y-76157838D01*
X174513318Y-76157834D01*
X174346122Y-76068466D01*
X174346119Y-76068465D01*
X174346118Y-76068464D01*
X174346115Y-76068463D01*
X174164683Y-76013427D01*
X174164681Y-76013426D01*
X174164683Y-76013426D01*
X173976000Y-75994843D01*
X173787318Y-76013426D01*
X173680194Y-76045921D01*
X173605885Y-76068463D01*
X173605882Y-76068464D01*
X173605880Y-76068465D01*
X173605877Y-76068466D01*
X173438681Y-76157834D01*
X173438674Y-76157838D01*
X173292116Y-76278116D01*
X173171838Y-76424674D01*
X173171834Y-76424681D01*
X173082466Y-76591877D01*
X173082465Y-76591880D01*
X173082464Y-76591882D01*
X173082463Y-76591885D01*
X173072809Y-76623710D01*
X173027426Y-76773318D01*
X173008843Y-76962000D01*
X167443157Y-76962000D01*
X167424573Y-76773317D01*
X167369537Y-76591885D01*
X167319866Y-76498957D01*
X167280165Y-76424681D01*
X167280161Y-76424674D01*
X167159883Y-76278116D01*
X167013325Y-76157838D01*
X167013318Y-76157834D01*
X166846122Y-76068466D01*
X166846119Y-76068465D01*
X166846118Y-76068464D01*
X166846115Y-76068463D01*
X166664683Y-76013427D01*
X166664681Y-76013426D01*
X166664683Y-76013426D01*
X166476000Y-75994843D01*
X166287318Y-76013426D01*
X166180194Y-76045921D01*
X166105885Y-76068463D01*
X166105882Y-76068464D01*
X166105880Y-76068465D01*
X166105877Y-76068466D01*
X165938681Y-76157834D01*
X165938674Y-76157838D01*
X165792116Y-76278116D01*
X165671838Y-76424674D01*
X165671834Y-76424681D01*
X165582466Y-76591877D01*
X165582465Y-76591880D01*
X165582464Y-76591882D01*
X165582463Y-76591885D01*
X165572809Y-76623710D01*
X165527426Y-76773318D01*
X165508843Y-76962000D01*
X155425758Y-76962000D01*
X159812874Y-72574884D01*
X159818046Y-72570264D01*
X159818904Y-72569579D01*
X159848936Y-72545631D01*
X159882746Y-72496039D01*
X159918369Y-72447773D01*
X159918370Y-72447767D01*
X159922395Y-72440153D01*
X159926110Y-72432435D01*
X159926116Y-72432428D01*
X159943803Y-72375084D01*
X159963621Y-72318451D01*
X159963621Y-72318446D01*
X159965216Y-72310015D01*
X159966500Y-72301504D01*
X159966500Y-72241509D01*
X159968744Y-72181539D01*
X159967704Y-72172306D01*
X159968523Y-72172213D01*
X159966500Y-72156838D01*
X159966500Y-69397206D01*
X159986185Y-69330167D01*
X159992124Y-69321720D01*
X160006023Y-69303605D01*
X160036536Y-69263841D01*
X160097044Y-69117762D01*
X160117682Y-68961000D01*
X160097044Y-68804238D01*
X160036536Y-68658159D01*
X159940282Y-68532718D01*
X159814841Y-68436464D01*
X159668762Y-68375956D01*
X159668760Y-68375955D01*
X159512001Y-68355318D01*
X159511999Y-68355318D01*
X159355239Y-68375955D01*
X159355237Y-68375956D01*
X159209160Y-68436463D01*
X159083718Y-68532718D01*
X158987463Y-68658160D01*
X158926956Y-68804237D01*
X158926955Y-68804239D01*
X158906318Y-68960998D01*
X158906318Y-68961001D01*
X158926955Y-69117760D01*
X158926957Y-69117765D01*
X158987461Y-69263836D01*
X158987464Y-69263841D01*
X159031876Y-69321720D01*
X159057070Y-69386889D01*
X159057500Y-69397206D01*
X159057500Y-71993376D01*
X159037815Y-72060415D01*
X159021181Y-72081057D01*
X149787328Y-81314909D01*
X149726005Y-81348394D01*
X149656313Y-81343410D01*
X149640220Y-81336060D01*
X149512342Y-81266233D01*
X149512338Y-81266231D01*
X149374584Y-81214852D01*
X149250923Y-81168729D01*
X149250919Y-81168728D01*
X149250916Y-81168727D01*
X148978299Y-81109422D01*
X148700001Y-81089518D01*
X148699999Y-81089518D01*
X148421700Y-81109422D01*
X148149083Y-81168727D01*
X148149078Y-81168728D01*
X148149077Y-81168729D01*
X148141345Y-81171613D01*
X147887661Y-81266231D01*
X147887657Y-81266233D01*
X147642792Y-81399940D01*
X147642784Y-81399945D01*
X147419439Y-81567138D01*
X147419421Y-81567154D01*
X147222154Y-81764421D01*
X147222138Y-81764439D01*
X147054945Y-81987784D01*
X147054940Y-81987792D01*
X146921233Y-82232657D01*
X146921231Y-82232661D01*
X146847301Y-82430875D01*
X146825951Y-82488121D01*
X146823727Y-82494083D01*
X146764422Y-82766700D01*
X146744518Y-83044998D01*
X146744518Y-83045001D01*
X146764422Y-83323299D01*
X146823727Y-83595916D01*
X146823729Y-83595923D01*
X146900708Y-83802314D01*
X146912216Y-83833167D01*
X146917200Y-83902859D01*
X146883715Y-83964182D01*
X146822392Y-83997666D01*
X146796034Y-84000500D01*
X119702122Y-84000500D01*
X119635083Y-83980815D01*
X119614441Y-83964181D01*
X117672319Y-82022058D01*
X117638834Y-81960735D01*
X117636000Y-81934377D01*
X117636000Y-81842015D01*
X117655685Y-81774976D01*
X117672314Y-81754339D01*
X118211803Y-81214850D01*
X118273124Y-81181367D01*
X118315663Y-81179594D01*
X118369500Y-81186682D01*
X118526262Y-81166044D01*
X118672341Y-81105536D01*
X118797782Y-81009282D01*
X118894036Y-80883841D01*
X118954544Y-80737762D01*
X118975182Y-80581000D01*
X118954544Y-80424238D01*
X118894036Y-80278159D01*
X118797782Y-80152718D01*
X118672341Y-80056464D01*
X118526262Y-79995956D01*
X118526260Y-79995955D01*
X118369501Y-79975318D01*
X118369499Y-79975318D01*
X118212739Y-79995955D01*
X118212737Y-79995956D01*
X118066660Y-80056463D01*
X117941218Y-80152718D01*
X117844963Y-80278160D01*
X117784456Y-80424237D01*
X117784455Y-80424239D01*
X117763818Y-80580998D01*
X117763818Y-80581002D01*
X117773929Y-80657807D01*
X117763163Y-80726842D01*
X117738671Y-80761672D01*
X117234163Y-81266182D01*
X117172842Y-81299666D01*
X117146484Y-81302500D01*
X116727007Y-81302500D01*
X116627378Y-81318279D01*
X116507278Y-81379473D01*
X116507274Y-81379476D01*
X116411976Y-81474774D01*
X116411973Y-81474778D01*
X116350779Y-81594878D01*
X116335000Y-81694506D01*
X116335000Y-82261493D01*
X110871500Y-82261493D01*
X110871500Y-79601260D01*
X116354500Y-79601260D01*
X116357274Y-79630849D01*
X116400884Y-79755476D01*
X116479288Y-79861710D01*
X116479289Y-79861711D01*
X116585523Y-79940115D01*
X116585524Y-79940115D01*
X116585525Y-79940116D01*
X116710151Y-79983725D01*
X116710150Y-79983725D01*
X116739740Y-79986500D01*
X116739744Y-79986500D01*
X117420260Y-79986500D01*
X117449849Y-79983725D01*
X117457854Y-79980924D01*
X117574475Y-79940116D01*
X117680711Y-79861711D01*
X117759116Y-79755475D01*
X117771689Y-79719543D01*
X117812411Y-79662769D01*
X117877364Y-79637022D01*
X117888730Y-79636500D01*
X118866270Y-79636500D01*
X118933309Y-79656185D01*
X118979064Y-79708989D01*
X118983311Y-79719544D01*
X118995884Y-79755476D01*
X119074288Y-79861710D01*
X119074289Y-79861711D01*
X119180523Y-79940115D01*
X119180524Y-79940115D01*
X119180525Y-79940116D01*
X119305151Y-79983725D01*
X119305150Y-79983725D01*
X119334740Y-79986500D01*
X119334744Y-79986500D01*
X119940260Y-79986500D01*
X119969849Y-79983725D01*
X119977854Y-79980924D01*
X120094475Y-79940116D01*
X120200711Y-79861711D01*
X120279116Y-79755475D01*
X120322725Y-79630849D01*
X120325500Y-79601260D01*
X120774500Y-79601260D01*
X120777274Y-79630849D01*
X120820884Y-79755476D01*
X120899286Y-79861708D01*
X120899287Y-79861709D01*
X120899289Y-79861711D01*
X120925632Y-79881153D01*
X120967884Y-79936799D01*
X120976000Y-79980924D01*
X120976000Y-81431388D01*
X120956315Y-81498427D01*
X120939682Y-81519069D01*
X120856973Y-81601778D01*
X120795779Y-81721878D01*
X120780000Y-81821506D01*
X120780000Y-82388493D01*
X120795779Y-82488121D01*
X120795780Y-82488124D01*
X120795781Y-82488126D01*
X120856972Y-82608220D01*
X120856973Y-82608221D01*
X120856976Y-82608225D01*
X120952274Y-82703523D01*
X120952278Y-82703526D01*
X120952280Y-82703528D01*
X121072374Y-82764719D01*
X121072376Y-82764719D01*
X121072378Y-82764720D01*
X121172007Y-82780500D01*
X121172012Y-82780500D01*
X121688993Y-82780500D01*
X121788621Y-82764720D01*
X121788621Y-82764719D01*
X121788626Y-82764719D01*
X121908720Y-82703528D01*
X122004028Y-82608220D01*
X122065219Y-82488126D01*
X122066313Y-82481220D01*
X122081000Y-82388493D01*
X122081000Y-81821506D01*
X122065220Y-81721878D01*
X122065219Y-81721876D01*
X122065219Y-81721874D01*
X122004028Y-81601780D01*
X122004026Y-81601778D01*
X122004023Y-81601774D01*
X121921318Y-81519069D01*
X121887833Y-81457746D01*
X121885000Y-81431397D01*
X121885000Y-80028156D01*
X121904685Y-79961117D01*
X121935363Y-79928390D01*
X122025711Y-79861711D01*
X122059545Y-79815866D01*
X122115194Y-79773615D01*
X122159316Y-79765500D01*
X124464987Y-79765500D01*
X124471925Y-79765889D01*
X124504198Y-79769525D01*
X124511185Y-79770313D01*
X124511185Y-79770312D01*
X124511186Y-79770313D01*
X124570148Y-79759156D01*
X124594572Y-79755475D01*
X124629474Y-79750215D01*
X124629475Y-79750214D01*
X124629479Y-79750214D01*
X124629482Y-79750212D01*
X124637721Y-79747670D01*
X124645802Y-79744843D01*
X124645805Y-79744841D01*
X124645807Y-79744841D01*
X124698858Y-79716802D01*
X124752921Y-79690767D01*
X124752923Y-79690764D01*
X124752927Y-79690763D01*
X124760023Y-79685924D01*
X124766938Y-79680822D01*
X124766940Y-79680820D01*
X124809369Y-79638390D01*
X124853356Y-79597577D01*
X124853359Y-79597570D01*
X124859153Y-79590307D01*
X124859801Y-79590824D01*
X124869233Y-79578525D01*
X127292671Y-77155087D01*
X127353992Y-77121604D01*
X127423684Y-77126588D01*
X127439777Y-77133938D01*
X127567657Y-77203766D01*
X127567661Y-77203768D01*
X127567663Y-77203769D01*
X127829077Y-77301271D01*
X127965391Y-77330924D01*
X128101700Y-77360577D01*
X128101702Y-77360577D01*
X128101706Y-77360578D01*
X128349014Y-77378265D01*
X128379999Y-77380482D01*
X128380000Y-77380482D01*
X128380001Y-77380482D01*
X128407881Y-77378487D01*
X128658294Y-77360578D01*
X128666845Y-77358718D01*
X128697458Y-77352058D01*
X128930923Y-77301271D01*
X129192337Y-77203769D01*
X129437213Y-77070056D01*
X129660568Y-76902855D01*
X129857855Y-76705568D01*
X130025056Y-76482213D01*
X130158769Y-76237337D01*
X130256271Y-75975923D01*
X130315578Y-75703294D01*
X130335482Y-75425000D01*
X130332918Y-75389157D01*
X130321261Y-75226165D01*
X130315578Y-75146706D01*
X130306697Y-75105883D01*
X130256272Y-74874083D01*
X130256271Y-74874077D01*
X130158769Y-74612663D01*
X130025056Y-74367787D01*
X130025054Y-74367784D01*
X129857861Y-74144439D01*
X129857845Y-74144421D01*
X129660578Y-73947154D01*
X129660560Y-73947138D01*
X129437215Y-73779945D01*
X129437207Y-73779940D01*
X129192342Y-73646233D01*
X129192338Y-73646231D01*
X129093230Y-73609266D01*
X128930923Y-73548729D01*
X128930919Y-73548728D01*
X128930916Y-73548727D01*
X128658299Y-73489422D01*
X128380001Y-73469518D01*
X128379999Y-73469518D01*
X128101700Y-73489422D01*
X127829083Y-73548727D01*
X127829078Y-73548728D01*
X127829077Y-73548729D01*
X127765875Y-73572301D01*
X127567661Y-73646231D01*
X127567657Y-73646233D01*
X127322792Y-73779940D01*
X127322784Y-73779945D01*
X127099439Y-73947138D01*
X127099421Y-73947154D01*
X126902154Y-74144421D01*
X126902138Y-74144439D01*
X126734945Y-74367784D01*
X126734940Y-74367792D01*
X126601233Y-74612657D01*
X126601231Y-74612661D01*
X126503727Y-74874083D01*
X126444422Y-75146700D01*
X126424518Y-75424998D01*
X126424518Y-75425001D01*
X126444422Y-75703299D01*
X126503727Y-75975916D01*
X126503729Y-75975923D01*
X126538246Y-76068466D01*
X126601231Y-76237338D01*
X126601233Y-76237342D01*
X126671060Y-76365220D01*
X126685912Y-76433493D01*
X126661495Y-76498957D01*
X126649909Y-76512328D01*
X124342058Y-78820181D01*
X124280735Y-78853666D01*
X124254377Y-78856500D01*
X122159316Y-78856500D01*
X122092277Y-78836815D01*
X122059546Y-78806134D01*
X122047157Y-78789348D01*
X122025711Y-78760289D01*
X122025709Y-78760288D01*
X122025709Y-78760287D01*
X121919476Y-78681884D01*
X121794848Y-78638274D01*
X121794849Y-78638274D01*
X121765260Y-78635500D01*
X121765256Y-78635500D01*
X121159744Y-78635500D01*
X121159740Y-78635500D01*
X121130150Y-78638274D01*
X121005523Y-78681884D01*
X120899289Y-78760288D01*
X120899288Y-78760289D01*
X120820884Y-78866523D01*
X120777274Y-78991150D01*
X120774500Y-79020739D01*
X120774500Y-79601260D01*
X120325500Y-79601260D01*
X120325500Y-79601256D01*
X120325500Y-79020744D01*
X120322725Y-78991151D01*
X120313859Y-78965815D01*
X120279115Y-78866523D01*
X120200711Y-78760289D01*
X120200710Y-78760288D01*
X120094476Y-78681884D01*
X119969848Y-78638274D01*
X119969849Y-78638274D01*
X119940260Y-78635500D01*
X119940256Y-78635500D01*
X119334744Y-78635500D01*
X119334740Y-78635500D01*
X119305150Y-78638274D01*
X119180523Y-78681884D01*
X119074289Y-78760288D01*
X119074288Y-78760289D01*
X118995884Y-78866523D01*
X118983311Y-78902456D01*
X118942589Y-78959231D01*
X118877636Y-78984978D01*
X118866270Y-78985500D01*
X117888730Y-78985500D01*
X117821691Y-78965815D01*
X117775936Y-78913011D01*
X117771689Y-78902456D01*
X117759115Y-78866523D01*
X117680711Y-78760289D01*
X117680710Y-78760288D01*
X117574476Y-78681884D01*
X117449848Y-78638274D01*
X117449849Y-78638274D01*
X117420260Y-78635500D01*
X117420256Y-78635500D01*
X116739744Y-78635500D01*
X116739740Y-78635500D01*
X116710150Y-78638274D01*
X116585523Y-78681884D01*
X116479289Y-78760288D01*
X116479288Y-78760289D01*
X116400884Y-78866523D01*
X116357274Y-78991150D01*
X116354500Y-79020739D01*
X116354500Y-79601260D01*
X110871500Y-79601260D01*
X110871500Y-76363260D01*
X116354500Y-76363260D01*
X116357274Y-76392849D01*
X116400884Y-76517476D01*
X116479288Y-76623710D01*
X116479289Y-76623711D01*
X116585523Y-76702115D01*
X116585524Y-76702115D01*
X116585525Y-76702116D01*
X116710151Y-76745725D01*
X116710150Y-76745725D01*
X116739740Y-76748500D01*
X116739744Y-76748500D01*
X117420260Y-76748500D01*
X117449849Y-76745725D01*
X117449848Y-76745724D01*
X117574475Y-76702116D01*
X117680711Y-76623711D01*
X117759116Y-76517475D01*
X117771689Y-76481543D01*
X117812411Y-76424769D01*
X117877364Y-76399022D01*
X117888730Y-76398500D01*
X118866270Y-76398500D01*
X118933309Y-76418185D01*
X118979064Y-76470989D01*
X118983310Y-76481542D01*
X118995884Y-76517475D01*
X119073584Y-76622755D01*
X119097554Y-76688382D01*
X119082239Y-76756553D01*
X119032498Y-76805621D01*
X118984627Y-76819915D01*
X118975516Y-76820712D01*
X118936158Y-76831258D01*
X118930875Y-76832429D01*
X118890763Y-76839501D01*
X118886035Y-76841222D01*
X118868496Y-76848487D01*
X118863956Y-76850604D01*
X118830586Y-76873971D01*
X118826023Y-76876878D01*
X118790740Y-76897249D01*
X118790739Y-76897250D01*
X118764553Y-76928457D01*
X118760898Y-76932445D01*
X118538685Y-77154659D01*
X118477362Y-77188144D01*
X118434819Y-77189917D01*
X118369501Y-77181318D01*
X118369499Y-77181318D01*
X118212739Y-77201955D01*
X118212737Y-77201956D01*
X118066660Y-77262463D01*
X117941218Y-77358718D01*
X117844963Y-77484160D01*
X117784456Y-77630237D01*
X117784455Y-77630239D01*
X117763818Y-77786998D01*
X117763818Y-77787001D01*
X117784455Y-77943760D01*
X117784456Y-77943762D01*
X117844964Y-78089841D01*
X117941218Y-78215282D01*
X118066659Y-78311536D01*
X118212738Y-78372044D01*
X118291118Y-78382362D01*
X118369499Y-78392682D01*
X118369500Y-78392682D01*
X118369501Y-78392682D01*
X118421753Y-78385802D01*
X118526262Y-78372044D01*
X118672341Y-78311536D01*
X118797782Y-78215282D01*
X118894036Y-78089841D01*
X118954544Y-77943762D01*
X118975182Y-77787000D01*
X118966582Y-77721680D01*
X118977347Y-77652646D01*
X119001841Y-77617813D01*
X119103838Y-77515818D01*
X119165161Y-77482334D01*
X119191518Y-77479500D01*
X120366495Y-77479500D01*
X120371898Y-77479735D01*
X120412484Y-77483287D01*
X120451868Y-77472732D01*
X120457086Y-77471576D01*
X120497239Y-77464497D01*
X120497244Y-77464493D01*
X120502031Y-77462752D01*
X120519419Y-77455549D01*
X120524037Y-77453395D01*
X120524043Y-77453394D01*
X120557437Y-77430009D01*
X120561951Y-77427134D01*
X120597260Y-77406750D01*
X120623466Y-77375517D01*
X120627086Y-77371566D01*
X121213835Y-76784819D01*
X121275159Y-76751334D01*
X121301517Y-76748500D01*
X121765260Y-76748500D01*
X121794849Y-76745725D01*
X121794849Y-76745724D01*
X121919475Y-76702116D01*
X122025711Y-76623711D01*
X122104116Y-76517475D01*
X122147725Y-76392849D01*
X122150500Y-76363256D01*
X122150500Y-75782744D01*
X122147725Y-75753151D01*
X122138859Y-75727815D01*
X122104115Y-75628523D01*
X122025711Y-75522289D01*
X122025710Y-75522288D01*
X121919476Y-75443884D01*
X121794848Y-75400274D01*
X121794849Y-75400274D01*
X121765260Y-75397500D01*
X121765256Y-75397500D01*
X121159744Y-75397500D01*
X121159740Y-75397500D01*
X121130150Y-75400274D01*
X121005523Y-75443884D01*
X120899289Y-75522288D01*
X120899288Y-75522289D01*
X120820884Y-75628523D01*
X120777274Y-75753150D01*
X120774499Y-75782739D01*
X120774500Y-76246483D01*
X120754815Y-76313522D01*
X120738181Y-76334164D01*
X120514845Y-76557500D01*
X120453522Y-76590985D01*
X120383830Y-76586001D01*
X120327897Y-76544129D01*
X120303480Y-76478665D01*
X120310123Y-76428863D01*
X120320565Y-76399022D01*
X120322725Y-76392849D01*
X120325500Y-76363256D01*
X120325500Y-75782744D01*
X120322725Y-75753151D01*
X120313859Y-75727815D01*
X120279115Y-75628523D01*
X120200711Y-75522289D01*
X120200710Y-75522288D01*
X120094476Y-75443884D01*
X119969848Y-75400274D01*
X119969849Y-75400274D01*
X119940260Y-75397500D01*
X119940256Y-75397500D01*
X119334744Y-75397500D01*
X119334740Y-75397500D01*
X119305150Y-75400274D01*
X119180523Y-75443884D01*
X119074289Y-75522288D01*
X119074288Y-75522289D01*
X118995884Y-75628523D01*
X118983311Y-75664456D01*
X118942589Y-75721231D01*
X118877636Y-75746978D01*
X118866270Y-75747500D01*
X117888730Y-75747500D01*
X117821691Y-75727815D01*
X117775936Y-75675011D01*
X117771689Y-75664456D01*
X117759115Y-75628523D01*
X117680711Y-75522289D01*
X117680710Y-75522288D01*
X117574476Y-75443884D01*
X117449848Y-75400274D01*
X117449849Y-75400274D01*
X117420260Y-75397500D01*
X117420256Y-75397500D01*
X116739744Y-75397500D01*
X116739740Y-75397500D01*
X116710150Y-75400274D01*
X116585523Y-75443884D01*
X116479289Y-75522288D01*
X116479288Y-75522289D01*
X116400884Y-75628523D01*
X116357274Y-75753150D01*
X116354500Y-75782739D01*
X116354500Y-76363260D01*
X110871500Y-76363260D01*
X110871500Y-73061260D01*
X116354500Y-73061260D01*
X116357274Y-73090849D01*
X116400884Y-73215476D01*
X116479288Y-73321710D01*
X116479289Y-73321711D01*
X116585523Y-73400115D01*
X116585524Y-73400115D01*
X116585525Y-73400116D01*
X116710151Y-73443725D01*
X116710150Y-73443725D01*
X116739740Y-73446500D01*
X116739744Y-73446500D01*
X117420260Y-73446500D01*
X117449849Y-73443725D01*
X117449848Y-73443724D01*
X117574475Y-73400116D01*
X117680711Y-73321711D01*
X117759116Y-73215475D01*
X117771689Y-73179543D01*
X117812411Y-73122769D01*
X117877364Y-73097022D01*
X117888730Y-73096500D01*
X118866270Y-73096500D01*
X118933309Y-73116185D01*
X118979064Y-73168989D01*
X118983311Y-73179544D01*
X118995884Y-73215476D01*
X119074288Y-73321710D01*
X119074289Y-73321711D01*
X119180523Y-73400115D01*
X119180524Y-73400115D01*
X119180525Y-73400116D01*
X119305151Y-73443725D01*
X119305150Y-73443725D01*
X119334740Y-73446500D01*
X119334744Y-73446500D01*
X119940260Y-73446500D01*
X119969849Y-73443725D01*
X119969849Y-73443724D01*
X120094475Y-73400116D01*
X120200711Y-73321711D01*
X120279116Y-73215475D01*
X120322725Y-73090849D01*
X120322751Y-73090568D01*
X120325500Y-73061260D01*
X120774500Y-73061260D01*
X120777274Y-73090849D01*
X120820884Y-73215476D01*
X120899288Y-73321710D01*
X120899289Y-73321711D01*
X121005523Y-73400115D01*
X121005524Y-73400115D01*
X121005525Y-73400116D01*
X121130151Y-73443725D01*
X121130150Y-73443725D01*
X121159740Y-73446500D01*
X121159744Y-73446500D01*
X121765260Y-73446500D01*
X121794849Y-73443725D01*
X121794848Y-73443725D01*
X121919475Y-73400116D01*
X122025711Y-73321711D01*
X122104116Y-73215475D01*
X122115988Y-73181545D01*
X122156711Y-73124769D01*
X122221664Y-73099022D01*
X122233030Y-73098500D01*
X144508995Y-73098500D01*
X144514398Y-73098735D01*
X144554984Y-73102287D01*
X144594368Y-73091732D01*
X144599586Y-73090576D01*
X144639739Y-73083497D01*
X144639744Y-73083493D01*
X144644531Y-73081752D01*
X144661919Y-73074549D01*
X144666537Y-73072395D01*
X144666543Y-73072394D01*
X144699937Y-73049009D01*
X144704451Y-73046134D01*
X144739760Y-73025750D01*
X144765966Y-72994517D01*
X144769597Y-72990555D01*
X144875151Y-72885001D01*
X146744518Y-72885001D01*
X146764422Y-73163299D01*
X146823727Y-73435916D01*
X146823729Y-73435923D01*
X146858246Y-73528466D01*
X146921231Y-73697338D01*
X146921233Y-73697342D01*
X147054940Y-73942207D01*
X147054945Y-73942215D01*
X147222138Y-74165560D01*
X147222154Y-74165578D01*
X147419421Y-74362845D01*
X147419439Y-74362861D01*
X147642784Y-74530054D01*
X147642792Y-74530059D01*
X147887657Y-74663766D01*
X147887661Y-74663768D01*
X147887663Y-74663769D01*
X148149077Y-74761271D01*
X148285391Y-74790924D01*
X148421700Y-74820577D01*
X148421702Y-74820577D01*
X148421706Y-74820578D01*
X148669014Y-74838265D01*
X148699999Y-74840482D01*
X148700000Y-74840482D01*
X148700001Y-74840482D01*
X148727881Y-74838487D01*
X148978294Y-74820578D01*
X149250923Y-74761271D01*
X149512337Y-74663769D01*
X149757213Y-74530056D01*
X149980568Y-74362855D01*
X150177855Y-74165568D01*
X150345056Y-73942213D01*
X150478769Y-73697337D01*
X150576271Y-73435923D01*
X150635578Y-73163294D01*
X150655482Y-72885000D01*
X150635578Y-72606706D01*
X150628122Y-72572433D01*
X150592174Y-72407181D01*
X150576271Y-72334077D01*
X150478769Y-72072663D01*
X150463521Y-72044739D01*
X150345059Y-71827792D01*
X150345054Y-71827784D01*
X150177861Y-71604439D01*
X150177845Y-71604421D01*
X149980578Y-71407154D01*
X149980560Y-71407138D01*
X149757215Y-71239945D01*
X149757207Y-71239940D01*
X149512342Y-71106233D01*
X149512338Y-71106231D01*
X149413230Y-71069266D01*
X149250923Y-71008729D01*
X149250919Y-71008728D01*
X149250916Y-71008727D01*
X148978299Y-70949422D01*
X148700001Y-70929518D01*
X148699999Y-70929518D01*
X148421700Y-70949422D01*
X148149083Y-71008727D01*
X148149078Y-71008728D01*
X148149077Y-71008729D01*
X148085875Y-71032301D01*
X147887661Y-71106231D01*
X147887657Y-71106233D01*
X147642792Y-71239940D01*
X147642784Y-71239945D01*
X147419439Y-71407138D01*
X147419421Y-71407154D01*
X147222154Y-71604421D01*
X147222138Y-71604439D01*
X147054945Y-71827784D01*
X147054940Y-71827792D01*
X146921233Y-72072657D01*
X146921231Y-72072661D01*
X146858255Y-72241509D01*
X146826547Y-72326523D01*
X146823727Y-72334083D01*
X146764422Y-72606700D01*
X146744518Y-72884998D01*
X146744518Y-72885001D01*
X144875151Y-72885001D01*
X151737335Y-66022819D01*
X151798659Y-65989334D01*
X151825017Y-65986500D01*
X160002995Y-65986500D01*
X160008398Y-65986735D01*
X160048984Y-65990287D01*
X160088368Y-65979732D01*
X160093586Y-65978576D01*
X160133739Y-65971497D01*
X160133744Y-65971493D01*
X160138531Y-65969752D01*
X160155919Y-65962549D01*
X160160537Y-65960395D01*
X160160543Y-65960394D01*
X160193937Y-65937009D01*
X160198451Y-65934134D01*
X160233760Y-65913750D01*
X160259966Y-65882517D01*
X160263597Y-65878555D01*
X161437059Y-64705093D01*
X161498380Y-64671610D01*
X161536887Y-64669373D01*
X161671000Y-64682583D01*
X161876934Y-64662300D01*
X162074954Y-64602232D01*
X162074956Y-64602230D01*
X162080784Y-64600463D01*
X162081127Y-64601595D01*
X162144333Y-64594802D01*
X162206812Y-64626077D01*
X162209996Y-64629150D01*
X166112181Y-68531335D01*
X166145666Y-68592658D01*
X166148500Y-68619016D01*
X166148500Y-73431361D01*
X166128815Y-73498400D01*
X166082953Y-73540719D01*
X165938681Y-73617833D01*
X165938674Y-73617838D01*
X165792116Y-73738116D01*
X165671838Y-73884674D01*
X165671834Y-73884681D01*
X165582466Y-74051877D01*
X165582465Y-74051880D01*
X165582464Y-74051882D01*
X165582463Y-74051885D01*
X165569536Y-74094500D01*
X165527426Y-74233318D01*
X165508843Y-74421999D01*
X165527426Y-74610681D01*
X165543529Y-74663766D01*
X165582463Y-74792115D01*
X165582464Y-74792118D01*
X165582465Y-74792119D01*
X165582466Y-74792122D01*
X165671834Y-74959318D01*
X165671838Y-74959325D01*
X165792116Y-75105883D01*
X165938674Y-75226161D01*
X165938681Y-75226165D01*
X166105877Y-75315533D01*
X166105878Y-75315533D01*
X166105885Y-75315537D01*
X166287317Y-75370573D01*
X166287316Y-75370573D01*
X166304233Y-75372239D01*
X166476000Y-75389157D01*
X166664683Y-75370573D01*
X166846115Y-75315537D01*
X167013324Y-75226162D01*
X167159883Y-75105883D01*
X167280162Y-74959324D01*
X167325724Y-74874083D01*
X167357280Y-74815047D01*
X167406242Y-74765203D01*
X167466638Y-74749500D01*
X172985362Y-74749500D01*
X173052401Y-74769185D01*
X173094720Y-74815047D01*
X173171834Y-74959318D01*
X173171838Y-74959325D01*
X173292116Y-75105883D01*
X173438674Y-75226161D01*
X173438681Y-75226165D01*
X173605877Y-75315533D01*
X173605878Y-75315533D01*
X173605885Y-75315537D01*
X173787317Y-75370573D01*
X173787316Y-75370573D01*
X173804233Y-75372239D01*
X173976000Y-75389157D01*
X174164683Y-75370573D01*
X174346115Y-75315537D01*
X174513324Y-75226162D01*
X174659883Y-75105883D01*
X174780162Y-74959324D01*
X174825724Y-74874083D01*
X174857280Y-74815047D01*
X174906242Y-74765203D01*
X174966638Y-74749500D01*
X180485362Y-74749500D01*
X180552401Y-74769185D01*
X180594720Y-74815047D01*
X180671834Y-74959318D01*
X180671838Y-74959325D01*
X180792116Y-75105883D01*
X180938674Y-75226161D01*
X180938681Y-75226165D01*
X181105877Y-75315533D01*
X181105878Y-75315533D01*
X181105885Y-75315537D01*
X181287317Y-75370573D01*
X181287316Y-75370573D01*
X181304233Y-75372239D01*
X181476000Y-75389157D01*
X181664683Y-75370573D01*
X181846115Y-75315537D01*
X182013324Y-75226162D01*
X182159883Y-75105883D01*
X182280162Y-74959324D01*
X182325724Y-74874083D01*
X182357280Y-74815047D01*
X182406242Y-74765203D01*
X182466638Y-74749500D01*
X187985362Y-74749500D01*
X188052401Y-74769185D01*
X188094720Y-74815047D01*
X188171834Y-74959318D01*
X188171838Y-74959325D01*
X188292116Y-75105883D01*
X188438674Y-75226161D01*
X188438681Y-75226165D01*
X188605877Y-75315533D01*
X188605878Y-75315533D01*
X188605885Y-75315537D01*
X188787317Y-75370573D01*
X188787316Y-75370573D01*
X188804233Y-75372239D01*
X188976000Y-75389157D01*
X189164683Y-75370573D01*
X189346115Y-75315537D01*
X189513324Y-75226162D01*
X189659883Y-75105883D01*
X189780162Y-74959324D01*
X189869537Y-74792115D01*
X189924573Y-74610683D01*
X189943157Y-74422000D01*
X189943157Y-74421999D01*
X195508843Y-74421999D01*
X195527426Y-74610681D01*
X195543529Y-74663766D01*
X195582463Y-74792115D01*
X195582464Y-74792118D01*
X195582465Y-74792119D01*
X195582466Y-74792122D01*
X195671834Y-74959318D01*
X195671838Y-74959325D01*
X195792116Y-75105883D01*
X195938674Y-75226161D01*
X195938681Y-75226165D01*
X196105877Y-75315533D01*
X196105878Y-75315533D01*
X196105885Y-75315537D01*
X196287317Y-75370573D01*
X196287316Y-75370573D01*
X196304233Y-75372239D01*
X196476000Y-75389157D01*
X196664683Y-75370573D01*
X196846115Y-75315537D01*
X197013324Y-75226162D01*
X197159883Y-75105883D01*
X197280162Y-74959324D01*
X197369537Y-74792115D01*
X197424573Y-74610683D01*
X197443157Y-74422000D01*
X197443157Y-74421999D01*
X203008843Y-74421999D01*
X203027426Y-74610681D01*
X203043529Y-74663766D01*
X203082463Y-74792115D01*
X203082464Y-74792118D01*
X203082465Y-74792119D01*
X203082466Y-74792122D01*
X203171834Y-74959318D01*
X203171838Y-74959325D01*
X203292116Y-75105883D01*
X203438674Y-75226161D01*
X203438681Y-75226165D01*
X203605877Y-75315533D01*
X203605878Y-75315533D01*
X203605885Y-75315537D01*
X203787317Y-75370573D01*
X203787316Y-75370573D01*
X203804233Y-75372239D01*
X203976000Y-75389157D01*
X204164683Y-75370573D01*
X204346115Y-75315537D01*
X204513324Y-75226162D01*
X204659883Y-75105883D01*
X204780162Y-74959324D01*
X204869537Y-74792115D01*
X204924573Y-74610683D01*
X204943157Y-74422000D01*
X204924573Y-74233317D01*
X204869537Y-74051885D01*
X204813557Y-73947154D01*
X204780165Y-73884681D01*
X204780161Y-73884674D01*
X204659883Y-73738116D01*
X204513325Y-73617838D01*
X204513318Y-73617834D01*
X204346122Y-73528466D01*
X204346119Y-73528465D01*
X204346118Y-73528464D01*
X204346115Y-73528463D01*
X204164683Y-73473427D01*
X204164681Y-73473426D01*
X204164683Y-73473426D01*
X203992916Y-73456509D01*
X203976000Y-73454843D01*
X203975999Y-73454843D01*
X203787318Y-73473426D01*
X203680194Y-73505921D01*
X203605885Y-73528463D01*
X203605882Y-73528464D01*
X203605880Y-73528465D01*
X203605877Y-73528466D01*
X203438681Y-73617834D01*
X203438674Y-73617838D01*
X203292116Y-73738116D01*
X203171838Y-73884674D01*
X203171834Y-73884681D01*
X203082466Y-74051877D01*
X203082465Y-74051880D01*
X203082464Y-74051882D01*
X203082463Y-74051885D01*
X203069536Y-74094500D01*
X203027426Y-74233318D01*
X203008843Y-74421999D01*
X197443157Y-74421999D01*
X197424573Y-74233317D01*
X197369537Y-74051885D01*
X197313557Y-73947154D01*
X197280165Y-73884681D01*
X197280161Y-73884674D01*
X197159883Y-73738116D01*
X197013325Y-73617838D01*
X197013318Y-73617834D01*
X196846122Y-73528466D01*
X196846119Y-73528465D01*
X196846118Y-73528464D01*
X196846115Y-73528463D01*
X196664683Y-73473427D01*
X196664681Y-73473426D01*
X196664683Y-73473426D01*
X196492916Y-73456509D01*
X196476000Y-73454843D01*
X196475999Y-73454843D01*
X196287318Y-73473426D01*
X196180194Y-73505921D01*
X196105885Y-73528463D01*
X196105882Y-73528464D01*
X196105880Y-73528465D01*
X196105877Y-73528466D01*
X195938681Y-73617834D01*
X195938674Y-73617838D01*
X195792116Y-73738116D01*
X195671838Y-73884674D01*
X195671834Y-73884681D01*
X195582466Y-74051877D01*
X195582465Y-74051880D01*
X195582464Y-74051882D01*
X195582463Y-74051885D01*
X195569536Y-74094500D01*
X195527426Y-74233318D01*
X195508843Y-74421999D01*
X189943157Y-74421999D01*
X189924573Y-74233317D01*
X189869537Y-74051885D01*
X189813557Y-73947154D01*
X189780165Y-73884681D01*
X189780161Y-73884674D01*
X189659883Y-73738116D01*
X189513325Y-73617838D01*
X189513318Y-73617834D01*
X189346122Y-73528466D01*
X189346119Y-73528465D01*
X189346118Y-73528464D01*
X189346115Y-73528463D01*
X189164683Y-73473427D01*
X189164681Y-73473426D01*
X189164683Y-73473426D01*
X188992916Y-73456509D01*
X188976000Y-73454843D01*
X188975999Y-73454843D01*
X188787318Y-73473426D01*
X188680194Y-73505921D01*
X188605885Y-73528463D01*
X188605882Y-73528464D01*
X188605880Y-73528465D01*
X188605877Y-73528466D01*
X188438681Y-73617834D01*
X188438674Y-73617838D01*
X188292116Y-73738116D01*
X188171838Y-73884674D01*
X188171834Y-73884681D01*
X188094720Y-74028953D01*
X188045758Y-74078797D01*
X187985362Y-74094500D01*
X182466638Y-74094500D01*
X182399599Y-74074815D01*
X182357280Y-74028953D01*
X182280165Y-73884681D01*
X182280161Y-73884674D01*
X182159883Y-73738116D01*
X182013325Y-73617838D01*
X182013318Y-73617834D01*
X181846122Y-73528466D01*
X181846119Y-73528465D01*
X181846118Y-73528464D01*
X181846115Y-73528463D01*
X181664683Y-73473427D01*
X181664681Y-73473426D01*
X181664683Y-73473426D01*
X181492916Y-73456509D01*
X181476000Y-73454843D01*
X181475999Y-73454843D01*
X181287318Y-73473426D01*
X181180194Y-73505921D01*
X181105885Y-73528463D01*
X181105882Y-73528464D01*
X181105880Y-73528465D01*
X181105877Y-73528466D01*
X180938681Y-73617834D01*
X180938674Y-73617838D01*
X180792116Y-73738116D01*
X180671838Y-73884674D01*
X180671834Y-73884681D01*
X180594720Y-74028953D01*
X180545758Y-74078797D01*
X180485362Y-74094500D01*
X174966638Y-74094500D01*
X174899599Y-74074815D01*
X174857280Y-74028953D01*
X174780165Y-73884681D01*
X174780161Y-73884674D01*
X174659883Y-73738116D01*
X174513325Y-73617838D01*
X174513318Y-73617834D01*
X174346122Y-73528466D01*
X174346119Y-73528465D01*
X174346118Y-73528464D01*
X174346115Y-73528463D01*
X174164683Y-73473427D01*
X174164681Y-73473426D01*
X174164683Y-73473426D01*
X173992916Y-73456509D01*
X173976000Y-73454843D01*
X173975999Y-73454843D01*
X173787318Y-73473426D01*
X173680194Y-73505921D01*
X173605885Y-73528463D01*
X173605882Y-73528464D01*
X173605880Y-73528465D01*
X173605877Y-73528466D01*
X173438681Y-73617834D01*
X173438674Y-73617838D01*
X173292116Y-73738116D01*
X173171838Y-73884674D01*
X173171834Y-73884681D01*
X173094720Y-74028953D01*
X173045758Y-74078797D01*
X172985362Y-74094500D01*
X167466638Y-74094500D01*
X167399599Y-74074815D01*
X167357280Y-74028953D01*
X167280165Y-73884681D01*
X167280161Y-73884674D01*
X167159883Y-73738116D01*
X167013325Y-73617838D01*
X167013318Y-73617833D01*
X166869047Y-73540719D01*
X166819202Y-73491757D01*
X166803500Y-73431361D01*
X166803500Y-68448995D01*
X166803736Y-68443588D01*
X166804360Y-68436464D01*
X166807286Y-68403015D01*
X166807285Y-68403014D01*
X166807286Y-68403013D01*
X166796741Y-68363662D01*
X166795574Y-68358402D01*
X166788497Y-68318261D01*
X166788495Y-68318257D01*
X166786756Y-68313480D01*
X166779546Y-68296072D01*
X166777393Y-68291455D01*
X166754032Y-68258093D01*
X166751123Y-68253528D01*
X166730750Y-68218240D01*
X166730746Y-68218236D01*
X166699535Y-68192046D01*
X166695546Y-68188391D01*
X166198156Y-67691001D01*
X175670318Y-67691001D01*
X175690955Y-67847760D01*
X175690956Y-67847762D01*
X175751464Y-67993841D01*
X175847718Y-68119282D01*
X175973159Y-68215536D01*
X176119238Y-68276044D01*
X176197619Y-68286363D01*
X176275999Y-68296682D01*
X176276000Y-68296682D01*
X176276001Y-68296682D01*
X176328254Y-68289802D01*
X176432762Y-68276044D01*
X176578841Y-68215536D01*
X176704282Y-68119282D01*
X176800536Y-67993841D01*
X176861044Y-67847762D01*
X176881682Y-67691000D01*
X176876374Y-67650685D01*
X176887139Y-67581652D01*
X176933518Y-67529395D01*
X176999313Y-67510500D01*
X203380549Y-67510500D01*
X203447588Y-67530185D01*
X203493343Y-67582989D01*
X203503287Y-67652147D01*
X203474262Y-67715703D01*
X203456035Y-67732876D01*
X203406717Y-67770718D01*
X203366610Y-67822987D01*
X203310182Y-67864189D01*
X203268235Y-67871500D01*
X183659009Y-67871500D01*
X183653606Y-67871264D01*
X183645797Y-67870580D01*
X183613015Y-67867712D01*
X183573658Y-67878258D01*
X183568375Y-67879429D01*
X183528263Y-67886501D01*
X183523535Y-67888222D01*
X183505996Y-67895487D01*
X183501456Y-67897604D01*
X183468086Y-67920971D01*
X183463523Y-67923878D01*
X183428240Y-67944249D01*
X183428239Y-67944250D01*
X183402053Y-67975457D01*
X183398398Y-67979445D01*
X183176185Y-68201659D01*
X183114862Y-68235144D01*
X183072319Y-68236917D01*
X183007001Y-68228318D01*
X183006999Y-68228318D01*
X182850239Y-68248955D01*
X182850237Y-68248956D01*
X182704160Y-68309463D01*
X182578718Y-68405718D01*
X182482463Y-68531160D01*
X182421956Y-68677237D01*
X182421955Y-68677239D01*
X182401318Y-68833998D01*
X182401318Y-68834001D01*
X182421955Y-68990760D01*
X182421956Y-68990762D01*
X182449905Y-69058238D01*
X182482464Y-69136841D01*
X182578718Y-69262282D01*
X182704159Y-69358536D01*
X182850238Y-69419044D01*
X182928618Y-69429363D01*
X183006999Y-69439682D01*
X183007000Y-69439682D01*
X183007001Y-69439682D01*
X183059254Y-69432802D01*
X183163762Y-69419044D01*
X183309841Y-69358536D01*
X183435282Y-69262282D01*
X183531536Y-69136841D01*
X183592044Y-68990762D01*
X183612682Y-68834000D01*
X183604082Y-68768680D01*
X183614847Y-68699646D01*
X183639341Y-68664813D01*
X183741338Y-68562818D01*
X183802661Y-68529334D01*
X183829018Y-68526500D01*
X198427549Y-68526500D01*
X198494588Y-68546185D01*
X198540343Y-68598989D01*
X198550287Y-68668147D01*
X198521262Y-68731703D01*
X198503035Y-68748876D01*
X198453719Y-68786716D01*
X198357462Y-68912161D01*
X198346780Y-68937952D01*
X198302939Y-68992356D01*
X198236645Y-69014421D01*
X198232219Y-69014500D01*
X191279009Y-69014500D01*
X191273606Y-69014264D01*
X191265797Y-69013580D01*
X191233015Y-69010712D01*
X191193658Y-69021258D01*
X191188375Y-69022429D01*
X191148263Y-69029501D01*
X191143535Y-69031222D01*
X191125996Y-69038487D01*
X191121456Y-69040604D01*
X191088086Y-69063971D01*
X191083523Y-69066878D01*
X191048240Y-69087249D01*
X191048239Y-69087250D01*
X191022053Y-69118457D01*
X191018398Y-69122445D01*
X190796185Y-69344659D01*
X190734862Y-69378144D01*
X190692319Y-69379917D01*
X190627001Y-69371318D01*
X190626999Y-69371318D01*
X190470239Y-69391955D01*
X190470237Y-69391956D01*
X190324160Y-69452463D01*
X190198718Y-69548718D01*
X190102463Y-69674160D01*
X190041956Y-69820237D01*
X190041955Y-69820239D01*
X190021318Y-69976998D01*
X190021318Y-69977001D01*
X190041955Y-70133760D01*
X190041956Y-70133762D01*
X190102464Y-70279841D01*
X190198718Y-70405282D01*
X190324159Y-70501536D01*
X190470238Y-70562044D01*
X190548618Y-70572363D01*
X190626999Y-70582682D01*
X190627000Y-70582682D01*
X190627001Y-70582682D01*
X190679253Y-70575802D01*
X190783762Y-70562044D01*
X190929841Y-70501536D01*
X191055282Y-70405282D01*
X191151536Y-70279841D01*
X191212044Y-70133762D01*
X191232682Y-69977000D01*
X191224082Y-69911680D01*
X191234847Y-69842646D01*
X191259341Y-69807813D01*
X191361338Y-69705818D01*
X191422661Y-69672334D01*
X191449018Y-69669500D01*
X198445794Y-69669500D01*
X198512833Y-69689185D01*
X198521268Y-69695115D01*
X198579159Y-69739536D01*
X198725238Y-69800044D01*
X198784250Y-69807813D01*
X198881999Y-69820682D01*
X198882000Y-69820682D01*
X198882001Y-69820682D01*
X198934254Y-69813802D01*
X199038762Y-69800044D01*
X199184841Y-69739536D01*
X199310282Y-69643282D01*
X199406536Y-69517841D01*
X199467044Y-69371762D01*
X199487682Y-69215000D01*
X199467044Y-69058238D01*
X199406536Y-68912159D01*
X199310282Y-68786718D01*
X199310280Y-68786717D01*
X199310280Y-68786716D01*
X199260965Y-68748876D01*
X199219762Y-68692448D01*
X199215607Y-68622702D01*
X199249819Y-68561782D01*
X199311537Y-68529029D01*
X199336451Y-68526500D01*
X203268235Y-68526500D01*
X203335274Y-68546185D01*
X203366610Y-68575013D01*
X203406718Y-68627282D01*
X203532159Y-68723536D01*
X203678238Y-68784044D01*
X203756618Y-68794363D01*
X203834999Y-68804682D01*
X203835000Y-68804682D01*
X203835001Y-68804682D01*
X203887254Y-68797802D01*
X203991762Y-68784044D01*
X204137841Y-68723536D01*
X204263282Y-68627282D01*
X204359536Y-68501841D01*
X204420044Y-68355762D01*
X204440682Y-68199000D01*
X204439766Y-68192046D01*
X204420044Y-68042239D01*
X204420044Y-68042238D01*
X204359536Y-67896159D01*
X204263282Y-67770718D01*
X204263280Y-67770717D01*
X204263280Y-67770716D01*
X204213965Y-67732876D01*
X204172762Y-67676448D01*
X204168607Y-67606702D01*
X204202819Y-67545782D01*
X204264537Y-67513029D01*
X204289451Y-67510500D01*
X206611995Y-67510500D01*
X206617398Y-67510735D01*
X206657984Y-67514287D01*
X206697368Y-67503732D01*
X206702586Y-67502576D01*
X206742739Y-67495497D01*
X206742744Y-67495493D01*
X206747531Y-67493752D01*
X206764919Y-67486549D01*
X206769537Y-67484395D01*
X206769543Y-67484394D01*
X206802937Y-67461009D01*
X206807451Y-67458134D01*
X206842760Y-67437750D01*
X206868966Y-67406517D01*
X206872586Y-67402566D01*
X207610561Y-66664592D01*
X207614522Y-66660962D01*
X207645750Y-66634760D01*
X207666119Y-66599477D01*
X207669027Y-66594914D01*
X207692395Y-66561543D01*
X207694545Y-66556931D01*
X207701754Y-66539528D01*
X207703496Y-66534741D01*
X207703496Y-66534740D01*
X207703497Y-66534739D01*
X207710572Y-66494606D01*
X207711743Y-66489330D01*
X207712357Y-66487041D01*
X207722287Y-66449984D01*
X207718734Y-66409398D01*
X207718499Y-66403991D01*
X207718499Y-65658586D01*
X207718499Y-64716750D01*
X207738184Y-64649715D01*
X207789608Y-64605155D01*
X207789581Y-64605104D01*
X207789807Y-64604982D01*
X207790988Y-64603960D01*
X207794940Y-64602239D01*
X207794951Y-64602232D01*
X207794954Y-64602232D01*
X207977450Y-64504685D01*
X208137410Y-64373410D01*
X208268685Y-64213450D01*
X208366232Y-64030954D01*
X208426300Y-63832934D01*
X208446583Y-63627000D01*
X208426300Y-63421066D01*
X208366232Y-63223046D01*
X208268685Y-63040550D01*
X208216702Y-62977209D01*
X208137410Y-62880589D01*
X207977452Y-62749317D01*
X207977453Y-62749317D01*
X207977450Y-62749315D01*
X207794954Y-62651768D01*
X207596934Y-62591700D01*
X207596932Y-62591699D01*
X207596934Y-62591699D01*
X207391000Y-62571417D01*
X207185067Y-62591699D01*
X206987043Y-62651769D01*
X206876898Y-62710643D01*
X206804550Y-62749315D01*
X206804548Y-62749316D01*
X206804547Y-62749317D01*
X206644589Y-62880589D01*
X206513317Y-63040547D01*
X206415769Y-63223043D01*
X206355699Y-63421067D01*
X206335417Y-63626999D01*
X206355699Y-63832932D01*
X206355700Y-63832934D01*
X206415768Y-64030954D01*
X206513315Y-64213450D01*
X206536260Y-64241409D01*
X206644589Y-64373410D01*
X206741209Y-64452702D01*
X206804550Y-64504685D01*
X206985854Y-64601595D01*
X206992419Y-64605104D01*
X206991859Y-64606150D01*
X207041349Y-64646023D01*
X207063421Y-64712315D01*
X207063500Y-64716754D01*
X207063500Y-66233983D01*
X207043815Y-66301022D01*
X207027181Y-66321664D01*
X206529665Y-66819181D01*
X206468342Y-66852666D01*
X206441984Y-66855500D01*
X176800996Y-66855500D01*
X176795594Y-66855264D01*
X176787696Y-66854573D01*
X176755014Y-66851713D01*
X176715671Y-66862255D01*
X176710391Y-66863426D01*
X176670260Y-66870503D01*
X176665528Y-66872225D01*
X176648028Y-66879473D01*
X176643456Y-66881605D01*
X176610087Y-66904970D01*
X176605527Y-66907875D01*
X176570242Y-66928247D01*
X176558384Y-66942378D01*
X176544052Y-66959458D01*
X176540404Y-66963439D01*
X176445184Y-67058659D01*
X176383861Y-67092144D01*
X176341318Y-67093917D01*
X176276001Y-67085318D01*
X176275999Y-67085318D01*
X176119239Y-67105955D01*
X176119237Y-67105956D01*
X175973160Y-67166463D01*
X175847718Y-67262718D01*
X175751463Y-67388160D01*
X175690956Y-67534237D01*
X175690955Y-67534239D01*
X175670318Y-67690998D01*
X175670318Y-67691001D01*
X166198156Y-67691001D01*
X165182156Y-66675001D01*
X169574318Y-66675001D01*
X169594955Y-66831760D01*
X169594956Y-66831762D01*
X169655464Y-66977841D01*
X169751718Y-67103282D01*
X169877159Y-67199536D01*
X170023238Y-67260044D01*
X170101619Y-67270363D01*
X170179999Y-67280682D01*
X170180000Y-67280682D01*
X170180001Y-67280682D01*
X170232254Y-67273802D01*
X170336762Y-67260044D01*
X170482841Y-67199536D01*
X170608282Y-67103282D01*
X170704536Y-66977841D01*
X170765044Y-66831762D01*
X170785682Y-66675000D01*
X170780374Y-66634685D01*
X170791139Y-66565652D01*
X170837518Y-66513395D01*
X170903313Y-66494500D01*
X195054995Y-66494500D01*
X195060398Y-66494735D01*
X195100984Y-66498287D01*
X195140368Y-66487732D01*
X195145586Y-66486576D01*
X195185739Y-66479497D01*
X195185744Y-66479493D01*
X195190531Y-66477752D01*
X195207919Y-66470549D01*
X195212537Y-66468395D01*
X195212543Y-66468394D01*
X195245937Y-66445009D01*
X195250451Y-66442134D01*
X195285760Y-66421750D01*
X195311966Y-66390517D01*
X195315597Y-66386555D01*
X196997059Y-64705093D01*
X197058380Y-64671610D01*
X197096887Y-64669373D01*
X197231000Y-64682583D01*
X197436934Y-64662300D01*
X197634954Y-64602232D01*
X197817450Y-64504685D01*
X197977410Y-64373410D01*
X198108685Y-64213450D01*
X198206232Y-64030954D01*
X198266300Y-63832934D01*
X198286583Y-63627000D01*
X198715417Y-63627000D01*
X198735699Y-63832932D01*
X198735700Y-63832934D01*
X198795768Y-64030954D01*
X198893315Y-64213450D01*
X198916260Y-64241409D01*
X199024589Y-64373410D01*
X199121209Y-64452702D01*
X199184550Y-64504685D01*
X199367046Y-64602232D01*
X199565066Y-64662300D01*
X199565065Y-64662300D01*
X199583529Y-64664118D01*
X199771000Y-64682583D01*
X199976934Y-64662300D01*
X200174954Y-64602232D01*
X200357450Y-64504685D01*
X200517410Y-64373410D01*
X200648685Y-64213450D01*
X200746232Y-64030954D01*
X200806300Y-63832934D01*
X200826583Y-63627000D01*
X200826583Y-63626999D01*
X201255417Y-63626999D01*
X201275699Y-63832932D01*
X201275700Y-63832934D01*
X201335768Y-64030954D01*
X201433315Y-64213450D01*
X201456260Y-64241409D01*
X201564589Y-64373410D01*
X201661209Y-64452702D01*
X201724550Y-64504685D01*
X201907046Y-64602232D01*
X202105066Y-64662300D01*
X202105065Y-64662300D01*
X202125348Y-64664297D01*
X202311000Y-64682583D01*
X202516934Y-64662300D01*
X202714954Y-64602232D01*
X202897450Y-64504685D01*
X203057410Y-64373410D01*
X203188685Y-64213450D01*
X203286232Y-64030954D01*
X203346300Y-63832934D01*
X203366583Y-63627000D01*
X203366583Y-63626999D01*
X203795417Y-63626999D01*
X203815699Y-63832932D01*
X203815700Y-63832934D01*
X203875768Y-64030954D01*
X203973315Y-64213450D01*
X203996260Y-64241409D01*
X204104589Y-64373410D01*
X204201209Y-64452702D01*
X204264550Y-64504685D01*
X204447046Y-64602232D01*
X204645066Y-64662300D01*
X204645065Y-64662300D01*
X204663529Y-64664118D01*
X204851000Y-64682583D01*
X205056934Y-64662300D01*
X205254954Y-64602232D01*
X205437450Y-64504685D01*
X205597410Y-64373410D01*
X205728685Y-64213450D01*
X205826232Y-64030954D01*
X205886300Y-63832934D01*
X205906583Y-63627000D01*
X205886300Y-63421066D01*
X205826232Y-63223046D01*
X205728685Y-63040550D01*
X205676702Y-62977209D01*
X205597410Y-62880589D01*
X205437452Y-62749317D01*
X205437453Y-62749317D01*
X205437450Y-62749315D01*
X205254954Y-62651768D01*
X205056934Y-62591700D01*
X205056932Y-62591699D01*
X205056934Y-62591699D01*
X204869463Y-62573235D01*
X204851000Y-62571417D01*
X204850999Y-62571417D01*
X204645067Y-62591699D01*
X204447043Y-62651769D01*
X204336898Y-62710643D01*
X204264550Y-62749315D01*
X204264548Y-62749316D01*
X204264547Y-62749317D01*
X204104589Y-62880589D01*
X203973317Y-63040547D01*
X203875769Y-63223043D01*
X203815699Y-63421067D01*
X203795417Y-63626999D01*
X203366583Y-63626999D01*
X203346300Y-63421066D01*
X203286232Y-63223046D01*
X203188685Y-63040550D01*
X203136702Y-62977209D01*
X203057410Y-62880589D01*
X202897452Y-62749317D01*
X202897453Y-62749317D01*
X202897450Y-62749315D01*
X202714954Y-62651768D01*
X202516934Y-62591700D01*
X202516932Y-62591699D01*
X202516934Y-62591699D01*
X202311000Y-62571417D01*
X202105067Y-62591699D01*
X201907043Y-62651769D01*
X201796898Y-62710643D01*
X201724550Y-62749315D01*
X201724548Y-62749316D01*
X201724547Y-62749317D01*
X201564589Y-62880589D01*
X201433317Y-63040547D01*
X201335769Y-63223043D01*
X201275699Y-63421067D01*
X201255417Y-63626999D01*
X200826583Y-63626999D01*
X200806300Y-63421066D01*
X200746232Y-63223046D01*
X200648685Y-63040550D01*
X200596702Y-62977209D01*
X200517410Y-62880589D01*
X200357452Y-62749317D01*
X200357453Y-62749317D01*
X200357450Y-62749315D01*
X200174954Y-62651768D01*
X199976934Y-62591700D01*
X199976932Y-62591699D01*
X199976934Y-62591699D01*
X199789463Y-62573235D01*
X199771000Y-62571417D01*
X199770999Y-62571417D01*
X199565067Y-62591699D01*
X199367043Y-62651769D01*
X199256898Y-62710643D01*
X199184550Y-62749315D01*
X199184548Y-62749316D01*
X199184547Y-62749317D01*
X199024589Y-62880589D01*
X198893317Y-63040547D01*
X198795769Y-63223043D01*
X198735699Y-63421067D01*
X198715417Y-63627000D01*
X198286583Y-63627000D01*
X198266300Y-63421066D01*
X198206232Y-63223046D01*
X198108685Y-63040550D01*
X198056702Y-62977209D01*
X197977410Y-62880589D01*
X197817452Y-62749317D01*
X197817453Y-62749317D01*
X197817450Y-62749315D01*
X197634954Y-62651768D01*
X197436934Y-62591700D01*
X197436932Y-62591699D01*
X197436934Y-62591699D01*
X197231000Y-62571417D01*
X197025067Y-62591699D01*
X196827043Y-62651769D01*
X196716898Y-62710643D01*
X196644550Y-62749315D01*
X196644548Y-62749316D01*
X196644547Y-62749317D01*
X196484589Y-62880589D01*
X196353317Y-63040547D01*
X196255769Y-63223043D01*
X196195699Y-63421067D01*
X196175417Y-63626999D01*
X196195699Y-63832932D01*
X196195700Y-63832934D01*
X196255768Y-64030954D01*
X196341255Y-64190888D01*
X196353317Y-64213453D01*
X196376260Y-64241409D01*
X196403573Y-64305719D01*
X196391782Y-64374587D01*
X196368088Y-64407755D01*
X194972665Y-65803181D01*
X194911342Y-65836666D01*
X194884984Y-65839500D01*
X170704996Y-65839500D01*
X170699594Y-65839264D01*
X170691696Y-65838573D01*
X170659014Y-65835713D01*
X170619671Y-65846255D01*
X170614391Y-65847426D01*
X170574260Y-65854503D01*
X170569528Y-65856225D01*
X170552028Y-65863473D01*
X170547456Y-65865605D01*
X170514087Y-65888970D01*
X170509527Y-65891875D01*
X170474242Y-65912247D01*
X170472982Y-65913749D01*
X170448052Y-65943458D01*
X170444404Y-65947439D01*
X170349184Y-66042659D01*
X170287861Y-66076144D01*
X170245318Y-66077917D01*
X170180001Y-66069318D01*
X170179999Y-66069318D01*
X170023239Y-66089955D01*
X170023237Y-66089956D01*
X169877160Y-66150463D01*
X169751718Y-66246718D01*
X169655463Y-66372160D01*
X169594956Y-66518237D01*
X169594955Y-66518239D01*
X169574318Y-66674998D01*
X169574318Y-66675001D01*
X165182156Y-66675001D01*
X164741138Y-66233983D01*
X162673149Y-64165995D01*
X162639665Y-64104673D01*
X162644518Y-64036800D01*
X162644463Y-64036784D01*
X162644537Y-64036537D01*
X162644649Y-64034981D01*
X162646224Y-64030977D01*
X162646229Y-64030958D01*
X162646232Y-64030954D01*
X162706300Y-63832934D01*
X162726583Y-63627000D01*
X162726583Y-63626999D01*
X163155417Y-63626999D01*
X163175699Y-63832932D01*
X163175700Y-63832934D01*
X163235768Y-64030954D01*
X163333315Y-64213450D01*
X163356260Y-64241409D01*
X163464589Y-64373410D01*
X163561209Y-64452702D01*
X163624550Y-64504685D01*
X163807046Y-64602232D01*
X164005066Y-64662300D01*
X164005065Y-64662300D01*
X164023529Y-64664118D01*
X164211000Y-64682583D01*
X164416934Y-64662300D01*
X164614954Y-64602232D01*
X164797450Y-64504685D01*
X164957410Y-64373410D01*
X165088685Y-64213450D01*
X165186232Y-64030954D01*
X165246300Y-63832934D01*
X165266583Y-63627000D01*
X165266583Y-63626999D01*
X165695417Y-63626999D01*
X165715699Y-63832932D01*
X165715700Y-63832934D01*
X165775768Y-64030954D01*
X165873315Y-64213450D01*
X165896260Y-64241409D01*
X166004589Y-64373410D01*
X166101209Y-64452702D01*
X166164550Y-64504685D01*
X166347046Y-64602232D01*
X166545066Y-64662300D01*
X166545065Y-64662300D01*
X166565348Y-64664297D01*
X166751000Y-64682583D01*
X166956934Y-64662300D01*
X167154954Y-64602232D01*
X167337450Y-64504685D01*
X167497410Y-64373410D01*
X167628685Y-64213450D01*
X167726232Y-64030954D01*
X167786300Y-63832934D01*
X167806583Y-63627000D01*
X167806583Y-63626999D01*
X168235417Y-63626999D01*
X168255699Y-63832932D01*
X168255700Y-63832934D01*
X168315768Y-64030954D01*
X168413315Y-64213450D01*
X168436260Y-64241409D01*
X168544589Y-64373410D01*
X168641209Y-64452702D01*
X168704550Y-64504685D01*
X168887046Y-64602232D01*
X169085066Y-64662300D01*
X169085065Y-64662300D01*
X169103529Y-64664118D01*
X169291000Y-64682583D01*
X169496934Y-64662300D01*
X169694954Y-64602232D01*
X169877450Y-64504685D01*
X170037410Y-64373410D01*
X170168685Y-64213450D01*
X170266232Y-64030954D01*
X170326300Y-63832934D01*
X170346583Y-63627000D01*
X170346583Y-63626999D01*
X173315417Y-63626999D01*
X173335699Y-63832932D01*
X173335700Y-63832934D01*
X173395768Y-64030954D01*
X173493315Y-64213450D01*
X173516260Y-64241409D01*
X173624589Y-64373410D01*
X173721209Y-64452702D01*
X173784550Y-64504685D01*
X173967046Y-64602232D01*
X174165066Y-64662300D01*
X174165065Y-64662300D01*
X174183529Y-64664118D01*
X174371000Y-64682583D01*
X174576934Y-64662300D01*
X174774954Y-64602232D01*
X174957450Y-64504685D01*
X175117410Y-64373410D01*
X175248685Y-64213450D01*
X175346232Y-64030954D01*
X175406300Y-63832934D01*
X175426583Y-63627000D01*
X175426583Y-63626999D01*
X175855417Y-63626999D01*
X175875699Y-63832932D01*
X175875700Y-63832934D01*
X175935768Y-64030954D01*
X176033315Y-64213450D01*
X176056260Y-64241409D01*
X176164589Y-64373410D01*
X176261209Y-64452702D01*
X176324550Y-64504685D01*
X176507046Y-64602232D01*
X176705066Y-64662300D01*
X176705065Y-64662300D01*
X176723529Y-64664118D01*
X176911000Y-64682583D01*
X177116934Y-64662300D01*
X177314954Y-64602232D01*
X177497450Y-64504685D01*
X177657410Y-64373410D01*
X177788685Y-64213450D01*
X177886232Y-64030954D01*
X177946300Y-63832934D01*
X177966583Y-63627000D01*
X178395417Y-63627000D01*
X178415699Y-63832932D01*
X178415700Y-63832934D01*
X178475768Y-64030954D01*
X178573315Y-64213450D01*
X178596260Y-64241409D01*
X178704589Y-64373410D01*
X178801209Y-64452702D01*
X178864550Y-64504685D01*
X179047046Y-64602232D01*
X179245066Y-64662300D01*
X179245065Y-64662300D01*
X179265347Y-64664297D01*
X179451000Y-64682583D01*
X179656934Y-64662300D01*
X179854954Y-64602232D01*
X180037450Y-64504685D01*
X180197410Y-64373410D01*
X180328685Y-64213450D01*
X180426232Y-64030954D01*
X180486300Y-63832934D01*
X180506583Y-63627000D01*
X180506583Y-63626999D01*
X180935417Y-63626999D01*
X180955699Y-63832932D01*
X180955700Y-63832934D01*
X181015768Y-64030954D01*
X181113315Y-64213450D01*
X181136260Y-64241409D01*
X181244589Y-64373410D01*
X181341209Y-64452702D01*
X181404550Y-64504685D01*
X181587046Y-64602232D01*
X181785066Y-64662300D01*
X181785065Y-64662300D01*
X181803529Y-64664118D01*
X181991000Y-64682583D01*
X182196934Y-64662300D01*
X182394954Y-64602232D01*
X182577450Y-64504685D01*
X182737410Y-64373410D01*
X182868685Y-64213450D01*
X182966232Y-64030954D01*
X183026300Y-63832934D01*
X183046583Y-63627000D01*
X183046583Y-63626999D01*
X183475417Y-63626999D01*
X183495699Y-63832932D01*
X183495700Y-63832934D01*
X183555768Y-64030954D01*
X183653315Y-64213450D01*
X183676260Y-64241409D01*
X183784589Y-64373410D01*
X183881209Y-64452702D01*
X183944550Y-64504685D01*
X184127046Y-64602232D01*
X184325066Y-64662300D01*
X184325065Y-64662300D01*
X184345348Y-64664297D01*
X184531000Y-64682583D01*
X184736934Y-64662300D01*
X184934954Y-64602232D01*
X185117450Y-64504685D01*
X185277410Y-64373410D01*
X185408685Y-64213450D01*
X185506232Y-64030954D01*
X185566300Y-63832934D01*
X185586583Y-63627000D01*
X185586583Y-63626999D01*
X186015417Y-63626999D01*
X186035699Y-63832932D01*
X186035700Y-63832934D01*
X186095768Y-64030954D01*
X186193315Y-64213450D01*
X186216260Y-64241409D01*
X186324589Y-64373410D01*
X186421209Y-64452702D01*
X186484550Y-64504685D01*
X186667046Y-64602232D01*
X186865066Y-64662300D01*
X186865065Y-64662300D01*
X186883529Y-64664118D01*
X187071000Y-64682583D01*
X187276934Y-64662300D01*
X187474954Y-64602232D01*
X187657450Y-64504685D01*
X187817410Y-64373410D01*
X187948685Y-64213450D01*
X188046232Y-64030954D01*
X188106300Y-63832934D01*
X188126583Y-63627000D01*
X188126583Y-63626999D01*
X188555417Y-63626999D01*
X188575699Y-63832932D01*
X188575700Y-63832934D01*
X188635768Y-64030954D01*
X188733315Y-64213450D01*
X188756260Y-64241409D01*
X188864589Y-64373410D01*
X188961209Y-64452702D01*
X189024550Y-64504685D01*
X189207046Y-64602232D01*
X189405066Y-64662300D01*
X189405065Y-64662300D01*
X189425347Y-64664297D01*
X189611000Y-64682583D01*
X189816934Y-64662300D01*
X190014954Y-64602232D01*
X190197450Y-64504685D01*
X190357410Y-64373410D01*
X190488685Y-64213450D01*
X190586232Y-64030954D01*
X190646300Y-63832934D01*
X190666583Y-63627000D01*
X190666583Y-63626999D01*
X193635417Y-63626999D01*
X193655699Y-63832932D01*
X193655700Y-63832934D01*
X193715768Y-64030954D01*
X193813315Y-64213450D01*
X193836260Y-64241409D01*
X193944589Y-64373410D01*
X194041209Y-64452702D01*
X194104550Y-64504685D01*
X194287046Y-64602232D01*
X194485066Y-64662300D01*
X194485065Y-64662300D01*
X194503529Y-64664118D01*
X194691000Y-64682583D01*
X194896934Y-64662300D01*
X195094954Y-64602232D01*
X195277450Y-64504685D01*
X195437410Y-64373410D01*
X195568685Y-64213450D01*
X195666232Y-64030954D01*
X195726300Y-63832934D01*
X195746583Y-63627000D01*
X195726300Y-63421066D01*
X195666232Y-63223046D01*
X195568685Y-63040550D01*
X195516702Y-62977209D01*
X195437410Y-62880589D01*
X195277452Y-62749317D01*
X195277453Y-62749317D01*
X195277450Y-62749315D01*
X195094954Y-62651768D01*
X194896934Y-62591700D01*
X194896932Y-62591699D01*
X194896934Y-62591699D01*
X194691000Y-62571417D01*
X194485067Y-62591699D01*
X194287043Y-62651769D01*
X194176898Y-62710643D01*
X194104550Y-62749315D01*
X194104548Y-62749316D01*
X194104547Y-62749317D01*
X193944589Y-62880589D01*
X193813317Y-63040547D01*
X193715769Y-63223043D01*
X193655699Y-63421067D01*
X193635417Y-63626999D01*
X190666583Y-63626999D01*
X190646300Y-63421066D01*
X190586232Y-63223046D01*
X190488685Y-63040550D01*
X190436702Y-62977209D01*
X190357410Y-62880589D01*
X190197452Y-62749317D01*
X190197453Y-62749317D01*
X190197450Y-62749315D01*
X190014954Y-62651768D01*
X189816934Y-62591700D01*
X189816932Y-62591699D01*
X189816934Y-62591699D01*
X189611000Y-62571417D01*
X189405067Y-62591699D01*
X189207043Y-62651769D01*
X189096898Y-62710643D01*
X189024550Y-62749315D01*
X189024548Y-62749316D01*
X189024547Y-62749317D01*
X188864589Y-62880589D01*
X188733317Y-63040547D01*
X188635769Y-63223043D01*
X188575699Y-63421067D01*
X188555417Y-63626999D01*
X188126583Y-63626999D01*
X188106300Y-63421066D01*
X188046232Y-63223046D01*
X187948685Y-63040550D01*
X187896702Y-62977209D01*
X187817410Y-62880589D01*
X187657452Y-62749317D01*
X187657453Y-62749317D01*
X187657450Y-62749315D01*
X187474954Y-62651768D01*
X187276934Y-62591700D01*
X187276932Y-62591699D01*
X187276934Y-62591699D01*
X187089463Y-62573235D01*
X187071000Y-62571417D01*
X187070999Y-62571417D01*
X186865067Y-62591699D01*
X186667043Y-62651769D01*
X186556898Y-62710643D01*
X186484550Y-62749315D01*
X186484548Y-62749316D01*
X186484547Y-62749317D01*
X186324589Y-62880589D01*
X186193317Y-63040547D01*
X186095769Y-63223043D01*
X186035699Y-63421067D01*
X186015417Y-63626999D01*
X185586583Y-63626999D01*
X185566300Y-63421066D01*
X185506232Y-63223046D01*
X185408685Y-63040550D01*
X185356702Y-62977209D01*
X185277410Y-62880589D01*
X185117452Y-62749317D01*
X185117453Y-62749317D01*
X185117450Y-62749315D01*
X184934954Y-62651768D01*
X184736934Y-62591700D01*
X184736932Y-62591699D01*
X184736934Y-62591699D01*
X184531000Y-62571417D01*
X184325067Y-62591699D01*
X184127043Y-62651769D01*
X184016898Y-62710643D01*
X183944550Y-62749315D01*
X183944548Y-62749316D01*
X183944547Y-62749317D01*
X183784589Y-62880589D01*
X183653317Y-63040547D01*
X183555769Y-63223043D01*
X183495699Y-63421067D01*
X183475417Y-63626999D01*
X183046583Y-63626999D01*
X183026300Y-63421066D01*
X182966232Y-63223046D01*
X182868685Y-63040550D01*
X182816702Y-62977209D01*
X182737410Y-62880589D01*
X182577452Y-62749317D01*
X182577453Y-62749317D01*
X182577450Y-62749315D01*
X182394954Y-62651768D01*
X182196934Y-62591700D01*
X182196932Y-62591699D01*
X182196934Y-62591699D01*
X182009463Y-62573235D01*
X181991000Y-62571417D01*
X181990999Y-62571417D01*
X181785067Y-62591699D01*
X181587043Y-62651769D01*
X181476898Y-62710643D01*
X181404550Y-62749315D01*
X181404548Y-62749316D01*
X181404547Y-62749317D01*
X181244589Y-62880589D01*
X181113317Y-63040547D01*
X181015769Y-63223043D01*
X180955699Y-63421067D01*
X180935417Y-63626999D01*
X180506583Y-63626999D01*
X180486300Y-63421066D01*
X180426232Y-63223046D01*
X180328685Y-63040550D01*
X180276702Y-62977209D01*
X180197410Y-62880589D01*
X180037452Y-62749317D01*
X180037453Y-62749317D01*
X180037450Y-62749315D01*
X179854954Y-62651768D01*
X179656934Y-62591700D01*
X179656932Y-62591699D01*
X179656934Y-62591699D01*
X179451000Y-62571417D01*
X179245067Y-62591699D01*
X179047043Y-62651769D01*
X178936898Y-62710643D01*
X178864550Y-62749315D01*
X178864548Y-62749316D01*
X178864547Y-62749317D01*
X178704589Y-62880589D01*
X178573317Y-63040547D01*
X178475769Y-63223043D01*
X178415699Y-63421067D01*
X178395417Y-63627000D01*
X177966583Y-63627000D01*
X177946300Y-63421066D01*
X177886232Y-63223046D01*
X177788685Y-63040550D01*
X177736702Y-62977209D01*
X177657410Y-62880589D01*
X177497452Y-62749317D01*
X177497453Y-62749317D01*
X177497450Y-62749315D01*
X177314954Y-62651768D01*
X177116934Y-62591700D01*
X177116932Y-62591699D01*
X177116934Y-62591699D01*
X176911000Y-62571417D01*
X176705067Y-62591699D01*
X176507043Y-62651769D01*
X176396898Y-62710643D01*
X176324550Y-62749315D01*
X176324548Y-62749316D01*
X176324547Y-62749317D01*
X176164589Y-62880589D01*
X176033317Y-63040547D01*
X175935769Y-63223043D01*
X175875699Y-63421067D01*
X175855417Y-63626999D01*
X175426583Y-63626999D01*
X175406300Y-63421066D01*
X175346232Y-63223046D01*
X175248685Y-63040550D01*
X175196702Y-62977209D01*
X175117410Y-62880589D01*
X174957452Y-62749317D01*
X174957453Y-62749317D01*
X174957450Y-62749315D01*
X174774954Y-62651768D01*
X174576934Y-62591700D01*
X174576932Y-62591699D01*
X174576934Y-62591699D01*
X174371000Y-62571417D01*
X174165067Y-62591699D01*
X173967043Y-62651769D01*
X173856898Y-62710643D01*
X173784550Y-62749315D01*
X173784548Y-62749316D01*
X173784547Y-62749317D01*
X173624589Y-62880589D01*
X173493317Y-63040547D01*
X173395769Y-63223043D01*
X173335699Y-63421067D01*
X173315417Y-63626999D01*
X170346583Y-63626999D01*
X170326300Y-63421066D01*
X170266232Y-63223046D01*
X170168685Y-63040550D01*
X170116702Y-62977209D01*
X170037410Y-62880589D01*
X169877452Y-62749317D01*
X169877453Y-62749317D01*
X169877450Y-62749315D01*
X169694954Y-62651768D01*
X169496934Y-62591700D01*
X169496932Y-62591699D01*
X169496934Y-62591699D01*
X169291000Y-62571417D01*
X169085067Y-62591699D01*
X168887043Y-62651769D01*
X168776898Y-62710643D01*
X168704550Y-62749315D01*
X168704548Y-62749316D01*
X168704547Y-62749317D01*
X168544589Y-62880589D01*
X168413317Y-63040547D01*
X168315769Y-63223043D01*
X168255699Y-63421067D01*
X168235417Y-63626999D01*
X167806583Y-63626999D01*
X167786300Y-63421066D01*
X167726232Y-63223046D01*
X167628685Y-63040550D01*
X167576702Y-62977209D01*
X167497410Y-62880589D01*
X167337452Y-62749317D01*
X167337453Y-62749317D01*
X167337450Y-62749315D01*
X167154954Y-62651768D01*
X166956934Y-62591700D01*
X166956932Y-62591699D01*
X166956934Y-62591699D01*
X166751000Y-62571417D01*
X166545067Y-62591699D01*
X166347043Y-62651769D01*
X166236898Y-62710643D01*
X166164550Y-62749315D01*
X166164548Y-62749316D01*
X166164547Y-62749317D01*
X166004589Y-62880589D01*
X165873317Y-63040547D01*
X165775769Y-63223043D01*
X165715699Y-63421067D01*
X165695417Y-63626999D01*
X165266583Y-63626999D01*
X165246300Y-63421066D01*
X165186232Y-63223046D01*
X165088685Y-63040550D01*
X165036702Y-62977209D01*
X164957410Y-62880589D01*
X164797452Y-62749317D01*
X164797453Y-62749317D01*
X164797450Y-62749315D01*
X164614954Y-62651768D01*
X164416934Y-62591700D01*
X164416932Y-62591699D01*
X164416934Y-62591699D01*
X164229463Y-62573235D01*
X164211000Y-62571417D01*
X164210999Y-62571417D01*
X164005067Y-62591699D01*
X163807043Y-62651769D01*
X163696898Y-62710643D01*
X163624550Y-62749315D01*
X163624548Y-62749316D01*
X163624547Y-62749317D01*
X163464589Y-62880589D01*
X163333317Y-63040547D01*
X163235769Y-63223043D01*
X163175699Y-63421067D01*
X163155417Y-63626999D01*
X162726583Y-63626999D01*
X162706300Y-63421066D01*
X162646232Y-63223046D01*
X162548685Y-63040550D01*
X162496702Y-62977209D01*
X162417410Y-62880589D01*
X162257452Y-62749317D01*
X162257453Y-62749317D01*
X162257450Y-62749315D01*
X162074954Y-62651768D01*
X161876934Y-62591700D01*
X161876932Y-62591699D01*
X161876934Y-62591699D01*
X161671000Y-62571417D01*
X161465067Y-62591699D01*
X161267043Y-62651769D01*
X161156898Y-62710643D01*
X161084550Y-62749315D01*
X161084548Y-62749316D01*
X161084547Y-62749317D01*
X160924589Y-62880589D01*
X160793317Y-63040547D01*
X160695769Y-63223043D01*
X160635699Y-63421067D01*
X160615417Y-63627000D01*
X160635699Y-63832932D01*
X160635700Y-63832934D01*
X160695768Y-64030954D01*
X160781255Y-64190888D01*
X160793317Y-64213453D01*
X160816260Y-64241409D01*
X160843573Y-64305719D01*
X160831782Y-64374587D01*
X160808088Y-64407755D01*
X159920665Y-65295181D01*
X159859342Y-65328666D01*
X159832984Y-65331500D01*
X151655005Y-65331500D01*
X151649601Y-65331264D01*
X151644089Y-65330781D01*
X151609016Y-65327712D01*
X151569662Y-65338256D01*
X151564383Y-65339427D01*
X151524264Y-65346502D01*
X151519529Y-65348225D01*
X151502021Y-65355476D01*
X151497457Y-65357605D01*
X151464080Y-65380974D01*
X151459520Y-65383879D01*
X151424240Y-65404249D01*
X151424239Y-65404250D01*
X151398054Y-65435456D01*
X151394398Y-65439445D01*
X144426665Y-72407181D01*
X144365342Y-72440666D01*
X144338984Y-72443500D01*
X122233030Y-72443500D01*
X122165991Y-72423815D01*
X122120236Y-72371011D01*
X122115989Y-72360455D01*
X122113379Y-72352999D01*
X122104116Y-72326525D01*
X122098157Y-72318451D01*
X122025711Y-72220289D01*
X122025710Y-72220288D01*
X121919476Y-72141884D01*
X121794848Y-72098274D01*
X121794849Y-72098274D01*
X121765260Y-72095500D01*
X121765256Y-72095500D01*
X121159744Y-72095500D01*
X121159740Y-72095500D01*
X121130150Y-72098274D01*
X121005523Y-72141884D01*
X120899289Y-72220288D01*
X120899288Y-72220289D01*
X120820884Y-72326523D01*
X120777274Y-72451150D01*
X120774500Y-72480739D01*
X120774500Y-73061260D01*
X120325500Y-73061260D01*
X120325500Y-72480739D01*
X120322725Y-72451150D01*
X120290989Y-72360455D01*
X120279116Y-72326525D01*
X120273157Y-72318451D01*
X120200711Y-72220289D01*
X120200710Y-72220288D01*
X120094476Y-72141884D01*
X119969848Y-72098274D01*
X119969849Y-72098274D01*
X119940260Y-72095500D01*
X119940256Y-72095500D01*
X119334744Y-72095500D01*
X119334740Y-72095500D01*
X119305150Y-72098274D01*
X119180523Y-72141884D01*
X119074289Y-72220288D01*
X119074288Y-72220289D01*
X118995884Y-72326523D01*
X118983311Y-72362456D01*
X118942589Y-72419231D01*
X118877636Y-72444978D01*
X118866270Y-72445500D01*
X117888730Y-72445500D01*
X117821691Y-72425815D01*
X117775936Y-72373011D01*
X117771689Y-72362456D01*
X117770989Y-72360455D01*
X117759116Y-72326525D01*
X117753157Y-72318451D01*
X117680711Y-72220289D01*
X117680710Y-72220288D01*
X117574476Y-72141884D01*
X117449848Y-72098274D01*
X117449849Y-72098274D01*
X117420260Y-72095500D01*
X117420256Y-72095500D01*
X116739744Y-72095500D01*
X116739740Y-72095500D01*
X116710150Y-72098274D01*
X116585523Y-72141884D01*
X116479289Y-72220288D01*
X116479288Y-72220289D01*
X116400884Y-72326523D01*
X116357274Y-72451150D01*
X116354500Y-72480739D01*
X116354500Y-73061260D01*
X110871500Y-73061260D01*
X110871500Y-64627756D01*
X110891185Y-64560717D01*
X110943989Y-64514962D01*
X111013147Y-64505018D01*
X111076703Y-64534043D01*
X111114477Y-64592821D01*
X111114865Y-64594172D01*
X111163530Y-64767137D01*
X111163534Y-64767151D01*
X111308435Y-65136353D01*
X111308440Y-65136365D01*
X111461775Y-65435456D01*
X111489391Y-65489323D01*
X111704586Y-65822509D01*
X111951886Y-66132614D01*
X111951895Y-66132625D01*
X112221854Y-66409399D01*
X112228833Y-66416554D01*
X112532676Y-66671508D01*
X112860394Y-66894942D01*
X113208730Y-67084636D01*
X113574223Y-67238704D01*
X113574232Y-67238706D01*
X113574238Y-67238709D01*
X113953235Y-67355614D01*
X113953248Y-67355617D01*
X114341999Y-67434205D01*
X114342014Y-67434208D01*
X114680299Y-67468058D01*
X114736680Y-67473700D01*
X114736681Y-67473700D01*
X115034103Y-67473700D01*
X115232130Y-67463816D01*
X115331145Y-67458875D01*
X115723353Y-67399759D01*
X116107726Y-67301886D01*
X116480445Y-67166228D01*
X116837803Y-66994133D01*
X117176251Y-66787312D01*
X117492424Y-66547820D01*
X117783181Y-66278037D01*
X118045631Y-65980645D01*
X118277166Y-65658600D01*
X118475485Y-65315101D01*
X118638617Y-64953563D01*
X118764941Y-64577578D01*
X118853201Y-64190885D01*
X118902521Y-63797325D01*
X118906349Y-63643805D01*
X118912409Y-63400826D01*
X118912409Y-63400810D01*
X118899088Y-63223046D01*
X118882769Y-63005280D01*
X118813893Y-62614668D01*
X118778307Y-62488187D01*
X155050500Y-62488187D01*
X155063046Y-62571417D01*
X155089604Y-62747615D01*
X155089605Y-62747617D01*
X155089606Y-62747623D01*
X155166938Y-62998326D01*
X155280767Y-63234696D01*
X155280768Y-63234697D01*
X155280770Y-63234700D01*
X155280772Y-63234704D01*
X155428566Y-63451479D01*
X155428567Y-63451479D01*
X155607014Y-63643801D01*
X155607018Y-63643804D01*
X155607019Y-63643805D01*
X155812143Y-63807386D01*
X156039357Y-63938568D01*
X156283584Y-64034420D01*
X156539370Y-64092802D01*
X156539376Y-64092802D01*
X156539379Y-64092803D01*
X156735500Y-64107500D01*
X156735506Y-64107500D01*
X156866500Y-64107500D01*
X157062620Y-64092803D01*
X157062622Y-64092802D01*
X157062630Y-64092802D01*
X157318416Y-64034420D01*
X157562643Y-63938568D01*
X157789857Y-63807386D01*
X157994981Y-63643805D01*
X158173433Y-63451479D01*
X158321228Y-63234704D01*
X158435063Y-62998323D01*
X158512396Y-62747615D01*
X158551499Y-62488187D01*
X213050500Y-62488187D01*
X213063046Y-62571417D01*
X213089604Y-62747615D01*
X213089605Y-62747617D01*
X213089606Y-62747623D01*
X213166938Y-62998326D01*
X213280767Y-63234696D01*
X213280768Y-63234697D01*
X213280770Y-63234700D01*
X213280772Y-63234704D01*
X213428566Y-63451478D01*
X213428567Y-63451479D01*
X213607014Y-63643801D01*
X213607018Y-63643804D01*
X213607019Y-63643805D01*
X213812143Y-63807386D01*
X214039357Y-63938568D01*
X214283584Y-64034420D01*
X214539370Y-64092802D01*
X214539376Y-64092802D01*
X214539379Y-64092803D01*
X214735500Y-64107500D01*
X214735506Y-64107500D01*
X214866500Y-64107500D01*
X215062620Y-64092803D01*
X215062622Y-64092802D01*
X215062630Y-64092802D01*
X215318416Y-64034420D01*
X215562643Y-63938568D01*
X215789857Y-63807386D01*
X215994981Y-63643805D01*
X216173433Y-63451479D01*
X216321228Y-63234704D01*
X216435063Y-62998323D01*
X216512396Y-62747615D01*
X216551500Y-62488182D01*
X216551500Y-62225818D01*
X216512396Y-61966385D01*
X216435063Y-61715677D01*
X216340870Y-61520083D01*
X216321232Y-61479303D01*
X216321231Y-61479302D01*
X216321230Y-61479301D01*
X216321228Y-61479296D01*
X216173433Y-61262521D01*
X216094529Y-61177482D01*
X215994985Y-61070198D01*
X215915486Y-61006800D01*
X215789857Y-60906614D01*
X215562643Y-60775432D01*
X215318416Y-60679580D01*
X215318411Y-60679578D01*
X215318402Y-60679576D01*
X215100818Y-60629914D01*
X215062630Y-60621198D01*
X215062629Y-60621197D01*
X215062625Y-60621197D01*
X215062620Y-60621196D01*
X214866500Y-60606500D01*
X214866494Y-60606500D01*
X214735506Y-60606500D01*
X214735500Y-60606500D01*
X214539379Y-60621196D01*
X214539374Y-60621197D01*
X214283597Y-60679576D01*
X214283578Y-60679582D01*
X214039356Y-60775432D01*
X213812143Y-60906614D01*
X213607014Y-61070198D01*
X213428567Y-61262520D01*
X213280768Y-61479302D01*
X213280767Y-61479303D01*
X213166938Y-61715673D01*
X213089606Y-61966376D01*
X213089605Y-61966381D01*
X213089604Y-61966385D01*
X213079700Y-62032094D01*
X213050500Y-62225812D01*
X213050500Y-62488187D01*
X158551499Y-62488187D01*
X158551500Y-62488182D01*
X158551500Y-62225818D01*
X158512396Y-61966385D01*
X158435063Y-61715677D01*
X158340870Y-61520083D01*
X158321232Y-61479303D01*
X158321231Y-61479302D01*
X158321230Y-61479301D01*
X158321228Y-61479296D01*
X158173433Y-61262521D01*
X158094529Y-61177482D01*
X158010575Y-61087000D01*
X160615417Y-61087000D01*
X160635699Y-61292932D01*
X160635700Y-61292934D01*
X160695768Y-61490954D01*
X160793315Y-61673450D01*
X160793317Y-61673452D01*
X160924589Y-61833410D01*
X161021209Y-61912702D01*
X161084550Y-61964685D01*
X161267046Y-62062232D01*
X161465066Y-62122300D01*
X161465065Y-62122300D01*
X161483529Y-62124118D01*
X161671000Y-62142583D01*
X161876934Y-62122300D01*
X162074954Y-62062232D01*
X162257450Y-61964685D01*
X162274556Y-61950646D01*
X162338867Y-61923334D01*
X162353221Y-61922500D01*
X163528779Y-61922500D01*
X163595818Y-61942185D01*
X163607443Y-61950646D01*
X163624550Y-61964685D01*
X163807046Y-62062232D01*
X164005066Y-62122300D01*
X164005065Y-62122300D01*
X164025348Y-62124297D01*
X164211000Y-62142583D01*
X164416934Y-62122300D01*
X164614954Y-62062232D01*
X164797450Y-61964685D01*
X164957410Y-61833410D01*
X165088685Y-61673450D01*
X165186232Y-61490954D01*
X165246300Y-61292934D01*
X165266583Y-61087000D01*
X168235417Y-61087000D01*
X168255699Y-61292932D01*
X168255700Y-61292934D01*
X168315768Y-61490954D01*
X168413315Y-61673450D01*
X168413317Y-61673452D01*
X168544589Y-61833410D01*
X168641209Y-61912702D01*
X168704550Y-61964685D01*
X168887046Y-62062232D01*
X169085066Y-62122300D01*
X169085065Y-62122300D01*
X169103529Y-62124118D01*
X169291000Y-62142583D01*
X169496934Y-62122300D01*
X169694954Y-62062232D01*
X169877450Y-61964685D01*
X170037410Y-61833410D01*
X170168685Y-61673450D01*
X170266232Y-61490954D01*
X170326300Y-61292934D01*
X170346583Y-61087000D01*
X170775417Y-61087000D01*
X170795699Y-61292932D01*
X170795700Y-61292934D01*
X170855768Y-61490954D01*
X170953315Y-61673450D01*
X170953317Y-61673452D01*
X171084589Y-61833410D01*
X171181209Y-61912702D01*
X171244550Y-61964685D01*
X171427046Y-62062232D01*
X171625066Y-62122300D01*
X171625065Y-62122300D01*
X171643529Y-62124118D01*
X171831000Y-62142583D01*
X172036934Y-62122300D01*
X172234954Y-62062232D01*
X172417450Y-61964685D01*
X172577410Y-61833410D01*
X172708685Y-61673450D01*
X172806232Y-61490954D01*
X172866300Y-61292934D01*
X172886583Y-61087000D01*
X172886583Y-61086999D01*
X173315417Y-61086999D01*
X173335699Y-61292932D01*
X173335700Y-61292934D01*
X173395768Y-61490954D01*
X173493315Y-61673450D01*
X173493317Y-61673452D01*
X173624589Y-61833410D01*
X173721209Y-61912702D01*
X173784550Y-61964685D01*
X173967046Y-62062232D01*
X174165066Y-62122300D01*
X174165065Y-62122300D01*
X174183529Y-62124118D01*
X174371000Y-62142583D01*
X174576934Y-62122300D01*
X174774954Y-62062232D01*
X174957450Y-61964685D01*
X175117410Y-61833410D01*
X175248685Y-61673450D01*
X175346232Y-61490954D01*
X175406300Y-61292934D01*
X175426583Y-61087000D01*
X178395417Y-61087000D01*
X178415699Y-61292932D01*
X178415700Y-61292934D01*
X178475768Y-61490954D01*
X178573315Y-61673450D01*
X178573317Y-61673452D01*
X178704589Y-61833410D01*
X178801209Y-61912702D01*
X178864550Y-61964685D01*
X179047046Y-62062232D01*
X179245066Y-62122300D01*
X179245065Y-62122300D01*
X179263529Y-62124118D01*
X179451000Y-62142583D01*
X179656934Y-62122300D01*
X179854954Y-62062232D01*
X180037450Y-61964685D01*
X180197410Y-61833410D01*
X180328685Y-61673450D01*
X180426232Y-61490954D01*
X180486300Y-61292934D01*
X180506583Y-61087000D01*
X180935417Y-61087000D01*
X180955699Y-61292932D01*
X180955700Y-61292934D01*
X181015768Y-61490954D01*
X181113315Y-61673450D01*
X181113317Y-61673452D01*
X181244589Y-61833410D01*
X181341209Y-61912702D01*
X181404550Y-61964685D01*
X181587046Y-62062232D01*
X181785066Y-62122300D01*
X181785065Y-62122300D01*
X181805347Y-62124297D01*
X181991000Y-62142583D01*
X182196934Y-62122300D01*
X182394954Y-62062232D01*
X182577450Y-61964685D01*
X182737410Y-61833410D01*
X182868685Y-61673450D01*
X182966232Y-61490954D01*
X183026300Y-61292934D01*
X183046583Y-61087000D01*
X186015417Y-61087000D01*
X186035699Y-61292932D01*
X186035700Y-61292934D01*
X186095768Y-61490954D01*
X186193315Y-61673450D01*
X186193317Y-61673452D01*
X186324589Y-61833410D01*
X186421209Y-61912702D01*
X186484550Y-61964685D01*
X186667046Y-62062232D01*
X186865066Y-62122300D01*
X186865065Y-62122300D01*
X186885348Y-62124297D01*
X187071000Y-62142583D01*
X187276934Y-62122300D01*
X187474954Y-62062232D01*
X187657450Y-61964685D01*
X187817410Y-61833410D01*
X187948685Y-61673450D01*
X188046232Y-61490954D01*
X188106300Y-61292934D01*
X188126583Y-61087000D01*
X188555417Y-61087000D01*
X188575699Y-61292932D01*
X188575700Y-61292934D01*
X188635768Y-61490954D01*
X188733315Y-61673450D01*
X188733317Y-61673452D01*
X188864589Y-61833410D01*
X188961209Y-61912702D01*
X189024550Y-61964685D01*
X189207046Y-62062232D01*
X189405066Y-62122300D01*
X189405065Y-62122300D01*
X189425348Y-62124297D01*
X189611000Y-62142583D01*
X189816934Y-62122300D01*
X190014954Y-62062232D01*
X190197450Y-61964685D01*
X190357410Y-61833410D01*
X190488685Y-61673450D01*
X190586232Y-61490954D01*
X190646300Y-61292934D01*
X190666583Y-61087000D01*
X190666583Y-61086999D01*
X191095417Y-61086999D01*
X191115699Y-61292932D01*
X191115700Y-61292934D01*
X191175768Y-61490954D01*
X191273315Y-61673450D01*
X191273317Y-61673452D01*
X191404589Y-61833410D01*
X191501209Y-61912702D01*
X191564550Y-61964685D01*
X191747046Y-62062232D01*
X191945066Y-62122300D01*
X191945065Y-62122300D01*
X191963529Y-62124118D01*
X192151000Y-62142583D01*
X192356934Y-62122300D01*
X192554954Y-62062232D01*
X192737450Y-61964685D01*
X192897410Y-61833410D01*
X193028685Y-61673450D01*
X193126232Y-61490954D01*
X193186300Y-61292934D01*
X193206583Y-61087000D01*
X193635417Y-61087000D01*
X193655699Y-61292932D01*
X193655700Y-61292934D01*
X193715768Y-61490954D01*
X193813315Y-61673450D01*
X193813317Y-61673452D01*
X193944589Y-61833410D01*
X194041209Y-61912702D01*
X194104550Y-61964685D01*
X194287046Y-62062232D01*
X194485066Y-62122300D01*
X194485065Y-62122300D01*
X194503529Y-62124118D01*
X194691000Y-62142583D01*
X194896934Y-62122300D01*
X195094954Y-62062232D01*
X195277450Y-61964685D01*
X195437410Y-61833410D01*
X195568685Y-61673450D01*
X195666232Y-61490954D01*
X195726300Y-61292934D01*
X195746583Y-61087000D01*
X195746583Y-61086999D01*
X198715417Y-61086999D01*
X198735699Y-61292932D01*
X198735700Y-61292934D01*
X198795768Y-61490954D01*
X198893315Y-61673450D01*
X198893317Y-61673452D01*
X199024589Y-61833410D01*
X199121209Y-61912702D01*
X199184550Y-61964685D01*
X199367046Y-62062232D01*
X199565066Y-62122300D01*
X199565065Y-62122300D01*
X199585348Y-62124297D01*
X199771000Y-62142583D01*
X199976934Y-62122300D01*
X200174954Y-62062232D01*
X200357450Y-61964685D01*
X200517410Y-61833410D01*
X200648685Y-61673450D01*
X200746232Y-61490954D01*
X200806300Y-61292934D01*
X200826583Y-61087000D01*
X200826583Y-61086999D01*
X203795417Y-61086999D01*
X203815699Y-61292932D01*
X203815700Y-61292934D01*
X203875768Y-61490954D01*
X203973315Y-61673450D01*
X203973317Y-61673452D01*
X204104589Y-61833410D01*
X204201209Y-61912702D01*
X204264550Y-61964685D01*
X204447046Y-62062232D01*
X204645066Y-62122300D01*
X204645065Y-62122300D01*
X204665348Y-62124297D01*
X204851000Y-62142583D01*
X205056934Y-62122300D01*
X205254954Y-62062232D01*
X205437450Y-61964685D01*
X205597410Y-61833410D01*
X205728685Y-61673450D01*
X205826232Y-61490954D01*
X205886300Y-61292934D01*
X205906583Y-61087000D01*
X205906583Y-61086999D01*
X206335417Y-61086999D01*
X206355699Y-61292932D01*
X206355700Y-61292934D01*
X206415768Y-61490954D01*
X206513315Y-61673450D01*
X206513317Y-61673452D01*
X206644589Y-61833410D01*
X206741209Y-61912702D01*
X206804550Y-61964685D01*
X206987046Y-62062232D01*
X207185066Y-62122300D01*
X207185065Y-62122300D01*
X207203529Y-62124118D01*
X207391000Y-62142583D01*
X207596934Y-62122300D01*
X207794954Y-62062232D01*
X207977450Y-61964685D01*
X208137410Y-61833410D01*
X208268685Y-61673450D01*
X208366232Y-61490954D01*
X208426300Y-61292934D01*
X208446583Y-61087000D01*
X208875417Y-61087000D01*
X208895699Y-61292932D01*
X208895700Y-61292934D01*
X208955768Y-61490954D01*
X209053315Y-61673450D01*
X209053317Y-61673452D01*
X209184589Y-61833410D01*
X209281209Y-61912702D01*
X209344550Y-61964685D01*
X209527046Y-62062232D01*
X209725066Y-62122300D01*
X209725065Y-62122300D01*
X209743529Y-62124118D01*
X209931000Y-62142583D01*
X210136934Y-62122300D01*
X210334954Y-62062232D01*
X210517450Y-61964685D01*
X210677410Y-61833410D01*
X210808685Y-61673450D01*
X210906232Y-61490954D01*
X210966300Y-61292934D01*
X210986583Y-61087000D01*
X210966300Y-60881066D01*
X210906232Y-60683046D01*
X210808685Y-60500550D01*
X210756702Y-60437209D01*
X210677410Y-60340589D01*
X210517452Y-60209317D01*
X210517453Y-60209317D01*
X210517450Y-60209315D01*
X210334954Y-60111768D01*
X210136934Y-60051700D01*
X210136932Y-60051699D01*
X210136934Y-60051699D01*
X209949463Y-60033235D01*
X209931000Y-60031417D01*
X209930999Y-60031417D01*
X209725067Y-60051699D01*
X209527043Y-60111769D01*
X209468211Y-60143216D01*
X209344550Y-60209315D01*
X209344548Y-60209316D01*
X209344547Y-60209317D01*
X209184589Y-60340589D01*
X209053317Y-60500547D01*
X208955769Y-60683043D01*
X208895699Y-60881067D01*
X208875417Y-61087000D01*
X208446583Y-61087000D01*
X208426300Y-60881066D01*
X208366232Y-60683046D01*
X208268685Y-60500550D01*
X208216702Y-60437209D01*
X208137410Y-60340589D01*
X207977452Y-60209317D01*
X207977453Y-60209317D01*
X207977450Y-60209315D01*
X207794954Y-60111768D01*
X207596934Y-60051700D01*
X207596932Y-60051699D01*
X207596934Y-60051699D01*
X207391000Y-60031417D01*
X207185067Y-60051699D01*
X206987043Y-60111769D01*
X206928211Y-60143216D01*
X206804550Y-60209315D01*
X206804548Y-60209316D01*
X206804547Y-60209317D01*
X206644589Y-60340589D01*
X206513317Y-60500547D01*
X206415769Y-60683043D01*
X206355699Y-60881067D01*
X206335417Y-61086999D01*
X205906583Y-61086999D01*
X205886300Y-60881066D01*
X205826232Y-60683046D01*
X205728685Y-60500550D01*
X205676702Y-60437209D01*
X205597410Y-60340589D01*
X205437452Y-60209317D01*
X205437453Y-60209317D01*
X205437450Y-60209315D01*
X205254954Y-60111768D01*
X205056934Y-60051700D01*
X205056932Y-60051699D01*
X205056934Y-60051699D01*
X204851000Y-60031417D01*
X204645067Y-60051699D01*
X204447043Y-60111769D01*
X204388211Y-60143216D01*
X204264550Y-60209315D01*
X204264548Y-60209316D01*
X204264547Y-60209317D01*
X204104589Y-60340589D01*
X203973317Y-60500547D01*
X203875769Y-60683043D01*
X203815699Y-60881067D01*
X203795417Y-61086999D01*
X200826583Y-61086999D01*
X200806300Y-60881066D01*
X200746232Y-60683046D01*
X200648685Y-60500550D01*
X200596702Y-60437209D01*
X200517410Y-60340589D01*
X200357452Y-60209317D01*
X200357453Y-60209317D01*
X200357450Y-60209315D01*
X200174954Y-60111768D01*
X199976934Y-60051700D01*
X199976932Y-60051699D01*
X199976934Y-60051699D01*
X199771000Y-60031417D01*
X199565067Y-60051699D01*
X199367043Y-60111769D01*
X199308211Y-60143216D01*
X199184550Y-60209315D01*
X199184548Y-60209316D01*
X199184547Y-60209317D01*
X199024589Y-60340589D01*
X198893317Y-60500547D01*
X198795769Y-60683043D01*
X198735699Y-60881067D01*
X198715417Y-61086999D01*
X195746583Y-61086999D01*
X195726300Y-60881066D01*
X195666232Y-60683046D01*
X195568685Y-60500550D01*
X195516702Y-60437209D01*
X195437410Y-60340589D01*
X195277452Y-60209317D01*
X195277453Y-60209317D01*
X195277450Y-60209315D01*
X195094954Y-60111768D01*
X194896934Y-60051700D01*
X194896932Y-60051699D01*
X194896934Y-60051699D01*
X194691000Y-60031417D01*
X194485067Y-60051699D01*
X194287043Y-60111769D01*
X194228211Y-60143216D01*
X194104550Y-60209315D01*
X194104548Y-60209316D01*
X194104547Y-60209317D01*
X193944589Y-60340589D01*
X193813317Y-60500547D01*
X193715769Y-60683043D01*
X193655699Y-60881067D01*
X193635417Y-61087000D01*
X193206583Y-61087000D01*
X193186300Y-60881066D01*
X193126232Y-60683046D01*
X193028685Y-60500550D01*
X192976702Y-60437209D01*
X192897410Y-60340589D01*
X192737452Y-60209317D01*
X192737453Y-60209317D01*
X192737450Y-60209315D01*
X192554954Y-60111768D01*
X192356934Y-60051700D01*
X192356932Y-60051699D01*
X192356934Y-60051699D01*
X192151000Y-60031417D01*
X191945067Y-60051699D01*
X191747043Y-60111769D01*
X191688211Y-60143216D01*
X191564550Y-60209315D01*
X191564548Y-60209316D01*
X191564547Y-60209317D01*
X191404589Y-60340589D01*
X191273317Y-60500547D01*
X191175769Y-60683043D01*
X191115699Y-60881067D01*
X191095417Y-61086999D01*
X190666583Y-61086999D01*
X190646300Y-60881066D01*
X190586232Y-60683046D01*
X190488685Y-60500550D01*
X190436702Y-60437209D01*
X190357410Y-60340589D01*
X190197452Y-60209317D01*
X190197453Y-60209317D01*
X190197450Y-60209315D01*
X190014954Y-60111768D01*
X189816934Y-60051700D01*
X189816932Y-60051699D01*
X189816934Y-60051699D01*
X189611000Y-60031417D01*
X189405067Y-60051699D01*
X189207043Y-60111769D01*
X189148211Y-60143216D01*
X189024550Y-60209315D01*
X189024548Y-60209316D01*
X189024547Y-60209317D01*
X188864589Y-60340589D01*
X188733317Y-60500547D01*
X188635769Y-60683043D01*
X188575699Y-60881067D01*
X188555417Y-61087000D01*
X188126583Y-61087000D01*
X188106300Y-60881066D01*
X188046232Y-60683046D01*
X187948685Y-60500550D01*
X187896702Y-60437209D01*
X187817410Y-60340589D01*
X187657452Y-60209317D01*
X187657453Y-60209317D01*
X187657450Y-60209315D01*
X187474954Y-60111768D01*
X187276934Y-60051700D01*
X187276932Y-60051699D01*
X187276934Y-60051699D01*
X187071000Y-60031417D01*
X186865067Y-60051699D01*
X186667043Y-60111769D01*
X186608211Y-60143216D01*
X186484550Y-60209315D01*
X186484548Y-60209316D01*
X186484547Y-60209317D01*
X186324589Y-60340589D01*
X186193317Y-60500547D01*
X186095769Y-60683043D01*
X186035699Y-60881067D01*
X186015417Y-61087000D01*
X183046583Y-61087000D01*
X183026300Y-60881066D01*
X182966232Y-60683046D01*
X182868685Y-60500550D01*
X182816702Y-60437209D01*
X182737410Y-60340589D01*
X182577452Y-60209317D01*
X182577453Y-60209317D01*
X182577450Y-60209315D01*
X182394954Y-60111768D01*
X182196934Y-60051700D01*
X182196932Y-60051699D01*
X182196934Y-60051699D01*
X181991000Y-60031417D01*
X181785067Y-60051699D01*
X181587043Y-60111769D01*
X181528211Y-60143216D01*
X181404550Y-60209315D01*
X181404548Y-60209316D01*
X181404547Y-60209317D01*
X181244589Y-60340589D01*
X181113317Y-60500547D01*
X181015769Y-60683043D01*
X180955699Y-60881067D01*
X180935417Y-61087000D01*
X180506583Y-61087000D01*
X180486300Y-60881066D01*
X180426232Y-60683046D01*
X180328685Y-60500550D01*
X180276702Y-60437209D01*
X180197410Y-60340589D01*
X180037452Y-60209317D01*
X180037453Y-60209317D01*
X180037450Y-60209315D01*
X179854954Y-60111768D01*
X179656934Y-60051700D01*
X179656932Y-60051699D01*
X179656934Y-60051699D01*
X179469463Y-60033235D01*
X179451000Y-60031417D01*
X179450999Y-60031417D01*
X179245067Y-60051699D01*
X179047043Y-60111769D01*
X178988211Y-60143216D01*
X178864550Y-60209315D01*
X178864548Y-60209316D01*
X178864547Y-60209317D01*
X178704589Y-60340589D01*
X178573317Y-60500547D01*
X178475769Y-60683043D01*
X178415699Y-60881067D01*
X178395417Y-61087000D01*
X175426583Y-61087000D01*
X175406300Y-60881066D01*
X175346232Y-60683046D01*
X175248685Y-60500550D01*
X175196702Y-60437209D01*
X175117410Y-60340589D01*
X174957452Y-60209317D01*
X174957453Y-60209317D01*
X174957450Y-60209315D01*
X174774954Y-60111768D01*
X174576934Y-60051700D01*
X174576932Y-60051699D01*
X174576934Y-60051699D01*
X174371000Y-60031417D01*
X174165067Y-60051699D01*
X173967043Y-60111769D01*
X173908211Y-60143216D01*
X173784550Y-60209315D01*
X173784548Y-60209316D01*
X173784547Y-60209317D01*
X173624589Y-60340589D01*
X173493317Y-60500547D01*
X173395769Y-60683043D01*
X173335699Y-60881067D01*
X173315417Y-61086999D01*
X172886583Y-61086999D01*
X172866300Y-60881066D01*
X172806232Y-60683046D01*
X172708685Y-60500550D01*
X172656702Y-60437209D01*
X172577410Y-60340589D01*
X172417452Y-60209317D01*
X172417453Y-60209317D01*
X172417450Y-60209315D01*
X172234954Y-60111768D01*
X172036934Y-60051700D01*
X172036932Y-60051699D01*
X172036934Y-60051699D01*
X171831000Y-60031417D01*
X171625067Y-60051699D01*
X171427043Y-60111769D01*
X171368211Y-60143216D01*
X171244550Y-60209315D01*
X171244548Y-60209316D01*
X171244547Y-60209317D01*
X171084589Y-60340589D01*
X170953317Y-60500547D01*
X170855769Y-60683043D01*
X170795699Y-60881067D01*
X170775417Y-61087000D01*
X170346583Y-61087000D01*
X170326300Y-60881066D01*
X170266232Y-60683046D01*
X170168685Y-60500550D01*
X170116702Y-60437209D01*
X170037410Y-60340589D01*
X169877452Y-60209317D01*
X169877453Y-60209317D01*
X169877450Y-60209315D01*
X169694954Y-60111768D01*
X169496934Y-60051700D01*
X169496932Y-60051699D01*
X169496934Y-60051699D01*
X169309463Y-60033235D01*
X169291000Y-60031417D01*
X169290999Y-60031417D01*
X169085067Y-60051699D01*
X168887043Y-60111769D01*
X168828211Y-60143216D01*
X168704550Y-60209315D01*
X168704548Y-60209316D01*
X168704547Y-60209317D01*
X168544589Y-60340589D01*
X168413317Y-60500547D01*
X168315769Y-60683043D01*
X168255699Y-60881067D01*
X168235417Y-61087000D01*
X165266583Y-61087000D01*
X165246300Y-60881066D01*
X165186232Y-60683046D01*
X165088685Y-60500550D01*
X165036702Y-60437209D01*
X164957410Y-60340589D01*
X164797452Y-60209317D01*
X164797453Y-60209317D01*
X164797450Y-60209315D01*
X164614954Y-60111768D01*
X164416934Y-60051700D01*
X164416932Y-60051699D01*
X164416934Y-60051699D01*
X164211000Y-60031417D01*
X164005067Y-60051699D01*
X163807043Y-60111769D01*
X163748211Y-60143216D01*
X163624550Y-60209315D01*
X163624548Y-60209316D01*
X163624547Y-60209317D01*
X163464589Y-60340589D01*
X163333317Y-60500547D01*
X163235769Y-60683043D01*
X163175699Y-60881067D01*
X163173672Y-60901655D01*
X163147511Y-60966442D01*
X163090476Y-61006800D01*
X163050269Y-61013500D01*
X162831731Y-61013500D01*
X162764692Y-60993815D01*
X162718937Y-60941011D01*
X162708328Y-60901655D01*
X162706300Y-60881067D01*
X162702150Y-60867386D01*
X162646232Y-60683046D01*
X162548685Y-60500550D01*
X162496702Y-60437209D01*
X162417410Y-60340589D01*
X162257452Y-60209317D01*
X162257453Y-60209317D01*
X162257450Y-60209315D01*
X162074954Y-60111768D01*
X161876934Y-60051700D01*
X161876932Y-60051699D01*
X161876934Y-60051699D01*
X161689463Y-60033235D01*
X161671000Y-60031417D01*
X161670999Y-60031417D01*
X161465067Y-60051699D01*
X161267043Y-60111769D01*
X161208211Y-60143216D01*
X161084550Y-60209315D01*
X161084548Y-60209316D01*
X161084547Y-60209317D01*
X160924589Y-60340589D01*
X160793317Y-60500547D01*
X160695769Y-60683043D01*
X160635699Y-60881067D01*
X160615417Y-61087000D01*
X158010575Y-61087000D01*
X157994985Y-61070198D01*
X157915486Y-61006800D01*
X157789857Y-60906614D01*
X157562643Y-60775432D01*
X157318416Y-60679580D01*
X157318411Y-60679578D01*
X157318402Y-60679576D01*
X157100818Y-60629914D01*
X157062630Y-60621198D01*
X157062629Y-60621197D01*
X157062625Y-60621197D01*
X157062620Y-60621196D01*
X156866500Y-60606500D01*
X156866494Y-60606500D01*
X156735506Y-60606500D01*
X156735500Y-60606500D01*
X156539379Y-60621196D01*
X156539374Y-60621197D01*
X156283597Y-60679576D01*
X156283578Y-60679582D01*
X156039356Y-60775432D01*
X155812143Y-60906614D01*
X155607014Y-61070198D01*
X155428567Y-61262520D01*
X155280768Y-61479302D01*
X155280767Y-61479303D01*
X155166938Y-61715673D01*
X155089606Y-61966376D01*
X155089605Y-61966381D01*
X155089604Y-61966385D01*
X155079700Y-62032094D01*
X155050500Y-62225812D01*
X155050500Y-62488187D01*
X118778307Y-62488187D01*
X118706467Y-62232854D01*
X118703705Y-62225817D01*
X118561564Y-61863646D01*
X118561559Y-61863634D01*
X118380613Y-61510685D01*
X118380609Y-61510677D01*
X118367870Y-61490954D01*
X118360341Y-61479296D01*
X118165414Y-61177491D01*
X117918114Y-60867386D01*
X117918111Y-60867383D01*
X117918104Y-60867374D01*
X117641176Y-60583455D01*
X117641173Y-60583452D01*
X117641172Y-60583451D01*
X117641167Y-60583446D01*
X117337324Y-60328492D01*
X117232841Y-60257257D01*
X117009605Y-60105057D01*
X116827461Y-60005867D01*
X116661270Y-59915364D01*
X116661262Y-59915360D01*
X116661259Y-59915359D01*
X116295777Y-59761296D01*
X116295761Y-59761290D01*
X116028952Y-59678991D01*
X115970693Y-59640421D01*
X115942536Y-59576476D01*
X115953419Y-59507459D01*
X115999887Y-59455283D01*
X116065502Y-59436500D01*
X217426500Y-59436500D01*
X217493539Y-59456185D01*
G37*
G04 #@! TD.AperFunction*
M02*
