G04 #@! TF.GenerationSoftware,KiCad,Pcbnew,7.0.7*
G04 #@! TF.CreationDate,2024-03-26T15:42:10-05:00*
G04 #@! TF.ProjectId,Hardware_2024,48617264-7761-4726-955f-323032342e6b,rev?*
G04 #@! TF.SameCoordinates,Original*
G04 #@! TF.FileFunction,Soldermask,Bot*
G04 #@! TF.FilePolarity,Negative*
%FSLAX46Y46*%
G04 Gerber Fmt 4.6, Leading zero omitted, Abs format (unit mm)*
G04 Created by KiCad (PCBNEW 7.0.7) date 2024-03-26 15:42:10*
%MOMM*%
%LPD*%
G01*
G04 APERTURE LIST*
%ADD10C,1.524000*%
%ADD11C,2.946400*%
%ADD12C,3.500000*%
%ADD13C,3.000000*%
%ADD14C,1.700000*%
%ADD15O,3.000000X5.100000*%
G04 APERTURE END LIST*
D10*
X166476000Y-74422000D03*
X166476000Y-76962000D03*
D11*
X4258120Y-4093280D03*
D10*
X188976000Y-74422000D03*
X188976000Y-76962000D03*
D11*
X4258120Y-4093280D03*
D12*
X128380000Y-75425000D03*
X128380000Y-70345000D03*
X128380000Y-62725000D03*
X148700000Y-62725000D03*
X148700000Y-72885000D03*
X148700000Y-83045000D03*
D10*
X196476000Y-74422000D03*
X196476000Y-76962000D03*
D11*
X115062000Y-108712000D03*
D10*
X203976000Y-74422000D03*
X203976000Y-76962000D03*
X181476000Y-74422000D03*
X181476000Y-76962000D03*
D13*
X156801000Y-62357000D03*
X156801000Y-111357000D03*
X214801000Y-62357000D03*
X214801000Y-111357000D03*
D14*
X161671000Y-63627000D03*
X161671000Y-61087000D03*
X164211000Y-63627000D03*
X164211000Y-61087000D03*
X166751000Y-63627000D03*
X166751000Y-61087000D03*
X169291000Y-63627000D03*
X169291000Y-61087000D03*
X171831000Y-63627000D03*
X171831000Y-61087000D03*
X174371000Y-63627000D03*
X174371000Y-61087000D03*
X176911000Y-63627000D03*
X176911000Y-61087000D03*
X179451000Y-63627000D03*
X179451000Y-61087000D03*
X181991000Y-63627000D03*
X181991000Y-61087000D03*
X184531000Y-63627000D03*
X184531000Y-61087000D03*
X187071000Y-63627000D03*
X187071000Y-61087000D03*
X189611000Y-63627000D03*
X189611000Y-61087000D03*
X192151000Y-63627000D03*
X192151000Y-61087000D03*
X194691000Y-63627000D03*
X194691000Y-61087000D03*
X197231000Y-63627000D03*
X197231000Y-61087000D03*
X199771000Y-63627000D03*
X199771000Y-61087000D03*
X202311000Y-63627000D03*
X202311000Y-61087000D03*
X204851000Y-63627000D03*
X204851000Y-61087000D03*
X207391000Y-63627000D03*
X207391000Y-61087000D03*
X209931000Y-63627000D03*
X209931000Y-61087000D03*
D11*
X114935000Y-63500000D03*
D10*
X173976000Y-74422000D03*
X173976000Y-76962000D03*
D15*
X127381000Y-91186000D03*
X127381000Y-99060000D03*
M02*
