M48
; DRILL file {KiCad 7.0.7} date Tue Mar 26 15:42:05 2024
; FORMAT={-:-/ absolute / inch / decimal}
; #@! TF.CreationDate,2024-03-26T15:42:05-05:00
; #@! TF.GenerationSoftware,Kicad,Pcbnew,7.0.7
; #@! TF.FileFunction,Plated,1,2,PTH
FMAT,2
INCH
; #@! TA.AperFunction,Plated,PTH,ViaDrill
T1C0.0157
; #@! TA.AperFunction,Plated,PTH,ComponentDrill
T2C0.0354
; #@! TA.AperFunction,Plated,PTH,ComponentDrill
T3C0.0472
; #@! TA.AperFunction,Plated,PTH,ComponentDrill
T4C0.0787
%
G90
G05
T1
X4.6602Y-3.0625
X4.6602Y-3.1725
X5.145Y-3.455
X6.28Y-2.715
X6.7Y-2.625
X6.94Y-2.665
X7.205Y-2.71
X7.505Y-2.755
X7.83Y-2.725
X8.025Y-2.685
T2
X6.365Y-2.405
X6.365Y-2.505
X6.465Y-2.405
X6.465Y-2.505
X6.5542Y-2.93
X6.5542Y-3.03
X6.565Y-2.405
X6.565Y-2.505
X6.665Y-2.405
X6.665Y-2.505
X6.765Y-2.405
X6.765Y-2.505
X6.8494Y-2.93
X6.8494Y-3.03
X6.865Y-2.405
X6.865Y-2.505
X6.965Y-2.405
X6.965Y-2.505
X7.065Y-2.405
X7.065Y-2.505
X7.1447Y-2.93
X7.1447Y-3.03
X7.165Y-2.405
X7.165Y-2.505
X7.265Y-2.405
X7.265Y-2.505
X7.365Y-2.405
X7.365Y-2.505
X7.44Y-2.93
X7.44Y-3.03
X7.465Y-2.405
X7.465Y-2.505
X7.565Y-2.405
X7.565Y-2.505
X7.665Y-2.405
X7.665Y-2.505
X7.7353Y-2.93
X7.7353Y-3.03
X7.765Y-2.405
X7.765Y-2.505
X7.865Y-2.405
X7.865Y-2.505
X7.965Y-2.405
X7.965Y-2.505
X8.0306Y-2.93
X8.0306Y-3.03
X8.065Y-2.405
X8.065Y-2.505
X8.165Y-2.405
X8.165Y-2.505
X8.265Y-2.405
X8.265Y-2.505
T3
X5.0543Y-2.4695
X5.0543Y-2.7695
X5.0543Y-2.9695
X5.8543Y-2.4695
X5.8543Y-2.8695
X5.8543Y-3.2695
T4
G00X5.015Y-3.5487
M15
G01X5.015Y-3.6313
M16
G05
G00X5.015Y-3.8587
M15
G01X5.015Y-3.9413
M16
G05
T0
M30
