G04 #@! TF.GenerationSoftware,KiCad,Pcbnew,(6.0.7)*
G04 #@! TF.CreationDate,2023-03-20T22:05:17-05:00*
G04 #@! TF.ProjectId,EquipmentServicingPanel_Hardware_2023_Rev1,45717569-706d-4656-9e74-536572766963,rev?*
G04 #@! TF.SameCoordinates,Original*
G04 #@! TF.FileFunction,Legend,Bot*
G04 #@! TF.FilePolarity,Positive*
%FSLAX46Y46*%
G04 Gerber Fmt 4.6, Leading zero omitted, Abs format (unit mm)*
G04 Created by KiCad (PCBNEW (6.0.7)) date 2023-03-20 22:05:17*
%MOMM*%
%LPD*%
G01*
G04 APERTURE LIST*
%ADD10R,1.600000X1.600000*%
%ADD11C,1.600000*%
%ADD12O,3.000000X5.100000*%
%ADD13C,3.450000*%
%ADD14C,1.524000*%
%ADD15C,1.520000*%
%ADD16R,1.358000X1.358000*%
%ADD17C,1.358000*%
%ADD18C,2.946400*%
G04 APERTURE END LIST*
%LPC*%
D10*
X102870000Y-124460000D03*
D11*
X100370000Y-124460000D03*
D10*
X108712000Y-124460000D03*
D11*
X111212000Y-124460000D03*
D12*
X112349000Y-133665000D03*
X104475000Y-133665000D03*
D13*
X155067000Y-141351000D03*
X159895000Y-141355000D03*
D14*
X158750000Y-132715000D03*
X156210000Y-132715000D03*
D13*
X164592000Y-141351000D03*
X169420000Y-141355000D03*
D14*
X168275000Y-132715000D03*
X165735000Y-132715000D03*
D13*
X116967000Y-141351000D03*
X121795000Y-141355000D03*
D14*
X120650000Y-132715000D03*
X118110000Y-132715000D03*
D13*
X140845000Y-141355000D03*
X136017000Y-141351000D03*
D14*
X139700000Y-132715000D03*
X137160000Y-132715000D03*
D13*
X150370000Y-141355000D03*
X145542000Y-141351000D03*
D14*
X149225000Y-132715000D03*
X146685000Y-132715000D03*
D13*
X131320000Y-141355000D03*
X126492000Y-141351000D03*
D14*
X130175000Y-132715000D03*
X127635000Y-132715000D03*
X120650000Y-124333000D03*
X118110000Y-124333000D03*
X130175000Y-124333000D03*
X127635000Y-124333000D03*
X139700000Y-124333000D03*
X137160000Y-124333000D03*
X149225000Y-124333000D03*
X146685000Y-124333000D03*
X158750000Y-124333000D03*
X156210000Y-124333000D03*
X168275000Y-124333000D03*
X165735000Y-124333000D03*
D13*
X104267000Y-93980000D03*
X99439000Y-93976000D03*
D14*
X100584000Y-102616000D03*
X103124000Y-102616000D03*
X100584000Y-108331000D03*
X103124000Y-108331000D03*
D13*
X113919000Y-93980000D03*
X109091000Y-93976000D03*
D14*
X110236000Y-102616000D03*
X112776000Y-102616000D03*
X110299500Y-108331000D03*
X112839500Y-108331000D03*
D15*
X122174000Y-95504000D03*
X122174000Y-92964000D03*
X124714000Y-95504000D03*
X124714000Y-92964000D03*
X127254000Y-95504000D03*
X127254000Y-92964000D03*
X129794000Y-95504000D03*
X129794000Y-92964000D03*
X132334000Y-95504000D03*
X132334000Y-92964000D03*
X134874000Y-95504000D03*
X134874000Y-92964000D03*
X137414000Y-95504000D03*
X137414000Y-92964000D03*
X139954000Y-95504000D03*
X139954000Y-92964000D03*
X142494000Y-95504000D03*
X142494000Y-92964000D03*
X145034000Y-95504000D03*
X145034000Y-92964000D03*
X147574000Y-95504000D03*
X147574000Y-92964000D03*
X150114000Y-95504000D03*
X150114000Y-92964000D03*
X152654000Y-95504000D03*
X152654000Y-92964000D03*
X155194000Y-95504000D03*
X155194000Y-92964000D03*
X157734000Y-95504000D03*
X157734000Y-92964000D03*
X160274000Y-95504000D03*
X160274000Y-92964000D03*
X162814000Y-95504000D03*
X162814000Y-92964000D03*
X165354000Y-95504000D03*
X165354000Y-92964000D03*
X167894000Y-95504000D03*
X167894000Y-92964000D03*
X170434000Y-95504000D03*
X170434000Y-92964000D03*
D14*
X94615000Y-126365000D03*
X92075000Y-126365000D03*
X89535000Y-126365000D03*
D16*
X105410000Y-142720000D03*
D17*
X107950000Y-142720000D03*
X110490000Y-142720000D03*
D18*
X176331880Y-95448120D03*
X176331880Y-142041880D03*
X90368120Y-95448120D03*
X90368120Y-142041880D03*
M02*
