M48
; DRILL file {KiCad (6.0.7)} date Mon Mar 20 22:05:23 2023
; FORMAT={-:-/ absolute / metric / decimal}
; #@! TF.CreationDate,2023-03-20T22:05:23-05:00
; #@! TF.GenerationSoftware,Kicad,Pcbnew,(6.0.7)
; #@! TF.FileFunction,Plated,1,2,PTH
FMAT,2
METRIC
; #@! TA.AperFunction,Plated,PTH,ViaDrill
T1C0.400
; #@! TA.AperFunction,Plated,PTH,ComponentDrill
T2C0.800
; #@! TA.AperFunction,Plated,PTH,ComponentDrill
T3C0.850
; #@! TA.AperFunction,Plated,PTH,ComponentDrill
T4C0.889
; #@! TA.AperFunction,Plated,PTH,ComponentDrill
T5C0.900
; #@! TA.AperFunction,Plated,PTH,ComponentDrill
T6C1.000
; #@! TA.AperFunction,Plated,PTH,ComponentDrill
T7C2.000
%
G90
G05
T1
X89.535Y-106.045
X106.807Y-103.505
X115.57Y-111.252
X121.92Y-104.14
X132.08Y-104.14
X132.08Y-114.3
X134.62Y-107.188
X142.24Y-104.14
X142.24Y-114.3
X152.4Y-104.14
X152.4Y-114.3
X160.274Y-98.425
X162.306Y-119.507
X162.814Y-100.076
X164.338Y-119.507
X167.894Y-101.473
T2
X100.37Y-124.46
X102.87Y-124.46
X108.712Y-124.46
X111.212Y-124.46
T3
X105.41Y-142.72
X107.95Y-142.72
X110.49Y-142.72
T4
X89.535Y-126.365
X92.075Y-126.365
X94.615Y-126.365
T5
X100.584Y-102.616
X100.584Y-108.331
X103.124Y-102.616
X103.124Y-108.331
X110.236Y-102.616
X110.299Y-108.331
X112.776Y-102.616
X112.84Y-108.331
X118.11Y-124.333
X118.11Y-132.715
X120.65Y-124.333
X120.65Y-132.715
X127.635Y-124.333
X127.635Y-132.715
X130.175Y-124.333
X130.175Y-132.715
X137.16Y-124.333
X137.16Y-132.715
X139.7Y-124.333
X139.7Y-132.715
X146.685Y-124.333
X146.685Y-132.715
X149.225Y-124.333
X149.225Y-132.715
X156.21Y-124.333
X156.21Y-132.715
X158.75Y-124.333
X158.75Y-132.715
X165.735Y-124.333
X165.735Y-132.715
X168.275Y-124.333
X168.275Y-132.715
T6
X122.174Y-92.964
X122.174Y-95.504
X124.714Y-92.964
X124.714Y-95.504
X127.254Y-92.964
X127.254Y-95.504
X129.794Y-92.964
X129.794Y-95.504
X132.334Y-92.964
X132.334Y-95.504
X134.874Y-92.964
X134.874Y-95.504
X137.414Y-92.964
X137.414Y-95.504
X139.954Y-92.964
X139.954Y-95.504
X142.494Y-92.964
X142.494Y-95.504
X145.034Y-92.964
X145.034Y-95.504
X147.574Y-92.964
X147.574Y-95.504
X150.114Y-92.964
X150.114Y-95.504
X152.654Y-92.964
X152.654Y-95.504
X155.194Y-92.964
X155.194Y-95.504
X157.734Y-92.964
X157.734Y-95.504
X160.274Y-92.964
X160.274Y-95.504
X162.814Y-92.964
X162.814Y-95.504
X165.354Y-92.964
X165.354Y-95.504
X167.894Y-92.964
X167.894Y-95.504
X170.434Y-92.964
X170.434Y-95.504
T7
X104.475Y-132.615G85X104.475Y-134.715
G05
X112.349Y-132.615G85X112.349Y-134.715
G05
T0
M30
