M48
; DRILL file {KiCad (6.0.7)} date Mon Mar 20 22:05:23 2023
; FORMAT={-:-/ absolute / metric / decimal}
; #@! TF.CreationDate,2023-03-20T22:05:23-05:00
; #@! TF.GenerationSoftware,Kicad,Pcbnew,(6.0.7)
; #@! TF.FileFunction,NonPlated,1,2,NPTH
FMAT,2
METRIC
; #@! TA.AperFunction,NonPlated,NPTH,ComponentDrill
T1C2.946
; #@! TA.AperFunction,NonPlated,NPTH,ComponentDrill
T2C3.450
%
G90
G05
T1
X90.368Y-95.448
X90.368Y-142.042
X176.332Y-95.448
X176.332Y-142.042
T2
X99.439Y-93.976
X104.267Y-93.98
X109.091Y-93.976
X113.919Y-93.98
X116.967Y-141.351
X121.795Y-141.355
X126.492Y-141.351
X131.32Y-141.355
X136.017Y-141.351
X140.845Y-141.355
X145.542Y-141.351
X150.37Y-141.355
X155.067Y-141.351
X159.895Y-141.355
X164.592Y-141.351
X169.42Y-141.355
T0
M30
