M48
; DRILL file {KiCad (5.1.7)-1} date 11/30/20 19:52:13
; FORMAT={-:-/ absolute / inch / decimal}
; #@! TF.CreationDate,2020-11-30T19:52:13-06:00
; #@! TF.GenerationSoftware,Kicad,Pcbnew,(5.1.7)-1
; #@! TF.FileFunction,Plated,1,2,PTH
FMAT,2
INCH
T1C0.0157
T2C0.0260
T3C0.0315
T4C0.0350
T5C0.0354
T6C0.0362
T7C0.0394
T8C0.0906
%
G90
G05
T1
X35.97Y8.36
X36.0Y8.84
X36.14Y8.36
X36.14Y7.95
X36.24Y8.84
X36.3Y8.71
X36.5619Y8.7719
X36.6Y8.52
X36.97Y8.71
X36.97Y8.71
X37.0481Y8.7719
X37.05Y8.52
X37.6Y8.5
X37.6211Y8.8689
X37.74Y8.82
X37.87Y8.25
X37.93Y8.78
X38.05Y8.65
X38.06Y8.74
X38.55Y8.31
X38.7Y8.9
X38.7Y8.25
X38.95Y8.42
X39.05Y8.5
T3
X35.7716Y9.05
X35.87Y9.05
T4
X37.6Y7.95
X37.6Y7.85
X37.6Y7.75
X36.85Y7.95
X36.85Y7.85
X36.85Y7.75
T5
X38.45Y8.65
X38.55Y8.65
X39.35Y8.65
X39.35Y8.65
X39.45Y8.65
X39.55Y8.65
X39.65Y8.65
X38.35Y9.35
X38.45Y9.35
X38.85Y8.65
X38.95Y8.65
X39.05Y8.65
X38.95Y9.0
X39.05Y9.0
X38.75Y9.35
X38.85Y9.35
X38.95Y9.35
X39.05Y9.35
X39.15Y9.35
X39.25Y9.35
X39.35Y9.35
X39.45Y9.35
X39.55Y9.35
X39.65Y9.35
X39.35Y9.0
X39.35Y9.0
X39.45Y9.0
X39.55Y9.0
X39.65Y9.0
T6
X36.8728Y9.15
X36.9713Y9.15
X37.05Y9.15
X37.1484Y9.15
T7
X36.45Y8.35
X36.45Y8.25
X36.45Y6.65
X36.45Y6.55
X36.55Y8.35
X36.55Y8.25
X36.55Y6.65
X36.55Y6.55
X36.65Y8.35
X36.65Y8.25
X36.65Y6.65
X36.65Y6.55
X36.75Y8.35
X36.75Y8.25
X36.75Y6.65
X36.75Y6.55
X36.85Y8.35
X36.85Y8.25
X36.85Y6.65
X36.85Y6.55
X36.95Y8.35
X36.95Y8.25
X36.95Y6.65
X36.95Y6.55
X37.05Y8.35
X37.05Y8.25
X37.05Y6.65
X37.05Y6.55
X37.15Y8.35
X37.15Y8.25
X37.15Y6.65
X37.15Y6.55
X37.25Y8.35
X37.25Y8.25
X37.25Y6.65
X37.25Y6.55
X37.35Y8.35
X37.35Y8.25
X37.35Y6.65
X37.35Y6.55
X38.95Y8.35
X38.95Y8.25
X38.95Y6.65
X38.95Y6.55
X39.05Y8.35
X39.05Y8.25
X39.05Y6.65
X39.05Y6.55
X39.15Y8.35
X39.15Y8.25
X39.15Y6.65
X39.15Y6.55
X39.25Y8.35
X39.25Y8.25
X39.25Y6.65
X39.25Y6.55
X39.35Y8.35
X39.35Y8.25
X39.35Y6.65
X39.35Y6.55
X39.45Y8.35
X39.45Y8.25
X39.45Y6.65
X39.45Y6.55
X39.55Y8.35
X39.55Y8.25
X39.55Y6.65
X39.55Y6.55
X39.65Y8.35
X39.65Y8.25
X39.65Y6.65
X39.65Y6.55
X39.75Y8.35
X39.75Y8.25
X39.75Y6.65
X39.75Y6.55
X39.85Y8.35
X39.85Y8.25
X39.85Y6.65
X39.85Y6.55
T8
X36.752Y9.2567
X37.2693Y9.2567
T2
G00X38.05Y7.7255
M15
G01X38.05Y7.7745
M16
G05
G00X38.05Y7.2155
M15
G01X38.05Y7.2645
M16
G05
T0
M30
