%TF.GenerationSoftware,KiCad,Pcbnew,(5.1.7)-1*%
%TF.CreationDate,2020-11-30T19:52:10-06:00*%
%TF.ProjectId,2021_Rev1,32303231-5f52-4657-9631-2e6b69636164,rev?*%
%TF.SameCoordinates,Original*%
%TF.FileFunction,Soldermask,Bot*%
%TF.FilePolarity,Negative*%
%FSLAX46Y46*%
G04 Gerber Fmt 4.6, Leading zero omitted, Abs format (unit mm)*
G04 Created by KiCad (PCBNEW (5.1.7)-1) date 2020-11-30 19:52:10*
%MOMM*%
%LPD*%
G01*
G04 APERTURE LIST*
%ADD10C,1.520000*%
%ADD11C,2.946400*%
%ADD12C,2.286000*%
%ADD13O,2.410000X4.820000*%
%ADD14C,1.524000*%
%ADD15C,2.999999*%
%ADD16R,1.600000X1.600000*%
%ADD17C,1.600000*%
%ADD18R,1.200000X0.400000*%
G04 APERTURE END LIST*
D10*
%TO.C,U1*%
X948690000Y212090000D03*
X925830000Y166370000D03*
X928370000Y166370000D03*
X935990000Y166370000D03*
X938530000Y209550000D03*
X933450000Y166370000D03*
X930910000Y166370000D03*
X933450000Y212090000D03*
X928370000Y209550000D03*
X938530000Y166370000D03*
X941070000Y166370000D03*
X928370000Y212090000D03*
X933450000Y209550000D03*
X935990000Y209550000D03*
X948690000Y209550000D03*
X946150000Y209550000D03*
X943610000Y209550000D03*
X941070000Y209550000D03*
X930910000Y209550000D03*
X925830000Y209550000D03*
X946150000Y212090000D03*
X943610000Y212090000D03*
X941070000Y212090000D03*
X938530000Y212090000D03*
X935990000Y212090000D03*
X930910000Y212090000D03*
X925830000Y212090000D03*
X948690000Y168910000D03*
X946150000Y168910000D03*
X943610000Y168910000D03*
X941070000Y168910000D03*
X938530000Y168910000D03*
X935990000Y168910000D03*
X933450000Y168910000D03*
X930910000Y168910000D03*
X928370000Y168910000D03*
X925830000Y168910000D03*
X948690000Y166370000D03*
X946150000Y166370000D03*
X943610000Y166370000D03*
X1012190000Y209550000D03*
X1009650000Y209550000D03*
X1007110000Y209550000D03*
X1004570000Y209550000D03*
X1002030000Y209550000D03*
X999490000Y209550000D03*
X996950000Y209550000D03*
X994410000Y209550000D03*
X991870000Y209550000D03*
X989330000Y209550000D03*
X1012190000Y212090000D03*
X1009650000Y212090000D03*
X1007110000Y212090000D03*
X1004570000Y212090000D03*
X1002030000Y212090000D03*
X999490000Y212090000D03*
X996950000Y212090000D03*
X994410000Y212090000D03*
X991870000Y212090000D03*
X989330000Y212090000D03*
X1012190000Y168910000D03*
X1009650000Y168910000D03*
X1007110000Y168910000D03*
X1004570000Y168910000D03*
X1002030000Y168910000D03*
X999490000Y168910000D03*
X996950000Y168910000D03*
X994410000Y168910000D03*
X991870000Y168910000D03*
X989330000Y168910000D03*
X1012190000Y166370000D03*
X1009650000Y166370000D03*
X1007110000Y166370000D03*
X1004570000Y166370000D03*
X1002030000Y166370000D03*
X999490000Y166370000D03*
X996950000Y166370000D03*
X994410000Y166370000D03*
X991870000Y166370000D03*
X989330000Y166370000D03*
%TD*%
D11*
%TO.C,REF\u002A\u002A*%
X903279880Y240990120D03*
%TD*%
%TO.C,REF\u002A\u002A*%
X903279880Y167949880D03*
%TD*%
%TO.C,REF\u002A\u002A*%
X1019500120Y167949880D03*
%TD*%
%TO.C,REF\u002A\u002A*%
X1019500120Y240990120D03*
%TD*%
%TO.C,R12*%
G36*
G01*
X955310500Y229040500D02*
X955785500Y229040500D01*
G75*
G02*
X956023000Y228803000I0J-237500D01*
G01*
X956023000Y228303000D01*
G75*
G02*
X955785500Y228065500I-237500J0D01*
G01*
X955310500Y228065500D01*
G75*
G02*
X955073000Y228303000I0J237500D01*
G01*
X955073000Y228803000D01*
G75*
G02*
X955310500Y229040500I237500J0D01*
G01*
G37*
G36*
G01*
X955310500Y230865500D02*
X955785500Y230865500D01*
G75*
G02*
X956023000Y230628000I0J-237500D01*
G01*
X956023000Y230128000D01*
G75*
G02*
X955785500Y229890500I-237500J0D01*
G01*
X955310500Y229890500D01*
G75*
G02*
X955073000Y230128000I0J237500D01*
G01*
X955073000Y230628000D01*
G75*
G02*
X955310500Y230865500I237500J0D01*
G01*
G37*
%TD*%
%TO.C,R11*%
G36*
G01*
X958358500Y229040500D02*
X958833500Y229040500D01*
G75*
G02*
X959071000Y228803000I0J-237500D01*
G01*
X959071000Y228303000D01*
G75*
G02*
X958833500Y228065500I-237500J0D01*
G01*
X958358500Y228065500D01*
G75*
G02*
X958121000Y228303000I0J237500D01*
G01*
X958121000Y228803000D01*
G75*
G02*
X958358500Y229040500I237500J0D01*
G01*
G37*
G36*
G01*
X958358500Y230865500D02*
X958833500Y230865500D01*
G75*
G02*
X959071000Y230628000I0J-237500D01*
G01*
X959071000Y230128000D01*
G75*
G02*
X958833500Y229890500I-237500J0D01*
G01*
X958358500Y229890500D01*
G75*
G02*
X958121000Y230128000I0J237500D01*
G01*
X958121000Y230628000D01*
G75*
G02*
X958358500Y230865500I237500J0D01*
G01*
G37*
%TD*%
%TO.C,R10*%
G36*
G01*
X961660500Y229040500D02*
X962135500Y229040500D01*
G75*
G02*
X962373000Y228803000I0J-237500D01*
G01*
X962373000Y228303000D01*
G75*
G02*
X962135500Y228065500I-237500J0D01*
G01*
X961660500Y228065500D01*
G75*
G02*
X961423000Y228303000I0J237500D01*
G01*
X961423000Y228803000D01*
G75*
G02*
X961660500Y229040500I237500J0D01*
G01*
G37*
G36*
G01*
X961660500Y230865500D02*
X962135500Y230865500D01*
G75*
G02*
X962373000Y230628000I0J-237500D01*
G01*
X962373000Y230128000D01*
G75*
G02*
X962135500Y229890500I-237500J0D01*
G01*
X961660500Y229890500D01*
G75*
G02*
X961423000Y230128000I0J237500D01*
G01*
X961423000Y230628000D01*
G75*
G02*
X961660500Y230865500I237500J0D01*
G01*
G37*
%TD*%
%TO.C,R9*%
G36*
G01*
X964708500Y229040500D02*
X965183500Y229040500D01*
G75*
G02*
X965421000Y228803000I0J-237500D01*
G01*
X965421000Y228303000D01*
G75*
G02*
X965183500Y228065500I-237500J0D01*
G01*
X964708500Y228065500D01*
G75*
G02*
X964471000Y228303000I0J237500D01*
G01*
X964471000Y228803000D01*
G75*
G02*
X964708500Y229040500I237500J0D01*
G01*
G37*
G36*
G01*
X964708500Y230865500D02*
X965183500Y230865500D01*
G75*
G02*
X965421000Y230628000I0J-237500D01*
G01*
X965421000Y230128000D01*
G75*
G02*
X965183500Y229890500I-237500J0D01*
G01*
X964708500Y229890500D01*
G75*
G02*
X964471000Y230128000I0J237500D01*
G01*
X964471000Y230628000D01*
G75*
G02*
X964708500Y230865500I237500J0D01*
G01*
G37*
%TD*%
%TO.C,D8*%
G36*
G01*
X955310500Y233217000D02*
X955785500Y233217000D01*
G75*
G02*
X956023000Y232979500I0J-237500D01*
G01*
X956023000Y232404500D01*
G75*
G02*
X955785500Y232167000I-237500J0D01*
G01*
X955310500Y232167000D01*
G75*
G02*
X955073000Y232404500I0J237500D01*
G01*
X955073000Y232979500D01*
G75*
G02*
X955310500Y233217000I237500J0D01*
G01*
G37*
G36*
G01*
X955310500Y234967000D02*
X955785500Y234967000D01*
G75*
G02*
X956023000Y234729500I0J-237500D01*
G01*
X956023000Y234154500D01*
G75*
G02*
X955785500Y233917000I-237500J0D01*
G01*
X955310500Y233917000D01*
G75*
G02*
X955073000Y234154500I0J237500D01*
G01*
X955073000Y234729500D01*
G75*
G02*
X955310500Y234967000I237500J0D01*
G01*
G37*
%TD*%
%TO.C,D7*%
G36*
G01*
X958358500Y233217000D02*
X958833500Y233217000D01*
G75*
G02*
X959071000Y232979500I0J-237500D01*
G01*
X959071000Y232404500D01*
G75*
G02*
X958833500Y232167000I-237500J0D01*
G01*
X958358500Y232167000D01*
G75*
G02*
X958121000Y232404500I0J237500D01*
G01*
X958121000Y232979500D01*
G75*
G02*
X958358500Y233217000I237500J0D01*
G01*
G37*
G36*
G01*
X958358500Y234967000D02*
X958833500Y234967000D01*
G75*
G02*
X959071000Y234729500I0J-237500D01*
G01*
X959071000Y234154500D01*
G75*
G02*
X958833500Y233917000I-237500J0D01*
G01*
X958358500Y233917000D01*
G75*
G02*
X958121000Y234154500I0J237500D01*
G01*
X958121000Y234729500D01*
G75*
G02*
X958358500Y234967000I237500J0D01*
G01*
G37*
%TD*%
%TO.C,D6*%
G36*
G01*
X961660500Y233189000D02*
X962135500Y233189000D01*
G75*
G02*
X962373000Y232951500I0J-237500D01*
G01*
X962373000Y232376500D01*
G75*
G02*
X962135500Y232139000I-237500J0D01*
G01*
X961660500Y232139000D01*
G75*
G02*
X961423000Y232376500I0J237500D01*
G01*
X961423000Y232951500D01*
G75*
G02*
X961660500Y233189000I237500J0D01*
G01*
G37*
G36*
G01*
X961660500Y234939000D02*
X962135500Y234939000D01*
G75*
G02*
X962373000Y234701500I0J-237500D01*
G01*
X962373000Y234126500D01*
G75*
G02*
X962135500Y233889000I-237500J0D01*
G01*
X961660500Y233889000D01*
G75*
G02*
X961423000Y234126500I0J237500D01*
G01*
X961423000Y234701500D01*
G75*
G02*
X961660500Y234939000I237500J0D01*
G01*
G37*
%TD*%
%TO.C,D5*%
G36*
G01*
X964708500Y233217000D02*
X965183500Y233217000D01*
G75*
G02*
X965421000Y232979500I0J-237500D01*
G01*
X965421000Y232404500D01*
G75*
G02*
X965183500Y232167000I-237500J0D01*
G01*
X964708500Y232167000D01*
G75*
G02*
X964471000Y232404500I0J237500D01*
G01*
X964471000Y232979500D01*
G75*
G02*
X964708500Y233217000I237500J0D01*
G01*
G37*
G36*
G01*
X964708500Y234967000D02*
X965183500Y234967000D01*
G75*
G02*
X965421000Y234729500I0J-237500D01*
G01*
X965421000Y234154500D01*
G75*
G02*
X965183500Y233917000I-237500J0D01*
G01*
X964708500Y233917000D01*
G75*
G02*
X964471000Y234154500I0J237500D01*
G01*
X964471000Y234729500D01*
G75*
G02*
X964708500Y234967000I237500J0D01*
G01*
G37*
%TD*%
%TO.C,D4*%
G36*
G01*
X964708500Y224327000D02*
X965183500Y224327000D01*
G75*
G02*
X965421000Y224089500I0J-237500D01*
G01*
X965421000Y223514500D01*
G75*
G02*
X965183500Y223277000I-237500J0D01*
G01*
X964708500Y223277000D01*
G75*
G02*
X964471000Y223514500I0J237500D01*
G01*
X964471000Y224089500D01*
G75*
G02*
X964708500Y224327000I237500J0D01*
G01*
G37*
G36*
G01*
X964708500Y226077000D02*
X965183500Y226077000D01*
G75*
G02*
X965421000Y225839500I0J-237500D01*
G01*
X965421000Y225264500D01*
G75*
G02*
X965183500Y225027000I-237500J0D01*
G01*
X964708500Y225027000D01*
G75*
G02*
X964471000Y225264500I0J237500D01*
G01*
X964471000Y225839500D01*
G75*
G02*
X964708500Y226077000I237500J0D01*
G01*
G37*
%TD*%
%TO.C,D3*%
G36*
G01*
X961660500Y224327000D02*
X962135500Y224327000D01*
G75*
G02*
X962373000Y224089500I0J-237500D01*
G01*
X962373000Y223514500D01*
G75*
G02*
X962135500Y223277000I-237500J0D01*
G01*
X961660500Y223277000D01*
G75*
G02*
X961423000Y223514500I0J237500D01*
G01*
X961423000Y224089500D01*
G75*
G02*
X961660500Y224327000I237500J0D01*
G01*
G37*
G36*
G01*
X961660500Y226077000D02*
X962135500Y226077000D01*
G75*
G02*
X962373000Y225839500I0J-237500D01*
G01*
X962373000Y225264500D01*
G75*
G02*
X962135500Y225027000I-237500J0D01*
G01*
X961660500Y225027000D01*
G75*
G02*
X961423000Y225264500I0J237500D01*
G01*
X961423000Y225839500D01*
G75*
G02*
X961660500Y226077000I237500J0D01*
G01*
G37*
%TD*%
D12*
%TO.C,BT1*%
X992251000Y179095400D03*
X1005636800Y201599800D03*
X978763600Y201599800D03*
D13*
X966470000Y183896000D03*
X966470000Y196850000D03*
%TD*%
%TO.C,C1*%
G36*
G01*
X954802500Y192307500D02*
X955277500Y192307500D01*
G75*
G02*
X955515000Y192070000I0J-237500D01*
G01*
X955515000Y191470000D01*
G75*
G02*
X955277500Y191232500I-237500J0D01*
G01*
X954802500Y191232500D01*
G75*
G02*
X954565000Y191470000I0J237500D01*
G01*
X954565000Y192070000D01*
G75*
G02*
X954802500Y192307500I237500J0D01*
G01*
G37*
G36*
G01*
X954802500Y190582500D02*
X955277500Y190582500D01*
G75*
G02*
X955515000Y190345000I0J-237500D01*
G01*
X955515000Y189745000D01*
G75*
G02*
X955277500Y189507500I-237500J0D01*
G01*
X954802500Y189507500D01*
G75*
G02*
X954565000Y189745000I0J237500D01*
G01*
X954565000Y190345000D01*
G75*
G02*
X954802500Y190582500I237500J0D01*
G01*
G37*
%TD*%
%TO.C,C2*%
G36*
G01*
X953852500Y207247500D02*
X953852500Y206772500D01*
G75*
G02*
X953615000Y206535000I-237500J0D01*
G01*
X953015000Y206535000D01*
G75*
G02*
X952777500Y206772500I0J237500D01*
G01*
X952777500Y207247500D01*
G75*
G02*
X953015000Y207485000I237500J0D01*
G01*
X953615000Y207485000D01*
G75*
G02*
X953852500Y207247500I0J-237500D01*
G01*
G37*
G36*
G01*
X955577500Y207247500D02*
X955577500Y206772500D01*
G75*
G02*
X955340000Y206535000I-237500J0D01*
G01*
X954740000Y206535000D01*
G75*
G02*
X954502500Y206772500I0J237500D01*
G01*
X954502500Y207247500D01*
G75*
G02*
X954740000Y207485000I237500J0D01*
G01*
X955340000Y207485000D01*
G75*
G02*
X955577500Y207247500I0J-237500D01*
G01*
G37*
%TD*%
%TO.C,C3*%
G36*
G01*
X935752500Y190582500D02*
X936227500Y190582500D01*
G75*
G02*
X936465000Y190345000I0J-237500D01*
G01*
X936465000Y189745000D01*
G75*
G02*
X936227500Y189507500I-237500J0D01*
G01*
X935752500Y189507500D01*
G75*
G02*
X935515000Y189745000I0J237500D01*
G01*
X935515000Y190345000D01*
G75*
G02*
X935752500Y190582500I237500J0D01*
G01*
G37*
G36*
G01*
X935752500Y192307500D02*
X936227500Y192307500D01*
G75*
G02*
X936465000Y192070000I0J-237500D01*
G01*
X936465000Y191470000D01*
G75*
G02*
X936227500Y191232500I-237500J0D01*
G01*
X935752500Y191232500D01*
G75*
G02*
X935515000Y191470000I0J237500D01*
G01*
X935515000Y192070000D01*
G75*
G02*
X935752500Y192307500I237500J0D01*
G01*
G37*
%TD*%
%TO.C,C4*%
G36*
G01*
X936527500Y207247500D02*
X936527500Y206772500D01*
G75*
G02*
X936290000Y206535000I-237500J0D01*
G01*
X935690000Y206535000D01*
G75*
G02*
X935452500Y206772500I0J237500D01*
G01*
X935452500Y207247500D01*
G75*
G02*
X935690000Y207485000I237500J0D01*
G01*
X936290000Y207485000D01*
G75*
G02*
X936527500Y207247500I0J-237500D01*
G01*
G37*
G36*
G01*
X934802500Y207247500D02*
X934802500Y206772500D01*
G75*
G02*
X934565000Y206535000I-237500J0D01*
G01*
X933965000Y206535000D01*
G75*
G02*
X933727500Y206772500I0J237500D01*
G01*
X933727500Y207247500D01*
G75*
G02*
X933965000Y207485000I237500J0D01*
G01*
X934565000Y207485000D01*
G75*
G02*
X934802500Y207247500I0J-237500D01*
G01*
G37*
%TD*%
%TO.C,C5*%
G36*
G01*
X939575500Y229853500D02*
X939575500Y229378500D01*
G75*
G02*
X939338000Y229141000I-237500J0D01*
G01*
X938738000Y229141000D01*
G75*
G02*
X938500500Y229378500I0J237500D01*
G01*
X938500500Y229853500D01*
G75*
G02*
X938738000Y230091000I237500J0D01*
G01*
X939338000Y230091000D01*
G75*
G02*
X939575500Y229853500I0J-237500D01*
G01*
G37*
G36*
G01*
X937850500Y229853500D02*
X937850500Y229378500D01*
G75*
G02*
X937613000Y229141000I-237500J0D01*
G01*
X937013000Y229141000D01*
G75*
G02*
X936775500Y229378500I0J237500D01*
G01*
X936775500Y229853500D01*
G75*
G02*
X937013000Y230091000I237500J0D01*
G01*
X937613000Y230091000D01*
G75*
G02*
X937850500Y229853500I0J-237500D01*
G01*
G37*
%TD*%
%TO.C,C6*%
G36*
G01*
X942257500Y229378500D02*
X942257500Y229853500D01*
G75*
G02*
X942495000Y230091000I237500J0D01*
G01*
X943095000Y230091000D01*
G75*
G02*
X943332500Y229853500I0J-237500D01*
G01*
X943332500Y229378500D01*
G75*
G02*
X943095000Y229141000I-237500J0D01*
G01*
X942495000Y229141000D01*
G75*
G02*
X942257500Y229378500I0J237500D01*
G01*
G37*
G36*
G01*
X940532500Y229378500D02*
X940532500Y229853500D01*
G75*
G02*
X940770000Y230091000I237500J0D01*
G01*
X941370000Y230091000D01*
G75*
G02*
X941607500Y229853500I0J-237500D01*
G01*
X941607500Y229378500D01*
G75*
G02*
X941370000Y229141000I-237500J0D01*
G01*
X940770000Y229141000D01*
G75*
G02*
X940532500Y229378500I0J237500D01*
G01*
G37*
%TD*%
%TO.C,C7*%
G36*
G01*
X919255500Y223503500D02*
X919255500Y223028500D01*
G75*
G02*
X919018000Y222791000I-237500J0D01*
G01*
X918418000Y222791000D01*
G75*
G02*
X918180500Y223028500I0J237500D01*
G01*
X918180500Y223503500D01*
G75*
G02*
X918418000Y223741000I237500J0D01*
G01*
X919018000Y223741000D01*
G75*
G02*
X919255500Y223503500I0J-237500D01*
G01*
G37*
G36*
G01*
X917530500Y223503500D02*
X917530500Y223028500D01*
G75*
G02*
X917293000Y222791000I-237500J0D01*
G01*
X916693000Y222791000D01*
G75*
G02*
X916455500Y223028500I0J237500D01*
G01*
X916455500Y223503500D01*
G75*
G02*
X916693000Y223741000I237500J0D01*
G01*
X917293000Y223741000D01*
G75*
G02*
X917530500Y223503500I0J-237500D01*
G01*
G37*
%TD*%
D14*
%TO.C,Conn2*%
X1007110000Y219710000D03*
X1004570000Y219710000D03*
X1002030000Y219710000D03*
X999490000Y219710000D03*
X999490000Y219710000D03*
%TD*%
%TO.C,Conn3*%
X999490000Y228600000D03*
X999490000Y228600000D03*
X1002030000Y228600000D03*
X1004570000Y228600000D03*
X1007110000Y228600000D03*
%TD*%
%TO.C,Conn4*%
X989330000Y228600000D03*
X991870000Y228600000D03*
%TD*%
%TO.C,Conn5*%
X979170000Y219710000D03*
X976630000Y219710000D03*
%TD*%
%TO.C,Conn6*%
X1007110000Y237490000D03*
X1004570000Y237490000D03*
X1002030000Y237490000D03*
X999490000Y237490000D03*
X996950000Y237490000D03*
X994410000Y237490000D03*
X991870000Y237490000D03*
X989330000Y237490000D03*
X986790000Y237490000D03*
X984250000Y237490000D03*
%TD*%
%TO.C,Conn7*%
X976630000Y237490000D03*
X974090000Y237490000D03*
%TD*%
%TO.C,Conn8*%
X991870000Y219710000D03*
X989330000Y219710000D03*
X986790000Y219710000D03*
%TD*%
%TO.C,D1*%
G36*
G01*
X934449000Y217948500D02*
X934449000Y218423500D01*
G75*
G02*
X934686500Y218661000I237500J0D01*
G01*
X935261500Y218661000D01*
G75*
G02*
X935499000Y218423500I0J-237500D01*
G01*
X935499000Y217948500D01*
G75*
G02*
X935261500Y217711000I-237500J0D01*
G01*
X934686500Y217711000D01*
G75*
G02*
X934449000Y217948500I0J237500D01*
G01*
G37*
G36*
G01*
X932699000Y217948500D02*
X932699000Y218423500D01*
G75*
G02*
X932936500Y218661000I237500J0D01*
G01*
X933511500Y218661000D01*
G75*
G02*
X933749000Y218423500I0J-237500D01*
G01*
X933749000Y217948500D01*
G75*
G02*
X933511500Y217711000I-237500J0D01*
G01*
X932936500Y217711000D01*
G75*
G02*
X932699000Y217948500I0J237500D01*
G01*
G37*
%TD*%
%TO.C,D2*%
G36*
G01*
X932699000Y215154500D02*
X932699000Y215629500D01*
G75*
G02*
X932936500Y215867000I237500J0D01*
G01*
X933511500Y215867000D01*
G75*
G02*
X933749000Y215629500I0J-237500D01*
G01*
X933749000Y215154500D01*
G75*
G02*
X933511500Y214917000I-237500J0D01*
G01*
X932936500Y214917000D01*
G75*
G02*
X932699000Y215154500I0J237500D01*
G01*
G37*
G36*
G01*
X934449000Y215154500D02*
X934449000Y215629500D01*
G75*
G02*
X934686500Y215867000I237500J0D01*
G01*
X935261500Y215867000D01*
G75*
G02*
X935499000Y215629500I0J-237500D01*
G01*
X935499000Y215154500D01*
G75*
G02*
X935261500Y214917000I-237500J0D01*
G01*
X934686500Y214917000D01*
G75*
G02*
X934449000Y215154500I0J237500D01*
G01*
G37*
%TD*%
D15*
%TO.C,J1*%
X946640000Y235120000D03*
X933500000Y235120000D03*
D16*
X936570000Y232410000D03*
D17*
X939070000Y232410000D03*
X941070000Y232410000D03*
X943570000Y232410000D03*
%TD*%
%TO.C,R1*%
G36*
G01*
X939275500Y225271500D02*
X938800500Y225271500D01*
G75*
G02*
X938563000Y225509000I0J237500D01*
G01*
X938563000Y226009000D01*
G75*
G02*
X938800500Y226246500I237500J0D01*
G01*
X939275500Y226246500D01*
G75*
G02*
X939513000Y226009000I0J-237500D01*
G01*
X939513000Y225509000D01*
G75*
G02*
X939275500Y225271500I-237500J0D01*
G01*
G37*
G36*
G01*
X939275500Y227096500D02*
X938800500Y227096500D01*
G75*
G02*
X938563000Y227334000I0J237500D01*
G01*
X938563000Y227834000D01*
G75*
G02*
X938800500Y228071500I237500J0D01*
G01*
X939275500Y228071500D01*
G75*
G02*
X939513000Y227834000I0J-237500D01*
G01*
X939513000Y227334000D01*
G75*
G02*
X939275500Y227096500I-237500J0D01*
G01*
G37*
%TD*%
%TO.C,R2*%
G36*
G01*
X941260500Y227096500D02*
X940785500Y227096500D01*
G75*
G02*
X940548000Y227334000I0J237500D01*
G01*
X940548000Y227834000D01*
G75*
G02*
X940785500Y228071500I237500J0D01*
G01*
X941260500Y228071500D01*
G75*
G02*
X941498000Y227834000I0J-237500D01*
G01*
X941498000Y227334000D01*
G75*
G02*
X941260500Y227096500I-237500J0D01*
G01*
G37*
G36*
G01*
X941260500Y225271500D02*
X940785500Y225271500D01*
G75*
G02*
X940548000Y225509000I0J237500D01*
G01*
X940548000Y226009000D01*
G75*
G02*
X940785500Y226246500I237500J0D01*
G01*
X941260500Y226246500D01*
G75*
G02*
X941498000Y226009000I0J-237500D01*
G01*
X941498000Y225509000D01*
G75*
G02*
X941260500Y225271500I-237500J0D01*
G01*
G37*
%TD*%
%TO.C,R3*%
G36*
G01*
X918277500Y226838500D02*
X918277500Y227313500D01*
G75*
G02*
X918515000Y227551000I237500J0D01*
G01*
X919015000Y227551000D01*
G75*
G02*
X919252500Y227313500I0J-237500D01*
G01*
X919252500Y226838500D01*
G75*
G02*
X919015000Y226601000I-237500J0D01*
G01*
X918515000Y226601000D01*
G75*
G02*
X918277500Y226838500I0J237500D01*
G01*
G37*
G36*
G01*
X916452500Y226838500D02*
X916452500Y227313500D01*
G75*
G02*
X916690000Y227551000I237500J0D01*
G01*
X917190000Y227551000D01*
G75*
G02*
X917427500Y227313500I0J-237500D01*
G01*
X917427500Y226838500D01*
G75*
G02*
X917190000Y226601000I-237500J0D01*
G01*
X916690000Y226601000D01*
G75*
G02*
X916452500Y226838500I0J237500D01*
G01*
G37*
%TD*%
%TO.C,R4*%
G36*
G01*
X919252500Y229091500D02*
X919252500Y228616500D01*
G75*
G02*
X919015000Y228379000I-237500J0D01*
G01*
X918515000Y228379000D01*
G75*
G02*
X918277500Y228616500I0J237500D01*
G01*
X918277500Y229091500D01*
G75*
G02*
X918515000Y229329000I237500J0D01*
G01*
X919015000Y229329000D01*
G75*
G02*
X919252500Y229091500I0J-237500D01*
G01*
G37*
G36*
G01*
X917427500Y229091500D02*
X917427500Y228616500D01*
G75*
G02*
X917190000Y228379000I-237500J0D01*
G01*
X916690000Y228379000D01*
G75*
G02*
X916452500Y228616500I0J237500D01*
G01*
X916452500Y229091500D01*
G75*
G02*
X916690000Y229329000I237500J0D01*
G01*
X917190000Y229329000D01*
G75*
G02*
X917427500Y229091500I0J-237500D01*
G01*
G37*
%TD*%
%TO.C,R5*%
G36*
G01*
X940629500Y217948500D02*
X940629500Y218423500D01*
G75*
G02*
X940867000Y218661000I237500J0D01*
G01*
X941367000Y218661000D01*
G75*
G02*
X941604500Y218423500I0J-237500D01*
G01*
X941604500Y217948500D01*
G75*
G02*
X941367000Y217711000I-237500J0D01*
G01*
X940867000Y217711000D01*
G75*
G02*
X940629500Y217948500I0J237500D01*
G01*
G37*
G36*
G01*
X938804500Y217948500D02*
X938804500Y218423500D01*
G75*
G02*
X939042000Y218661000I237500J0D01*
G01*
X939542000Y218661000D01*
G75*
G02*
X939779500Y218423500I0J-237500D01*
G01*
X939779500Y217948500D01*
G75*
G02*
X939542000Y217711000I-237500J0D01*
G01*
X939042000Y217711000D01*
G75*
G02*
X938804500Y217948500I0J237500D01*
G01*
G37*
%TD*%
%TO.C,R6*%
G36*
G01*
X938757500Y215154500D02*
X938757500Y215629500D01*
G75*
G02*
X938995000Y215867000I237500J0D01*
G01*
X939495000Y215867000D01*
G75*
G02*
X939732500Y215629500I0J-237500D01*
G01*
X939732500Y215154500D01*
G75*
G02*
X939495000Y214917000I-237500J0D01*
G01*
X938995000Y214917000D01*
G75*
G02*
X938757500Y215154500I0J237500D01*
G01*
G37*
G36*
G01*
X940582500Y215154500D02*
X940582500Y215629500D01*
G75*
G02*
X940820000Y215867000I237500J0D01*
G01*
X941320000Y215867000D01*
G75*
G02*
X941557500Y215629500I0J-237500D01*
G01*
X941557500Y215154500D01*
G75*
G02*
X941320000Y214917000I-237500J0D01*
G01*
X940820000Y214917000D01*
G75*
G02*
X940582500Y215154500I0J237500D01*
G01*
G37*
%TD*%
D14*
%TO.C,U2*%
X955040000Y201930000D03*
X955040000Y199390000D03*
X955040000Y196850000D03*
%TD*%
%TO.C,U3*%
X935990000Y196850000D03*
X935990000Y199390000D03*
X935990000Y201930000D03*
%TD*%
D18*
%TO.C,U4*%
X927220000Y227012500D03*
X927220000Y226377500D03*
X927220000Y225742500D03*
X927220000Y225107500D03*
X927220000Y224472500D03*
X927220000Y223837500D03*
X927220000Y223202500D03*
X927220000Y222567500D03*
X922020000Y222567500D03*
X922020000Y223202500D03*
X922020000Y223837500D03*
X922020000Y224472500D03*
X922020000Y225107500D03*
X922020000Y225742500D03*
X922020000Y226377500D03*
X922020000Y227012500D03*
%TD*%
%TO.C,100nF1*%
G36*
G01*
X911582500Y223503500D02*
X911582500Y223028500D01*
G75*
G02*
X911345000Y222791000I-237500J0D01*
G01*
X910745000Y222791000D01*
G75*
G02*
X910507500Y223028500I0J237500D01*
G01*
X910507500Y223503500D01*
G75*
G02*
X910745000Y223741000I237500J0D01*
G01*
X911345000Y223741000D01*
G75*
G02*
X911582500Y223503500I0J-237500D01*
G01*
G37*
G36*
G01*
X909857500Y223503500D02*
X909857500Y223028500D01*
G75*
G02*
X909620000Y222791000I-237500J0D01*
G01*
X909020000Y222791000D01*
G75*
G02*
X908782500Y223028500I0J237500D01*
G01*
X908782500Y223503500D01*
G75*
G02*
X909020000Y223741000I237500J0D01*
G01*
X909620000Y223741000D01*
G75*
G02*
X909857500Y223503500I0J-237500D01*
G01*
G37*
%TD*%
D16*
%TO.C,4.7uF1*%
X911098000Y229870000D03*
D17*
X908598000Y229870000D03*
%TD*%
%TO.C,FB1*%
G36*
G01*
X930852001Y229810000D02*
X929951999Y229810000D01*
G75*
G02*
X929702000Y230059999I0J249999D01*
G01*
X929702000Y230760001D01*
G75*
G02*
X929951999Y231010000I249999J0D01*
G01*
X930852001Y231010000D01*
G75*
G02*
X931102000Y230760001I0J-249999D01*
G01*
X931102000Y230059999D01*
G75*
G02*
X930852001Y229810000I-249999J0D01*
G01*
G37*
G36*
G01*
X930852001Y231810000D02*
X929951999Y231810000D01*
G75*
G02*
X929702000Y232059999I0J249999D01*
G01*
X929702000Y232760001D01*
G75*
G02*
X929951999Y233010000I249999J0D01*
G01*
X930852001Y233010000D01*
G75*
G02*
X931102000Y232760001I0J-249999D01*
G01*
X931102000Y232059999D01*
G75*
G02*
X930852001Y231810000I-249999J0D01*
G01*
G37*
%TD*%
%TO.C,R7*%
G36*
G01*
X964708500Y222022500D02*
X965183500Y222022500D01*
G75*
G02*
X965421000Y221785000I0J-237500D01*
G01*
X965421000Y221285000D01*
G75*
G02*
X965183500Y221047500I-237500J0D01*
G01*
X964708500Y221047500D01*
G75*
G02*
X964471000Y221285000I0J237500D01*
G01*
X964471000Y221785000D01*
G75*
G02*
X964708500Y222022500I237500J0D01*
G01*
G37*
G36*
G01*
X964708500Y220197500D02*
X965183500Y220197500D01*
G75*
G02*
X965421000Y219960000I0J-237500D01*
G01*
X965421000Y219460000D01*
G75*
G02*
X965183500Y219222500I-237500J0D01*
G01*
X964708500Y219222500D01*
G75*
G02*
X964471000Y219460000I0J237500D01*
G01*
X964471000Y219960000D01*
G75*
G02*
X964708500Y220197500I237500J0D01*
G01*
G37*
%TD*%
%TO.C,R8*%
G36*
G01*
X961660500Y220197500D02*
X962135500Y220197500D01*
G75*
G02*
X962373000Y219960000I0J-237500D01*
G01*
X962373000Y219460000D01*
G75*
G02*
X962135500Y219222500I-237500J0D01*
G01*
X961660500Y219222500D01*
G75*
G02*
X961423000Y219460000I0J237500D01*
G01*
X961423000Y219960000D01*
G75*
G02*
X961660500Y220197500I237500J0D01*
G01*
G37*
G36*
G01*
X961660500Y222022500D02*
X962135500Y222022500D01*
G75*
G02*
X962373000Y221785000I0J-237500D01*
G01*
X962373000Y221285000D01*
G75*
G02*
X962135500Y221047500I-237500J0D01*
G01*
X961660500Y221047500D01*
G75*
G02*
X961423000Y221285000I0J237500D01*
G01*
X961423000Y221785000D01*
G75*
G02*
X961660500Y222022500I237500J0D01*
G01*
G37*
%TD*%
M02*
