M48
; DRILL file {KiCad (5.1.7)-1} date 11/30/20 14:41:29
; FORMAT={-:-/ absolute / inch / decimal}
; #@! TF.CreationDate,2020-11-30T14:41:29-06:00
; #@! TF.GenerationSoftware,Kicad,Pcbnew,(5.1.7)-1
; #@! TF.FileFunction,Plated,1,2,PTH
FMAT,2
INCH
T1C0.0157
T2C0.0260
T3C0.0315
T4C0.0350
T5C0.0354
T6C0.0362
T7C0.0394
T8C0.0906
%
G90
G05
T1
X36.55Y8.5
X36.65Y8.42
X36.9Y8.9
X36.9Y8.25
X37.05Y8.31
X37.54Y8.74
X37.55Y8.65
X37.67Y8.78
X37.73Y8.25
X37.86Y8.82
X37.9789Y8.8689
X38.0Y8.5
X38.55Y8.52
X38.5519Y8.7719
X38.63Y8.71
X38.63Y8.71
X39.0Y8.52
X39.0381Y8.7719
X39.3Y8.71
X39.36Y8.84
X39.46Y8.36
X39.46Y7.95
X39.6Y8.84
X39.63Y8.36
T3
X39.73Y9.05
X39.8284Y9.05
T4
X38.75Y7.95
X38.75Y7.85
X38.75Y7.75
X38.0Y7.95
X38.0Y7.85
X38.0Y7.75
T5
X36.55Y8.65
X36.65Y8.65
X36.75Y8.65
X35.95Y9.35
X36.05Y9.35
X36.15Y9.35
X36.25Y9.35
X36.35Y9.35
X36.45Y9.35
X36.55Y9.35
X36.65Y9.35
X36.75Y9.35
X36.85Y9.35
X37.05Y8.65
X37.15Y8.65
X35.95Y8.65
X36.05Y8.65
X36.15Y8.65
X36.25Y8.65
X36.25Y8.65
X35.95Y9.0
X36.05Y9.0
X36.15Y9.0
X36.25Y9.0
X36.25Y9.0
X36.55Y9.0
X36.65Y9.0
X37.15Y9.35
X37.25Y9.35
T6
X38.4516Y9.15
X38.55Y9.15
X38.6287Y9.15
X38.7272Y9.15
T7
X35.75Y8.35
X35.75Y8.25
X35.75Y6.65
X35.75Y6.55
X35.85Y8.35
X35.85Y8.25
X35.85Y6.65
X35.85Y6.55
X35.95Y8.35
X35.95Y8.25
X35.95Y6.65
X35.95Y6.55
X36.05Y8.35
X36.05Y8.25
X36.05Y6.65
X36.05Y6.55
X36.15Y8.35
X36.15Y8.25
X36.15Y6.65
X36.15Y6.55
X36.25Y8.35
X36.25Y8.25
X36.25Y6.65
X36.25Y6.55
X36.35Y8.35
X36.35Y8.25
X36.35Y6.65
X36.35Y6.55
X36.45Y8.35
X36.45Y8.25
X36.45Y6.65
X36.45Y6.55
X36.55Y8.35
X36.55Y8.25
X36.55Y6.65
X36.55Y6.55
X36.65Y8.35
X36.65Y8.25
X36.65Y6.65
X36.65Y6.55
X38.25Y8.35
X38.25Y8.25
X38.25Y6.65
X38.25Y6.55
X38.35Y8.35
X38.35Y8.25
X38.35Y6.65
X38.35Y6.55
X38.45Y8.35
X38.45Y8.25
X38.45Y6.65
X38.45Y6.55
X38.55Y8.35
X38.55Y8.25
X38.55Y6.65
X38.55Y6.55
X38.65Y8.35
X38.65Y8.25
X38.65Y6.65
X38.65Y6.55
X38.75Y8.35
X38.75Y8.25
X38.75Y6.65
X38.75Y6.55
X38.85Y8.35
X38.85Y8.25
X38.85Y6.65
X38.85Y6.55
X38.95Y8.35
X38.95Y8.25
X38.95Y6.65
X38.95Y6.55
X39.05Y8.35
X39.05Y8.25
X39.05Y6.65
X39.05Y6.55
X39.15Y8.35
X39.15Y8.25
X39.15Y6.65
X39.15Y6.55
T8
X38.3307Y9.2567
X38.848Y9.2567
T2
G00X37.55Y7.7745
M15
G01X37.55Y7.7255
M16
G05
G00X37.55Y7.2645
M15
G01X37.55Y7.2155
M16
G05
T0
M30
