%TF.GenerationSoftware,KiCad,Pcbnew,(5.1.7)-1*%
%TF.CreationDate,2020-11-29T15:53:39-06:00*%
%TF.ProjectId,2021_Rev1,32303231-5f52-4657-9631-2e6b69636164,rev?*%
%TF.SameCoordinates,Original*%
%TF.FileFunction,Paste,Top*%
%TF.FilePolarity,Positive*%
%FSLAX46Y46*%
G04 Gerber Fmt 4.6, Leading zero omitted, Abs format (unit mm)*
G04 Created by KiCad (PCBNEW (5.1.7)-1) date 2020-11-29 15:53:39*
%MOMM*%
%LPD*%
G01*
G04 APERTURE LIST*
%ADD10R,1.200000X0.400000*%
G04 APERTURE END LIST*
%TO.C,R12*%
G36*
G01*
X964454500Y229040500D02*
X964929500Y229040500D01*
G75*
G02*
X965167000Y228803000I0J-237500D01*
G01*
X965167000Y228303000D01*
G75*
G02*
X964929500Y228065500I-237500J0D01*
G01*
X964454500Y228065500D01*
G75*
G02*
X964217000Y228303000I0J237500D01*
G01*
X964217000Y228803000D01*
G75*
G02*
X964454500Y229040500I237500J0D01*
G01*
G37*
G36*
G01*
X964454500Y230865500D02*
X964929500Y230865500D01*
G75*
G02*
X965167000Y230628000I0J-237500D01*
G01*
X965167000Y230128000D01*
G75*
G02*
X964929500Y229890500I-237500J0D01*
G01*
X964454500Y229890500D01*
G75*
G02*
X964217000Y230128000I0J237500D01*
G01*
X964217000Y230628000D01*
G75*
G02*
X964454500Y230865500I237500J0D01*
G01*
G37*
%TD*%
%TO.C,R11*%
G36*
G01*
X961406500Y229040500D02*
X961881500Y229040500D01*
G75*
G02*
X962119000Y228803000I0J-237500D01*
G01*
X962119000Y228303000D01*
G75*
G02*
X961881500Y228065500I-237500J0D01*
G01*
X961406500Y228065500D01*
G75*
G02*
X961169000Y228303000I0J237500D01*
G01*
X961169000Y228803000D01*
G75*
G02*
X961406500Y229040500I237500J0D01*
G01*
G37*
G36*
G01*
X961406500Y230865500D02*
X961881500Y230865500D01*
G75*
G02*
X962119000Y230628000I0J-237500D01*
G01*
X962119000Y230128000D01*
G75*
G02*
X961881500Y229890500I-237500J0D01*
G01*
X961406500Y229890500D01*
G75*
G02*
X961169000Y230128000I0J237500D01*
G01*
X961169000Y230628000D01*
G75*
G02*
X961406500Y230865500I237500J0D01*
G01*
G37*
%TD*%
%TO.C,R10*%
G36*
G01*
X958104500Y229040500D02*
X958579500Y229040500D01*
G75*
G02*
X958817000Y228803000I0J-237500D01*
G01*
X958817000Y228303000D01*
G75*
G02*
X958579500Y228065500I-237500J0D01*
G01*
X958104500Y228065500D01*
G75*
G02*
X957867000Y228303000I0J237500D01*
G01*
X957867000Y228803000D01*
G75*
G02*
X958104500Y229040500I237500J0D01*
G01*
G37*
G36*
G01*
X958104500Y230865500D02*
X958579500Y230865500D01*
G75*
G02*
X958817000Y230628000I0J-237500D01*
G01*
X958817000Y230128000D01*
G75*
G02*
X958579500Y229890500I-237500J0D01*
G01*
X958104500Y229890500D01*
G75*
G02*
X957867000Y230128000I0J237500D01*
G01*
X957867000Y230628000D01*
G75*
G02*
X958104500Y230865500I237500J0D01*
G01*
G37*
%TD*%
%TO.C,R9*%
G36*
G01*
X955056500Y229040500D02*
X955531500Y229040500D01*
G75*
G02*
X955769000Y228803000I0J-237500D01*
G01*
X955769000Y228303000D01*
G75*
G02*
X955531500Y228065500I-237500J0D01*
G01*
X955056500Y228065500D01*
G75*
G02*
X954819000Y228303000I0J237500D01*
G01*
X954819000Y228803000D01*
G75*
G02*
X955056500Y229040500I237500J0D01*
G01*
G37*
G36*
G01*
X955056500Y230865500D02*
X955531500Y230865500D01*
G75*
G02*
X955769000Y230628000I0J-237500D01*
G01*
X955769000Y230128000D01*
G75*
G02*
X955531500Y229890500I-237500J0D01*
G01*
X955056500Y229890500D01*
G75*
G02*
X954819000Y230128000I0J237500D01*
G01*
X954819000Y230628000D01*
G75*
G02*
X955056500Y230865500I237500J0D01*
G01*
G37*
%TD*%
%TO.C,D8*%
G36*
G01*
X964454500Y233217000D02*
X964929500Y233217000D01*
G75*
G02*
X965167000Y232979500I0J-237500D01*
G01*
X965167000Y232404500D01*
G75*
G02*
X964929500Y232167000I-237500J0D01*
G01*
X964454500Y232167000D01*
G75*
G02*
X964217000Y232404500I0J237500D01*
G01*
X964217000Y232979500D01*
G75*
G02*
X964454500Y233217000I237500J0D01*
G01*
G37*
G36*
G01*
X964454500Y234967000D02*
X964929500Y234967000D01*
G75*
G02*
X965167000Y234729500I0J-237500D01*
G01*
X965167000Y234154500D01*
G75*
G02*
X964929500Y233917000I-237500J0D01*
G01*
X964454500Y233917000D01*
G75*
G02*
X964217000Y234154500I0J237500D01*
G01*
X964217000Y234729500D01*
G75*
G02*
X964454500Y234967000I237500J0D01*
G01*
G37*
%TD*%
%TO.C,D7*%
G36*
G01*
X961406500Y233217000D02*
X961881500Y233217000D01*
G75*
G02*
X962119000Y232979500I0J-237500D01*
G01*
X962119000Y232404500D01*
G75*
G02*
X961881500Y232167000I-237500J0D01*
G01*
X961406500Y232167000D01*
G75*
G02*
X961169000Y232404500I0J237500D01*
G01*
X961169000Y232979500D01*
G75*
G02*
X961406500Y233217000I237500J0D01*
G01*
G37*
G36*
G01*
X961406500Y234967000D02*
X961881500Y234967000D01*
G75*
G02*
X962119000Y234729500I0J-237500D01*
G01*
X962119000Y234154500D01*
G75*
G02*
X961881500Y233917000I-237500J0D01*
G01*
X961406500Y233917000D01*
G75*
G02*
X961169000Y234154500I0J237500D01*
G01*
X961169000Y234729500D01*
G75*
G02*
X961406500Y234967000I237500J0D01*
G01*
G37*
%TD*%
%TO.C,D6*%
G36*
G01*
X958104500Y233189000D02*
X958579500Y233189000D01*
G75*
G02*
X958817000Y232951500I0J-237500D01*
G01*
X958817000Y232376500D01*
G75*
G02*
X958579500Y232139000I-237500J0D01*
G01*
X958104500Y232139000D01*
G75*
G02*
X957867000Y232376500I0J237500D01*
G01*
X957867000Y232951500D01*
G75*
G02*
X958104500Y233189000I237500J0D01*
G01*
G37*
G36*
G01*
X958104500Y234939000D02*
X958579500Y234939000D01*
G75*
G02*
X958817000Y234701500I0J-237500D01*
G01*
X958817000Y234126500D01*
G75*
G02*
X958579500Y233889000I-237500J0D01*
G01*
X958104500Y233889000D01*
G75*
G02*
X957867000Y234126500I0J237500D01*
G01*
X957867000Y234701500D01*
G75*
G02*
X958104500Y234939000I237500J0D01*
G01*
G37*
%TD*%
%TO.C,D5*%
G36*
G01*
X955056500Y233217000D02*
X955531500Y233217000D01*
G75*
G02*
X955769000Y232979500I0J-237500D01*
G01*
X955769000Y232404500D01*
G75*
G02*
X955531500Y232167000I-237500J0D01*
G01*
X955056500Y232167000D01*
G75*
G02*
X954819000Y232404500I0J237500D01*
G01*
X954819000Y232979500D01*
G75*
G02*
X955056500Y233217000I237500J0D01*
G01*
G37*
G36*
G01*
X955056500Y234967000D02*
X955531500Y234967000D01*
G75*
G02*
X955769000Y234729500I0J-237500D01*
G01*
X955769000Y234154500D01*
G75*
G02*
X955531500Y233917000I-237500J0D01*
G01*
X955056500Y233917000D01*
G75*
G02*
X954819000Y234154500I0J237500D01*
G01*
X954819000Y234729500D01*
G75*
G02*
X955056500Y234967000I237500J0D01*
G01*
G37*
%TD*%
%TO.C,D4*%
G36*
G01*
X955056500Y224327000D02*
X955531500Y224327000D01*
G75*
G02*
X955769000Y224089500I0J-237500D01*
G01*
X955769000Y223514500D01*
G75*
G02*
X955531500Y223277000I-237500J0D01*
G01*
X955056500Y223277000D01*
G75*
G02*
X954819000Y223514500I0J237500D01*
G01*
X954819000Y224089500D01*
G75*
G02*
X955056500Y224327000I237500J0D01*
G01*
G37*
G36*
G01*
X955056500Y226077000D02*
X955531500Y226077000D01*
G75*
G02*
X955769000Y225839500I0J-237500D01*
G01*
X955769000Y225264500D01*
G75*
G02*
X955531500Y225027000I-237500J0D01*
G01*
X955056500Y225027000D01*
G75*
G02*
X954819000Y225264500I0J237500D01*
G01*
X954819000Y225839500D01*
G75*
G02*
X955056500Y226077000I237500J0D01*
G01*
G37*
%TD*%
%TO.C,D3*%
G36*
G01*
X958104500Y224327000D02*
X958579500Y224327000D01*
G75*
G02*
X958817000Y224089500I0J-237500D01*
G01*
X958817000Y223514500D01*
G75*
G02*
X958579500Y223277000I-237500J0D01*
G01*
X958104500Y223277000D01*
G75*
G02*
X957867000Y223514500I0J237500D01*
G01*
X957867000Y224089500D01*
G75*
G02*
X958104500Y224327000I237500J0D01*
G01*
G37*
G36*
G01*
X958104500Y226077000D02*
X958579500Y226077000D01*
G75*
G02*
X958817000Y225839500I0J-237500D01*
G01*
X958817000Y225264500D01*
G75*
G02*
X958579500Y225027000I-237500J0D01*
G01*
X958104500Y225027000D01*
G75*
G02*
X957867000Y225264500I0J237500D01*
G01*
X957867000Y225839500D01*
G75*
G02*
X958104500Y226077000I237500J0D01*
G01*
G37*
%TD*%
%TO.C,C1*%
G36*
G01*
X964962500Y192307500D02*
X965437500Y192307500D01*
G75*
G02*
X965675000Y192070000I0J-237500D01*
G01*
X965675000Y191470000D01*
G75*
G02*
X965437500Y191232500I-237500J0D01*
G01*
X964962500Y191232500D01*
G75*
G02*
X964725000Y191470000I0J237500D01*
G01*
X964725000Y192070000D01*
G75*
G02*
X964962500Y192307500I237500J0D01*
G01*
G37*
G36*
G01*
X964962500Y190582500D02*
X965437500Y190582500D01*
G75*
G02*
X965675000Y190345000I0J-237500D01*
G01*
X965675000Y189745000D01*
G75*
G02*
X965437500Y189507500I-237500J0D01*
G01*
X964962500Y189507500D01*
G75*
G02*
X964725000Y189745000I0J237500D01*
G01*
X964725000Y190345000D01*
G75*
G02*
X964962500Y190582500I237500J0D01*
G01*
G37*
%TD*%
%TO.C,C2*%
G36*
G01*
X966387500Y206772500D02*
X966387500Y207247500D01*
G75*
G02*
X966625000Y207485000I237500J0D01*
G01*
X967225000Y207485000D01*
G75*
G02*
X967462500Y207247500I0J-237500D01*
G01*
X967462500Y206772500D01*
G75*
G02*
X967225000Y206535000I-237500J0D01*
G01*
X966625000Y206535000D01*
G75*
G02*
X966387500Y206772500I0J237500D01*
G01*
G37*
G36*
G01*
X964662500Y206772500D02*
X964662500Y207247500D01*
G75*
G02*
X964900000Y207485000I237500J0D01*
G01*
X965500000Y207485000D01*
G75*
G02*
X965737500Y207247500I0J-237500D01*
G01*
X965737500Y206772500D01*
G75*
G02*
X965500000Y206535000I-237500J0D01*
G01*
X964900000Y206535000D01*
G75*
G02*
X964662500Y206772500I0J237500D01*
G01*
G37*
%TD*%
%TO.C,C3*%
G36*
G01*
X984012500Y190582500D02*
X984487500Y190582500D01*
G75*
G02*
X984725000Y190345000I0J-237500D01*
G01*
X984725000Y189745000D01*
G75*
G02*
X984487500Y189507500I-237500J0D01*
G01*
X984012500Y189507500D01*
G75*
G02*
X983775000Y189745000I0J237500D01*
G01*
X983775000Y190345000D01*
G75*
G02*
X984012500Y190582500I237500J0D01*
G01*
G37*
G36*
G01*
X984012500Y192307500D02*
X984487500Y192307500D01*
G75*
G02*
X984725000Y192070000I0J-237500D01*
G01*
X984725000Y191470000D01*
G75*
G02*
X984487500Y191232500I-237500J0D01*
G01*
X984012500Y191232500D01*
G75*
G02*
X983775000Y191470000I0J237500D01*
G01*
X983775000Y192070000D01*
G75*
G02*
X984012500Y192307500I237500J0D01*
G01*
G37*
%TD*%
%TO.C,C4*%
G36*
G01*
X983712500Y206772500D02*
X983712500Y207247500D01*
G75*
G02*
X983950000Y207485000I237500J0D01*
G01*
X984550000Y207485000D01*
G75*
G02*
X984787500Y207247500I0J-237500D01*
G01*
X984787500Y206772500D01*
G75*
G02*
X984550000Y206535000I-237500J0D01*
G01*
X983950000Y206535000D01*
G75*
G02*
X983712500Y206772500I0J237500D01*
G01*
G37*
G36*
G01*
X985437500Y206772500D02*
X985437500Y207247500D01*
G75*
G02*
X985675000Y207485000I237500J0D01*
G01*
X986275000Y207485000D01*
G75*
G02*
X986512500Y207247500I0J-237500D01*
G01*
X986512500Y206772500D01*
G75*
G02*
X986275000Y206535000I-237500J0D01*
G01*
X985675000Y206535000D01*
G75*
G02*
X985437500Y206772500I0J237500D01*
G01*
G37*
%TD*%
%TO.C,C5*%
G36*
G01*
X980664500Y229378500D02*
X980664500Y229853500D01*
G75*
G02*
X980902000Y230091000I237500J0D01*
G01*
X981502000Y230091000D01*
G75*
G02*
X981739500Y229853500I0J-237500D01*
G01*
X981739500Y229378500D01*
G75*
G02*
X981502000Y229141000I-237500J0D01*
G01*
X980902000Y229141000D01*
G75*
G02*
X980664500Y229378500I0J237500D01*
G01*
G37*
G36*
G01*
X982389500Y229378500D02*
X982389500Y229853500D01*
G75*
G02*
X982627000Y230091000I237500J0D01*
G01*
X983227000Y230091000D01*
G75*
G02*
X983464500Y229853500I0J-237500D01*
G01*
X983464500Y229378500D01*
G75*
G02*
X983227000Y229141000I-237500J0D01*
G01*
X982627000Y229141000D01*
G75*
G02*
X982389500Y229378500I0J237500D01*
G01*
G37*
%TD*%
%TO.C,C6*%
G36*
G01*
X977982500Y229853500D02*
X977982500Y229378500D01*
G75*
G02*
X977745000Y229141000I-237500J0D01*
G01*
X977145000Y229141000D01*
G75*
G02*
X976907500Y229378500I0J237500D01*
G01*
X976907500Y229853500D01*
G75*
G02*
X977145000Y230091000I237500J0D01*
G01*
X977745000Y230091000D01*
G75*
G02*
X977982500Y229853500I0J-237500D01*
G01*
G37*
G36*
G01*
X979707500Y229853500D02*
X979707500Y229378500D01*
G75*
G02*
X979470000Y229141000I-237500J0D01*
G01*
X978870000Y229141000D01*
G75*
G02*
X978632500Y229378500I0J237500D01*
G01*
X978632500Y229853500D01*
G75*
G02*
X978870000Y230091000I237500J0D01*
G01*
X979470000Y230091000D01*
G75*
G02*
X979707500Y229853500I0J-237500D01*
G01*
G37*
%TD*%
%TO.C,C7*%
G36*
G01*
X1000984500Y223028500D02*
X1000984500Y223503500D01*
G75*
G02*
X1001222000Y223741000I237500J0D01*
G01*
X1001822000Y223741000D01*
G75*
G02*
X1002059500Y223503500I0J-237500D01*
G01*
X1002059500Y223028500D01*
G75*
G02*
X1001822000Y222791000I-237500J0D01*
G01*
X1001222000Y222791000D01*
G75*
G02*
X1000984500Y223028500I0J237500D01*
G01*
G37*
G36*
G01*
X1002709500Y223028500D02*
X1002709500Y223503500D01*
G75*
G02*
X1002947000Y223741000I237500J0D01*
G01*
X1003547000Y223741000D01*
G75*
G02*
X1003784500Y223503500I0J-237500D01*
G01*
X1003784500Y223028500D01*
G75*
G02*
X1003547000Y222791000I-237500J0D01*
G01*
X1002947000Y222791000D01*
G75*
G02*
X1002709500Y223028500I0J237500D01*
G01*
G37*
%TD*%
%TO.C,D1*%
G36*
G01*
X985791000Y218423500D02*
X985791000Y217948500D01*
G75*
G02*
X985553500Y217711000I-237500J0D01*
G01*
X984978500Y217711000D01*
G75*
G02*
X984741000Y217948500I0J237500D01*
G01*
X984741000Y218423500D01*
G75*
G02*
X984978500Y218661000I237500J0D01*
G01*
X985553500Y218661000D01*
G75*
G02*
X985791000Y218423500I0J-237500D01*
G01*
G37*
G36*
G01*
X987541000Y218423500D02*
X987541000Y217948500D01*
G75*
G02*
X987303500Y217711000I-237500J0D01*
G01*
X986728500Y217711000D01*
G75*
G02*
X986491000Y217948500I0J237500D01*
G01*
X986491000Y218423500D01*
G75*
G02*
X986728500Y218661000I237500J0D01*
G01*
X987303500Y218661000D01*
G75*
G02*
X987541000Y218423500I0J-237500D01*
G01*
G37*
%TD*%
%TO.C,D2*%
G36*
G01*
X987541000Y215629500D02*
X987541000Y215154500D01*
G75*
G02*
X987303500Y214917000I-237500J0D01*
G01*
X986728500Y214917000D01*
G75*
G02*
X986491000Y215154500I0J237500D01*
G01*
X986491000Y215629500D01*
G75*
G02*
X986728500Y215867000I237500J0D01*
G01*
X987303500Y215867000D01*
G75*
G02*
X987541000Y215629500I0J-237500D01*
G01*
G37*
G36*
G01*
X985791000Y215629500D02*
X985791000Y215154500D01*
G75*
G02*
X985553500Y214917000I-237500J0D01*
G01*
X984978500Y214917000D01*
G75*
G02*
X984741000Y215154500I0J237500D01*
G01*
X984741000Y215629500D01*
G75*
G02*
X984978500Y215867000I237500J0D01*
G01*
X985553500Y215867000D01*
G75*
G02*
X985791000Y215629500I0J-237500D01*
G01*
G37*
%TD*%
%TO.C,R1*%
G36*
G01*
X981439500Y225271500D02*
X980964500Y225271500D01*
G75*
G02*
X980727000Y225509000I0J237500D01*
G01*
X980727000Y226009000D01*
G75*
G02*
X980964500Y226246500I237500J0D01*
G01*
X981439500Y226246500D01*
G75*
G02*
X981677000Y226009000I0J-237500D01*
G01*
X981677000Y225509000D01*
G75*
G02*
X981439500Y225271500I-237500J0D01*
G01*
G37*
G36*
G01*
X981439500Y227096500D02*
X980964500Y227096500D01*
G75*
G02*
X980727000Y227334000I0J237500D01*
G01*
X980727000Y227834000D01*
G75*
G02*
X980964500Y228071500I237500J0D01*
G01*
X981439500Y228071500D01*
G75*
G02*
X981677000Y227834000I0J-237500D01*
G01*
X981677000Y227334000D01*
G75*
G02*
X981439500Y227096500I-237500J0D01*
G01*
G37*
%TD*%
%TO.C,R2*%
G36*
G01*
X979454500Y227096500D02*
X978979500Y227096500D01*
G75*
G02*
X978742000Y227334000I0J237500D01*
G01*
X978742000Y227834000D01*
G75*
G02*
X978979500Y228071500I237500J0D01*
G01*
X979454500Y228071500D01*
G75*
G02*
X979692000Y227834000I0J-237500D01*
G01*
X979692000Y227334000D01*
G75*
G02*
X979454500Y227096500I-237500J0D01*
G01*
G37*
G36*
G01*
X979454500Y225271500D02*
X978979500Y225271500D01*
G75*
G02*
X978742000Y225509000I0J237500D01*
G01*
X978742000Y226009000D01*
G75*
G02*
X978979500Y226246500I237500J0D01*
G01*
X979454500Y226246500D01*
G75*
G02*
X979692000Y226009000I0J-237500D01*
G01*
X979692000Y225509000D01*
G75*
G02*
X979454500Y225271500I-237500J0D01*
G01*
G37*
%TD*%
%TO.C,R3*%
G36*
G01*
X1001962500Y227313500D02*
X1001962500Y226838500D01*
G75*
G02*
X1001725000Y226601000I-237500J0D01*
G01*
X1001225000Y226601000D01*
G75*
G02*
X1000987500Y226838500I0J237500D01*
G01*
X1000987500Y227313500D01*
G75*
G02*
X1001225000Y227551000I237500J0D01*
G01*
X1001725000Y227551000D01*
G75*
G02*
X1001962500Y227313500I0J-237500D01*
G01*
G37*
G36*
G01*
X1003787500Y227313500D02*
X1003787500Y226838500D01*
G75*
G02*
X1003550000Y226601000I-237500J0D01*
G01*
X1003050000Y226601000D01*
G75*
G02*
X1002812500Y226838500I0J237500D01*
G01*
X1002812500Y227313500D01*
G75*
G02*
X1003050000Y227551000I237500J0D01*
G01*
X1003550000Y227551000D01*
G75*
G02*
X1003787500Y227313500I0J-237500D01*
G01*
G37*
%TD*%
%TO.C,R4*%
G36*
G01*
X1000987500Y228616500D02*
X1000987500Y229091500D01*
G75*
G02*
X1001225000Y229329000I237500J0D01*
G01*
X1001725000Y229329000D01*
G75*
G02*
X1001962500Y229091500I0J-237500D01*
G01*
X1001962500Y228616500D01*
G75*
G02*
X1001725000Y228379000I-237500J0D01*
G01*
X1001225000Y228379000D01*
G75*
G02*
X1000987500Y228616500I0J237500D01*
G01*
G37*
G36*
G01*
X1002812500Y228616500D02*
X1002812500Y229091500D01*
G75*
G02*
X1003050000Y229329000I237500J0D01*
G01*
X1003550000Y229329000D01*
G75*
G02*
X1003787500Y229091500I0J-237500D01*
G01*
X1003787500Y228616500D01*
G75*
G02*
X1003550000Y228379000I-237500J0D01*
G01*
X1003050000Y228379000D01*
G75*
G02*
X1002812500Y228616500I0J237500D01*
G01*
G37*
%TD*%
%TO.C,R5*%
G36*
G01*
X979610500Y218423500D02*
X979610500Y217948500D01*
G75*
G02*
X979373000Y217711000I-237500J0D01*
G01*
X978873000Y217711000D01*
G75*
G02*
X978635500Y217948500I0J237500D01*
G01*
X978635500Y218423500D01*
G75*
G02*
X978873000Y218661000I237500J0D01*
G01*
X979373000Y218661000D01*
G75*
G02*
X979610500Y218423500I0J-237500D01*
G01*
G37*
G36*
G01*
X981435500Y218423500D02*
X981435500Y217948500D01*
G75*
G02*
X981198000Y217711000I-237500J0D01*
G01*
X980698000Y217711000D01*
G75*
G02*
X980460500Y217948500I0J237500D01*
G01*
X980460500Y218423500D01*
G75*
G02*
X980698000Y218661000I237500J0D01*
G01*
X981198000Y218661000D01*
G75*
G02*
X981435500Y218423500I0J-237500D01*
G01*
G37*
%TD*%
%TO.C,R6*%
G36*
G01*
X981482500Y215629500D02*
X981482500Y215154500D01*
G75*
G02*
X981245000Y214917000I-237500J0D01*
G01*
X980745000Y214917000D01*
G75*
G02*
X980507500Y215154500I0J237500D01*
G01*
X980507500Y215629500D01*
G75*
G02*
X980745000Y215867000I237500J0D01*
G01*
X981245000Y215867000D01*
G75*
G02*
X981482500Y215629500I0J-237500D01*
G01*
G37*
G36*
G01*
X979657500Y215629500D02*
X979657500Y215154500D01*
G75*
G02*
X979420000Y214917000I-237500J0D01*
G01*
X978920000Y214917000D01*
G75*
G02*
X978682500Y215154500I0J237500D01*
G01*
X978682500Y215629500D01*
G75*
G02*
X978920000Y215867000I237500J0D01*
G01*
X979420000Y215867000D01*
G75*
G02*
X979657500Y215629500I0J-237500D01*
G01*
G37*
%TD*%
D10*
%TO.C,U4*%
X993020000Y227012500D03*
X993020000Y226377500D03*
X993020000Y225742500D03*
X993020000Y225107500D03*
X993020000Y224472500D03*
X993020000Y223837500D03*
X993020000Y223202500D03*
X993020000Y222567500D03*
X998220000Y222567500D03*
X998220000Y223202500D03*
X998220000Y223837500D03*
X998220000Y224472500D03*
X998220000Y225107500D03*
X998220000Y225742500D03*
X998220000Y226377500D03*
X998220000Y227012500D03*
%TD*%
%TO.C,100nF1*%
G36*
G01*
X1008657500Y223028500D02*
X1008657500Y223503500D01*
G75*
G02*
X1008895000Y223741000I237500J0D01*
G01*
X1009495000Y223741000D01*
G75*
G02*
X1009732500Y223503500I0J-237500D01*
G01*
X1009732500Y223028500D01*
G75*
G02*
X1009495000Y222791000I-237500J0D01*
G01*
X1008895000Y222791000D01*
G75*
G02*
X1008657500Y223028500I0J237500D01*
G01*
G37*
G36*
G01*
X1010382500Y223028500D02*
X1010382500Y223503500D01*
G75*
G02*
X1010620000Y223741000I237500J0D01*
G01*
X1011220000Y223741000D01*
G75*
G02*
X1011457500Y223503500I0J-237500D01*
G01*
X1011457500Y223028500D01*
G75*
G02*
X1011220000Y222791000I-237500J0D01*
G01*
X1010620000Y222791000D01*
G75*
G02*
X1010382500Y223028500I0J237500D01*
G01*
G37*
%TD*%
%TO.C,FB1*%
G36*
G01*
X990288001Y229810000D02*
X989387999Y229810000D01*
G75*
G02*
X989138000Y230059999I0J249999D01*
G01*
X989138000Y230760001D01*
G75*
G02*
X989387999Y231010000I249999J0D01*
G01*
X990288001Y231010000D01*
G75*
G02*
X990538000Y230760001I0J-249999D01*
G01*
X990538000Y230059999D01*
G75*
G02*
X990288001Y229810000I-249999J0D01*
G01*
G37*
G36*
G01*
X990288001Y231810000D02*
X989387999Y231810000D01*
G75*
G02*
X989138000Y232059999I0J249999D01*
G01*
X989138000Y232760001D01*
G75*
G02*
X989387999Y233010000I249999J0D01*
G01*
X990288001Y233010000D01*
G75*
G02*
X990538000Y232760001I0J-249999D01*
G01*
X990538000Y232059999D01*
G75*
G02*
X990288001Y231810000I-249999J0D01*
G01*
G37*
%TD*%
%TO.C,R7*%
G36*
G01*
X955056500Y222022500D02*
X955531500Y222022500D01*
G75*
G02*
X955769000Y221785000I0J-237500D01*
G01*
X955769000Y221285000D01*
G75*
G02*
X955531500Y221047500I-237500J0D01*
G01*
X955056500Y221047500D01*
G75*
G02*
X954819000Y221285000I0J237500D01*
G01*
X954819000Y221785000D01*
G75*
G02*
X955056500Y222022500I237500J0D01*
G01*
G37*
G36*
G01*
X955056500Y220197500D02*
X955531500Y220197500D01*
G75*
G02*
X955769000Y219960000I0J-237500D01*
G01*
X955769000Y219460000D01*
G75*
G02*
X955531500Y219222500I-237500J0D01*
G01*
X955056500Y219222500D01*
G75*
G02*
X954819000Y219460000I0J237500D01*
G01*
X954819000Y219960000D01*
G75*
G02*
X955056500Y220197500I237500J0D01*
G01*
G37*
%TD*%
%TO.C,R8*%
G36*
G01*
X958104500Y220197500D02*
X958579500Y220197500D01*
G75*
G02*
X958817000Y219960000I0J-237500D01*
G01*
X958817000Y219460000D01*
G75*
G02*
X958579500Y219222500I-237500J0D01*
G01*
X958104500Y219222500D01*
G75*
G02*
X957867000Y219460000I0J237500D01*
G01*
X957867000Y219960000D01*
G75*
G02*
X958104500Y220197500I237500J0D01*
G01*
G37*
G36*
G01*
X958104500Y222022500D02*
X958579500Y222022500D01*
G75*
G02*
X958817000Y221785000I0J-237500D01*
G01*
X958817000Y221285000D01*
G75*
G02*
X958579500Y221047500I-237500J0D01*
G01*
X958104500Y221047500D01*
G75*
G02*
X957867000Y221285000I0J237500D01*
G01*
X957867000Y221785000D01*
G75*
G02*
X958104500Y222022500I237500J0D01*
G01*
G37*
%TD*%
M02*
