%TF.GenerationSoftware,KiCad,Pcbnew,(5.1.7)-1*%
%TF.CreationDate,2020-11-29T15:53:39-06:00*%
%TF.ProjectId,2021_Rev1,32303231-5f52-4657-9631-2e6b69636164,rev?*%
%TF.SameCoordinates,Original*%
%TF.FileFunction,Paste,Bot*%
%TF.FilePolarity,Positive*%
%FSLAX46Y46*%
G04 Gerber Fmt 4.6, Leading zero omitted, Abs format (unit mm)*
G04 Created by KiCad (PCBNEW (5.1.7)-1) date 2020-11-29 15:53:39*
%MOMM*%
%LPD*%
G01*
G04 APERTURE LIST*
%ADD10C,1.520000*%
G04 APERTURE END LIST*
D10*
%TO.C,U1*%
X971550000Y212090000D03*
X994410000Y166370000D03*
X991870000Y166370000D03*
X984250000Y166370000D03*
X981710000Y209550000D03*
X986790000Y166370000D03*
X989330000Y166370000D03*
X986790000Y212090000D03*
X991870000Y209550000D03*
X981710000Y166370000D03*
X979170000Y166370000D03*
X991870000Y212090000D03*
X986790000Y209550000D03*
X984250000Y209550000D03*
X971550000Y209550000D03*
X974090000Y209550000D03*
X976630000Y209550000D03*
X979170000Y209550000D03*
X989330000Y209550000D03*
X994410000Y209550000D03*
X974090000Y212090000D03*
X976630000Y212090000D03*
X979170000Y212090000D03*
X981710000Y212090000D03*
X984250000Y212090000D03*
X989330000Y212090000D03*
X994410000Y212090000D03*
X971550000Y168910000D03*
X974090000Y168910000D03*
X976630000Y168910000D03*
X979170000Y168910000D03*
X981710000Y168910000D03*
X984250000Y168910000D03*
X986790000Y168910000D03*
X989330000Y168910000D03*
X991870000Y168910000D03*
X994410000Y168910000D03*
X971550000Y166370000D03*
X974090000Y166370000D03*
X976630000Y166370000D03*
X908050000Y209550000D03*
X910590000Y209550000D03*
X913130000Y209550000D03*
X915670000Y209550000D03*
X918210000Y209550000D03*
X920750000Y209550000D03*
X923290000Y209550000D03*
X925830000Y209550000D03*
X928370000Y209550000D03*
X930910000Y209550000D03*
X908050000Y212090000D03*
X910590000Y212090000D03*
X913130000Y212090000D03*
X915670000Y212090000D03*
X918210000Y212090000D03*
X920750000Y212090000D03*
X923290000Y212090000D03*
X925830000Y212090000D03*
X928370000Y212090000D03*
X930910000Y212090000D03*
X908050000Y168910000D03*
X910590000Y168910000D03*
X913130000Y168910000D03*
X915670000Y168910000D03*
X918210000Y168910000D03*
X920750000Y168910000D03*
X923290000Y168910000D03*
X925830000Y168910000D03*
X928370000Y168910000D03*
X930910000Y168910000D03*
X908050000Y166370000D03*
X910590000Y166370000D03*
X913130000Y166370000D03*
X915670000Y166370000D03*
X918210000Y166370000D03*
X920750000Y166370000D03*
X923290000Y166370000D03*
X925830000Y166370000D03*
X928370000Y166370000D03*
X930910000Y166370000D03*
%TD*%
M02*
