%TF.GenerationSoftware,KiCad,Pcbnew,(5.1.7)-1*%
%TF.CreationDate,2020-11-30T19:52:10-06:00*%
%TF.ProjectId,2021_Rev1,32303231-5f52-4657-9631-2e6b69636164,rev?*%
%TF.SameCoordinates,Original*%
%TF.FileFunction,Soldermask,Top*%
%TF.FilePolarity,Negative*%
%FSLAX46Y46*%
G04 Gerber Fmt 4.6, Leading zero omitted, Abs format (unit mm)*
G04 Created by KiCad (PCBNEW (5.1.7)-1) date 2020-11-30 19:52:10*
%MOMM*%
%LPD*%
G01*
G04 APERTURE LIST*
%ADD10C,1.520000*%
%ADD11C,2.946400*%
%ADD12C,2.286000*%
%ADD13O,2.410000X4.820000*%
%ADD14C,1.524000*%
%ADD15C,2.999999*%
%ADD16R,1.600000X1.600000*%
%ADD17C,1.600000*%
G04 APERTURE END LIST*
D10*
%TO.C,U1*%
X948690000Y212090000D03*
X925830000Y166370000D03*
X928370000Y166370000D03*
X935990000Y166370000D03*
X938530000Y209550000D03*
X933450000Y166370000D03*
X930910000Y166370000D03*
X933450000Y212090000D03*
X928370000Y209550000D03*
X938530000Y166370000D03*
X941070000Y166370000D03*
X928370000Y212090000D03*
X933450000Y209550000D03*
X935990000Y209550000D03*
X948690000Y209550000D03*
X946150000Y209550000D03*
X943610000Y209550000D03*
X941070000Y209550000D03*
X930910000Y209550000D03*
X925830000Y209550000D03*
X946150000Y212090000D03*
X943610000Y212090000D03*
X941070000Y212090000D03*
X938530000Y212090000D03*
X935990000Y212090000D03*
X930910000Y212090000D03*
X925830000Y212090000D03*
X948690000Y168910000D03*
X946150000Y168910000D03*
X943610000Y168910000D03*
X941070000Y168910000D03*
X938530000Y168910000D03*
X935990000Y168910000D03*
X933450000Y168910000D03*
X930910000Y168910000D03*
X928370000Y168910000D03*
X925830000Y168910000D03*
X948690000Y166370000D03*
X946150000Y166370000D03*
X943610000Y166370000D03*
X1012190000Y209550000D03*
X1009650000Y209550000D03*
X1007110000Y209550000D03*
X1004570000Y209550000D03*
X1002030000Y209550000D03*
X999490000Y209550000D03*
X996950000Y209550000D03*
X994410000Y209550000D03*
X991870000Y209550000D03*
X989330000Y209550000D03*
X1012190000Y212090000D03*
X1009650000Y212090000D03*
X1007110000Y212090000D03*
X1004570000Y212090000D03*
X1002030000Y212090000D03*
X999490000Y212090000D03*
X996950000Y212090000D03*
X994410000Y212090000D03*
X991870000Y212090000D03*
X989330000Y212090000D03*
X1012190000Y168910000D03*
X1009650000Y168910000D03*
X1007110000Y168910000D03*
X1004570000Y168910000D03*
X1002030000Y168910000D03*
X999490000Y168910000D03*
X996950000Y168910000D03*
X994410000Y168910000D03*
X991870000Y168910000D03*
X989330000Y168910000D03*
X1012190000Y166370000D03*
X1009650000Y166370000D03*
X1007110000Y166370000D03*
X1004570000Y166370000D03*
X1002030000Y166370000D03*
X999490000Y166370000D03*
X996950000Y166370000D03*
X994410000Y166370000D03*
X991870000Y166370000D03*
X989330000Y166370000D03*
%TD*%
D11*
%TO.C,REF\u002A\u002A*%
X903279880Y240990120D03*
%TD*%
%TO.C,REF\u002A\u002A*%
X903279880Y167949880D03*
%TD*%
%TO.C,REF\u002A\u002A*%
X1019500120Y167949880D03*
%TD*%
%TO.C,REF\u002A\u002A*%
X1019500120Y240990120D03*
%TD*%
D12*
%TO.C,BT1*%
X992251000Y179095400D03*
X1005636800Y201599800D03*
X978763600Y201599800D03*
D13*
X966470000Y183896000D03*
X966470000Y196850000D03*
%TD*%
D14*
%TO.C,Conn2*%
X1007110000Y219710000D03*
X1004570000Y219710000D03*
X1002030000Y219710000D03*
X999490000Y219710000D03*
X999490000Y219710000D03*
%TD*%
%TO.C,Conn3*%
X999490000Y228600000D03*
X999490000Y228600000D03*
X1002030000Y228600000D03*
X1004570000Y228600000D03*
X1007110000Y228600000D03*
%TD*%
%TO.C,Conn4*%
X989330000Y228600000D03*
X991870000Y228600000D03*
%TD*%
%TO.C,Conn5*%
X979170000Y219710000D03*
X976630000Y219710000D03*
%TD*%
%TO.C,Conn6*%
X1007110000Y237490000D03*
X1004570000Y237490000D03*
X1002030000Y237490000D03*
X999490000Y237490000D03*
X996950000Y237490000D03*
X994410000Y237490000D03*
X991870000Y237490000D03*
X989330000Y237490000D03*
X986790000Y237490000D03*
X984250000Y237490000D03*
%TD*%
%TO.C,Conn7*%
X976630000Y237490000D03*
X974090000Y237490000D03*
%TD*%
%TO.C,Conn8*%
X991870000Y219710000D03*
X989330000Y219710000D03*
X986790000Y219710000D03*
%TD*%
D15*
%TO.C,J1*%
X946640000Y235120000D03*
X933500000Y235120000D03*
D16*
X936570000Y232410000D03*
D17*
X939070000Y232410000D03*
X941070000Y232410000D03*
X943570000Y232410000D03*
%TD*%
D14*
%TO.C,U2*%
X955040000Y201930000D03*
X955040000Y199390000D03*
X955040000Y196850000D03*
%TD*%
%TO.C,U3*%
X935990000Y196850000D03*
X935990000Y199390000D03*
X935990000Y201930000D03*
%TD*%
D16*
%TO.C,4.7uF1*%
X911098000Y229870000D03*
D17*
X908598000Y229870000D03*
%TD*%
M02*
