%TF.GenerationSoftware,KiCad,Pcbnew,(5.1.7)-1*%
%TF.CreationDate,2020-11-30T14:39:19-06:00*%
%TF.ProjectId,2021_Rev1,32303231-5f52-4657-9631-2e6b69636164,rev?*%
%TF.SameCoordinates,Original*%
%TF.FileFunction,Legend,Bot*%
%TF.FilePolarity,Positive*%
%FSLAX46Y46*%
G04 Gerber Fmt 4.6, Leading zero omitted, Abs format (unit mm)*
G04 Created by KiCad (PCBNEW (5.1.7)-1) date 2020-11-30 14:39:19*
%MOMM*%
%LPD*%
G01*
G04 APERTURE LIST*
%ADD10C,0.150000*%
G04 APERTURE END LIST*
D10*
%TO.C,U1*%
X970280000Y165100000D02*
X970280000Y170180000D01*
X995680000Y165100000D02*
X970280000Y165100000D01*
X995680000Y170180000D02*
X995680000Y165100000D01*
X970280000Y213360000D02*
X995680000Y213360000D01*
X970280000Y208280000D02*
X970280000Y213360000D01*
X995680000Y213360000D02*
X995680000Y208280000D01*
X970280000Y170180000D02*
X995680000Y170180000D01*
X995680000Y208280000D02*
X970280000Y208280000D01*
X906780000Y170180000D02*
X932180000Y170180000D01*
X906780000Y165100000D02*
X906780000Y170180000D01*
X932180000Y165100000D02*
X906780000Y165100000D01*
X932180000Y170180000D02*
X932180000Y165100000D01*
X906780000Y213360000D02*
X932180000Y213360000D01*
X906780000Y208280000D02*
X906780000Y213360000D01*
X932180000Y208280000D02*
X906780000Y208280000D01*
X932180000Y213360000D02*
X932180000Y208280000D01*
X907764285Y170489619D02*
X908335714Y170489619D01*
X908050000Y170489619D02*
X908050000Y171489619D01*
X908145238Y171346761D01*
X908240476Y171251523D01*
X908335714Y171203904D01*
X931354476Y170489619D02*
X931925904Y170489619D01*
X931640190Y170489619D02*
X931640190Y171489619D01*
X931735428Y171346761D01*
X931830666Y171251523D01*
X931925904Y171203904D01*
X930735428Y171489619D02*
X930640190Y171489619D01*
X930544952Y171442000D01*
X930497333Y171394380D01*
X930449714Y171299142D01*
X930402095Y171108666D01*
X930402095Y170870571D01*
X930449714Y170680095D01*
X930497333Y170584857D01*
X930544952Y170537238D01*
X930640190Y170489619D01*
X930735428Y170489619D01*
X930830666Y170537238D01*
X930878285Y170584857D01*
X930925904Y170680095D01*
X930973523Y170870571D01*
X930973523Y171108666D01*
X930925904Y171299142D01*
X930878285Y171394380D01*
X930830666Y171442000D01*
X930735428Y171489619D01*
X907764285Y207065619D02*
X908335714Y207065619D01*
X908050000Y207065619D02*
X908050000Y208065619D01*
X908145238Y207922761D01*
X908240476Y207827523D01*
X908335714Y207779904D01*
X931354476Y207065619D02*
X931925904Y207065619D01*
X931640190Y207065619D02*
X931640190Y208065619D01*
X931735428Y207922761D01*
X931830666Y207827523D01*
X931925904Y207779904D01*
X930735428Y208065619D02*
X930640190Y208065619D01*
X930544952Y208018000D01*
X930497333Y207970380D01*
X930449714Y207875142D01*
X930402095Y207684666D01*
X930402095Y207446571D01*
X930449714Y207256095D01*
X930497333Y207160857D01*
X930544952Y207113238D01*
X930640190Y207065619D01*
X930735428Y207065619D01*
X930830666Y207113238D01*
X930878285Y207160857D01*
X930925904Y207256095D01*
X930973523Y207446571D01*
X930973523Y207684666D01*
X930925904Y207875142D01*
X930878285Y207970380D01*
X930830666Y208018000D01*
X930735428Y208065619D01*
X971264285Y170489619D02*
X971835714Y170489619D01*
X971550000Y170489619D02*
X971550000Y171489619D01*
X971645238Y171346761D01*
X971740476Y171251523D01*
X971835714Y171203904D01*
X994600476Y170489619D02*
X995171904Y170489619D01*
X994886190Y170489619D02*
X994886190Y171489619D01*
X994981428Y171346761D01*
X995076666Y171251523D01*
X995171904Y171203904D01*
X993981428Y171489619D02*
X993886190Y171489619D01*
X993790952Y171442000D01*
X993743333Y171394380D01*
X993695714Y171299142D01*
X993648095Y171108666D01*
X993648095Y170870571D01*
X993695714Y170680095D01*
X993743333Y170584857D01*
X993790952Y170537238D01*
X993886190Y170489619D01*
X993981428Y170489619D01*
X994076666Y170537238D01*
X994124285Y170584857D01*
X994171904Y170680095D01*
X994219523Y170870571D01*
X994219523Y171108666D01*
X994171904Y171299142D01*
X994124285Y171394380D01*
X994076666Y171442000D01*
X993981428Y171489619D01*
X994600476Y207065619D02*
X995171904Y207065619D01*
X994886190Y207065619D02*
X994886190Y208065619D01*
X994981428Y207922761D01*
X995076666Y207827523D01*
X995171904Y207779904D01*
X993981428Y208065619D02*
X993886190Y208065619D01*
X993790952Y208018000D01*
X993743333Y207970380D01*
X993695714Y207875142D01*
X993648095Y207684666D01*
X993648095Y207446571D01*
X993695714Y207256095D01*
X993743333Y207160857D01*
X993790952Y207113238D01*
X993886190Y207065619D01*
X993981428Y207065619D01*
X994076666Y207113238D01*
X994124285Y207160857D01*
X994171904Y207256095D01*
X994219523Y207446571D01*
X994219523Y207684666D01*
X994171904Y207875142D01*
X994124285Y207970380D01*
X994076666Y208018000D01*
X993981428Y208065619D01*
X971264285Y207065619D02*
X971835714Y207065619D01*
X971550000Y207065619D02*
X971550000Y208065619D01*
X971645238Y207922761D01*
X971740476Y207827523D01*
X971835714Y207779904D01*
X931973523Y172759619D02*
X931306857Y171759619D01*
X931306857Y172759619D02*
X931973523Y171759619D01*
X930878285Y171759619D02*
X930687809Y171759619D01*
X930592571Y171807238D01*
X930544952Y171854857D01*
X930449714Y171997714D01*
X930402095Y172188190D01*
X930402095Y172569142D01*
X930449714Y172664380D01*
X930497333Y172712000D01*
X930592571Y172759619D01*
X930783047Y172759619D01*
X930878285Y172712000D01*
X930925904Y172664380D01*
X930973523Y172569142D01*
X930973523Y172331047D01*
X930925904Y172235809D01*
X930878285Y172188190D01*
X930783047Y172140571D01*
X930592571Y172140571D01*
X930497333Y172188190D01*
X930449714Y172235809D01*
X930402095Y172331047D01*
X931973523Y206795619D02*
X931306857Y205795619D01*
X931306857Y206795619D02*
X931973523Y205795619D01*
X930783047Y206367047D02*
X930878285Y206414666D01*
X930925904Y206462285D01*
X930973523Y206557523D01*
X930973523Y206605142D01*
X930925904Y206700380D01*
X930878285Y206748000D01*
X930783047Y206795619D01*
X930592571Y206795619D01*
X930497333Y206748000D01*
X930449714Y206700380D01*
X930402095Y206605142D01*
X930402095Y206557523D01*
X930449714Y206462285D01*
X930497333Y206414666D01*
X930592571Y206367047D01*
X930783047Y206367047D01*
X930878285Y206319428D01*
X930925904Y206271809D01*
X930973523Y206176571D01*
X930973523Y205986095D01*
X930925904Y205890857D01*
X930878285Y205843238D01*
X930783047Y205795619D01*
X930592571Y205795619D01*
X930497333Y205843238D01*
X930449714Y205890857D01*
X930402095Y205986095D01*
X930402095Y206176571D01*
X930449714Y206271809D01*
X930497333Y206319428D01*
X930592571Y206367047D01*
X995219523Y172759619D02*
X994552857Y171759619D01*
X994552857Y172759619D02*
X995219523Y171759619D01*
X994267142Y172759619D02*
X993600476Y172759619D01*
X994029047Y171759619D01*
X995219523Y206795619D02*
X994552857Y205795619D01*
X994552857Y206795619D02*
X995219523Y205795619D01*
X993743333Y206795619D02*
X993933809Y206795619D01*
X994029047Y206748000D01*
X994076666Y206700380D01*
X994171904Y206557523D01*
X994219523Y206367047D01*
X994219523Y205986095D01*
X994171904Y205890857D01*
X994124285Y205843238D01*
X994029047Y205795619D01*
X993838571Y205795619D01*
X993743333Y205843238D01*
X993695714Y205890857D01*
X993648095Y205986095D01*
X993648095Y206224190D01*
X993695714Y206319428D01*
X993743333Y206367047D01*
X993838571Y206414666D01*
X994029047Y206414666D01*
X994124285Y206367047D01*
X994171904Y206319428D01*
X994219523Y206224190D01*
X933362666Y168552857D02*
X933410285Y168505238D01*
X933553142Y168457619D01*
X933648380Y168457619D01*
X933791238Y168505238D01*
X933886476Y168600476D01*
X933934095Y168695714D01*
X933981714Y168886190D01*
X933981714Y169029047D01*
X933934095Y169219523D01*
X933886476Y169314761D01*
X933791238Y169410000D01*
X933648380Y169457619D01*
X933553142Y169457619D01*
X933410285Y169410000D01*
X933362666Y169362380D01*
X932410285Y168457619D02*
X932981714Y168457619D01*
X932696000Y168457619D02*
X932696000Y169457619D01*
X932791238Y169314761D01*
X932886476Y169219523D01*
X932981714Y169171904D01*
X933934095Y166171619D02*
X933934095Y167171619D01*
X933696000Y167171619D01*
X933553142Y167124000D01*
X933457904Y167028761D01*
X933410285Y166933523D01*
X933362666Y166743047D01*
X933362666Y166600190D01*
X933410285Y166409714D01*
X933457904Y166314476D01*
X933553142Y166219238D01*
X933696000Y166171619D01*
X933934095Y166171619D01*
X932410285Y166171619D02*
X932981714Y166171619D01*
X932696000Y166171619D02*
X932696000Y167171619D01*
X932791238Y167028761D01*
X932886476Y166933523D01*
X932981714Y166885904D01*
X996862666Y168552857D02*
X996910285Y168505238D01*
X997053142Y168457619D01*
X997148380Y168457619D01*
X997291238Y168505238D01*
X997386476Y168600476D01*
X997434095Y168695714D01*
X997481714Y168886190D01*
X997481714Y169029047D01*
X997434095Y169219523D01*
X997386476Y169314761D01*
X997291238Y169410000D01*
X997148380Y169457619D01*
X997053142Y169457619D01*
X996910285Y169410000D01*
X996862666Y169362380D01*
X996481714Y169362380D02*
X996434095Y169410000D01*
X996338857Y169457619D01*
X996100761Y169457619D01*
X996005523Y169410000D01*
X995957904Y169362380D01*
X995910285Y169267142D01*
X995910285Y169171904D01*
X995957904Y169029047D01*
X996529333Y168457619D01*
X995910285Y168457619D01*
X997434095Y165663619D02*
X997434095Y166663619D01*
X997196000Y166663619D01*
X997053142Y166616000D01*
X996957904Y166520761D01*
X996910285Y166425523D01*
X996862666Y166235047D01*
X996862666Y166092190D01*
X996910285Y165901714D01*
X996957904Y165806476D01*
X997053142Y165711238D01*
X997196000Y165663619D01*
X997434095Y165663619D01*
X996481714Y166568380D02*
X996434095Y166616000D01*
X996338857Y166663619D01*
X996100761Y166663619D01*
X996005523Y166616000D01*
X995957904Y166568380D01*
X995910285Y166473142D01*
X995910285Y166377904D01*
X995957904Y166235047D01*
X996529333Y165663619D01*
X995910285Y165663619D01*
X933600761Y209621428D02*
X933457904Y209573809D01*
X933410285Y209526190D01*
X933362666Y209430952D01*
X933362666Y209288095D01*
X933410285Y209192857D01*
X933457904Y209145238D01*
X933553142Y209097619D01*
X933934095Y209097619D01*
X933934095Y210097619D01*
X933600761Y210097619D01*
X933505523Y210050000D01*
X933457904Y210002380D01*
X933410285Y209907142D01*
X933410285Y209811904D01*
X933457904Y209716666D01*
X933505523Y209669047D01*
X933600761Y209621428D01*
X933934095Y209621428D01*
X932410285Y209097619D02*
X932981714Y209097619D01*
X932696000Y209097619D02*
X932696000Y210097619D01*
X932791238Y209954761D01*
X932886476Y209859523D01*
X932981714Y209811904D01*
X933910285Y211923333D02*
X933434095Y211923333D01*
X934005523Y211637619D02*
X933672190Y212637619D01*
X933338857Y211637619D01*
X932481714Y211637619D02*
X933053142Y211637619D01*
X932767428Y211637619D02*
X932767428Y212637619D01*
X932862666Y212494761D01*
X932957904Y212399523D01*
X933053142Y212351904D01*
X997862761Y209367428D02*
X997719904Y209319809D01*
X997672285Y209272190D01*
X997624666Y209176952D01*
X997624666Y209034095D01*
X997672285Y208938857D01*
X997719904Y208891238D01*
X997815142Y208843619D01*
X998196095Y208843619D01*
X998196095Y209843619D01*
X997862761Y209843619D01*
X997767523Y209796000D01*
X997719904Y209748380D01*
X997672285Y209653142D01*
X997672285Y209557904D01*
X997719904Y209462666D01*
X997767523Y209415047D01*
X997862761Y209367428D01*
X998196095Y209367428D01*
X997243714Y209748380D02*
X997196095Y209796000D01*
X997100857Y209843619D01*
X996862761Y209843619D01*
X996767523Y209796000D01*
X996719904Y209748380D01*
X996672285Y209653142D01*
X996672285Y209557904D01*
X996719904Y209415047D01*
X997291333Y208843619D01*
X996672285Y208843619D01*
X998172285Y211923333D02*
X997696095Y211923333D01*
X998267523Y211637619D02*
X997934190Y212637619D01*
X997600857Y211637619D01*
X997315142Y212542380D02*
X997267523Y212590000D01*
X997172285Y212637619D01*
X996934190Y212637619D01*
X996838952Y212590000D01*
X996791333Y212542380D01*
X996743714Y212447142D01*
X996743714Y212351904D01*
X996791333Y212209047D01*
X997362761Y211637619D01*
X996743714Y211637619D01*
%TD*%
M02*
